<svg xmlns="http://www.w3.org/2000/svg" width="100%" height="100%" fill="white" viewBox="0 0 152 33" >


  <g class="logo"  clip-path="url(#clip0_2_405)">
    <mask id="mask0_2_405" style="mask-type:luminance" maskUnits="userSpaceOnUse" x="0" y="0" width="152" height="33">
      <path  d="M151.323 0.510002H0V32.51H151.323V0.510002Z" fill="white"/>
    </mask>
    <g  mask="url(#mask0_2_405)">
      <path d="M48.1407 6.98518V9.04368C48.9368 8.2433 49.8882 7.61412 50.9362 7.19473C51.9843 6.77534 53.1071 6.5745 54.2356 6.60477C60.0261 6.60477 64.1385 10.6815 64.1385 16.5123C64.1385 22.3431 60.0261 26.4152 54.2356 26.4152C53.1071 26.4454 51.9843 26.2448 50.9362 25.8254C49.8882 25.406 48.9368 24.7769 48.1407 23.9765V32.51H44.3281V7.0031L48.1407 6.98518ZM48.1407 16.5123C48.1407 20.3562 50.6154 22.9115 54.2356 22.9115C57.8558 22.9115 60.3304 20.3562 60.3304 16.5123C60.3304 12.6683 57.8916 10.0728 54.2356 10.0728C50.5796 10.0728 48.1407 12.6638 48.1407 16.5123Z" />
      <path d="M79.8145 0.510002H83.6226V4.31803H79.8145V0.510002ZM79.8145 6.98506H83.6226V26.0348H79.8145V6.98506Z" />
      <path d="M86.6924 16.5122C86.6924 10.7217 90.8094 6.60473 96.5999 6.60473C102.39 6.60473 106.503 10.7217 106.503 16.5122C106.503 22.3027 102.39 26.4151 96.5999 26.4151C90.8094 26.4151 86.6924 22.3385 86.6924 16.5122ZM102.695 16.5122C102.695 12.6638 100.256 10.0728 96.5999 10.0728C92.9439 10.0728 90.5005 12.6638 90.5005 16.5122C90.5005 20.3606 92.9797 22.9114 96.5999 22.9114C100.22 22.9114 102.695 20.3606 102.695 16.5122Z" />
      <path d="M109.532 6.98527H113.34V8.69919C113.971 8.02015 114.739 7.48258 115.593 7.12161C116.446 6.76065 117.367 6.5844 118.294 6.60486C122.827 6.60486 125.901 9.92093 125.901 14.6061V26.0351H122.089V14.6061C122.089 11.9212 120.375 10.0729 117.748 10.0729C115.005 10.0729 113.327 11.9391 113.327 14.6061V26.0351H109.519L109.532 6.98527Z" />
      <path d="M41.3033 26.4198H31.3959C29.4351 26.4206 27.5181 25.8399 25.8874 24.7511C24.2567 23.6623 22.9856 22.1144 22.2348 20.303C21.484 18.4917 21.2874 16.4984 21.6698 14.5753C22.0521 12.6521 22.9961 10.8855 24.3826 9.49905C25.769 8.11257 27.5356 7.16845 29.4588 6.78614C31.3819 6.40383 33.3752 6.60064 35.1865 7.3514C36.9979 8.10217 38.5459 9.37318 39.6347 11.0039C40.7235 12.6346 41.3041 14.5515 41.3033 16.5123V26.4198ZM31.3959 10.6278C30.6098 10.6061 29.8273 10.7423 29.0946 11.0281C28.362 11.314 27.6941 11.7438 27.1304 12.2921C26.5667 12.8405 26.1186 13.4964 25.8126 14.2209C25.5067 14.9453 25.3491 15.7237 25.3491 16.5101C25.3491 17.2965 25.5067 18.0749 25.8126 18.7993C26.1186 19.5238 26.5667 20.1797 27.1304 20.728C27.6941 21.2764 28.362 21.7062 29.0946 21.9921C29.8273 22.2779 30.6098 22.414 31.3959 22.3923H37.2759V16.5123C37.2747 14.9527 36.655 13.4574 35.5526 12.3542C34.4503 11.251 32.9554 10.6302 31.3959 10.6278Z" />
      <path d="M15.1117 20.0742C14.0915 21.8642 12.2479 22.9114 9.90749 22.9114C6.28729 22.9114 3.81262 20.3562 3.81262 16.5122C3.81262 12.6683 6.28729 10.0728 9.90749 10.0728C12.2479 10.0728 14.0959 11.1425 15.1162 12.9458H19.2153C17.8997 9.09743 14.4092 6.60473 9.90749 6.60473C4.11697 6.60473 0 10.7217 0 16.5122C0 22.3027 4.11697 26.4151 9.90749 26.4151C14.445 26.4151 17.9175 23.945 19.2241 20.0742H15.1117Z" />
      <path d="M76.4539 10.4531V6.98506H70.5157V0.510002H66.7031V19.6356C66.7031 23.8644 68.8377 26.0348 73.1426 26.0348H76.4584V22.531H73.411C71.4689 22.531 70.5157 21.5777 70.5157 19.6356V10.4531H76.4539Z" />
      <path d="M145.967 9.86253V7.04343H144.982V6.59594H147.403V7.04343H146.441V9.86253H145.967Z" />
      <path d="M150.849 9.86257V7.11056L149.752 9.86257H149.466L148.365 7.11056V9.86257H147.891V6.60473H148.638L149.614 9.10175L150.598 6.60473H151.345V9.86257H150.849Z" />
      <path d="M129.159 22.2935L132.162 20.6333C133.146 22.571 134.726 23.2781 136.856 23.2781C139.067 23.2781 140.763 22.3832 140.763 20.6738C140.763 16.6105 129.674 19.6892 129.674 12.3056C129.674 8.91363 132.672 6.42553 136.896 6.42553C140.476 6.42553 142.933 8.08571 144.159 10.3321L141.156 12.0327C140.329 10.3322 138.749 9.7415 136.972 9.7415C135.196 9.7415 133.58 10.6902 133.58 12.2296C133.58 16.1764 144.669 13.2946 144.669 20.5931C144.669 24.267 141.121 26.594 137.013 26.594C133.424 26.594 130.658 25.1753 129.159 22.2935Z" />
    </g>
  </g>
  <defs>
    <clipPath  id="clip0_2_405">
      <rect width="152" height="32" fill="white" transform="translate(0 0.510002)"/>
    </clipPath>
  </defs>
</svg>
