<svg width="24" height="25" viewBox="0 0 24 25" fill="none" xmlns="http://www.w3.org/2000/svg">
<path d="M12.4874 20.2079L7.97385 20.1244C6.51246 20.0953 5.04744 20.1534 3.61471 19.8518C1.43519 19.4013 1.28079 17.192 1.11922 15.3389C0.896594 12.7336 0.982778 10.0811 1.4029 7.49758C1.64007 6.04795 2.57344 5.18295 4.01686 5.08882C8.88948 4.74722 13.7945 4.7877 18.6563 4.94707C19.1698 4.96168 19.6868 5.04153 20.1931 5.13243C22.6923 5.57575 22.7533 8.0793 22.9153 10.1868C23.0768 12.3161 23.0086 14.4563 22.6998 16.5711C22.4521 18.322 21.978 19.7904 19.9776 19.9321C17.4712 20.1175 15.0223 20.2667 12.5089 20.2192C12.509 20.2079 12.4946 20.2079 12.4874 20.2079ZM9.83387 15.775C11.7226 14.6776 13.5754 13.5984 15.4534 12.5084C13.5611 11.4109 11.7118 10.3318 9.83387 9.24174V15.775Z" fill="currentcolor"/>
</svg>