<svg width="32" height="33" viewBox="0 0 32 33" fill="none" xmlns="http://www.w3.org/2000/svg">
<path fill-rule="evenodd" clip-rule="evenodd" d="M6 3.44922C3.79086 3.44922 2 5.24008 2 7.44922V11.4492C2 13.6584 3.79086 15.4492 6 15.4492H10C12.2091 15.4492 14 13.6584 14 11.4492V7.44922C14 5.24008 12.2091 3.44922 10 3.44922H6ZM4 7.44922C4 6.34465 4.89543 5.44922 6 5.44922H10C11.1046 5.44922 12 6.34465 12 7.44922V11.4492C12 12.5538 11.1046 13.4492 10 13.4492H6C4.89543 13.4492 4 12.5538 4 11.4492V7.44922ZM22 17.4492C19.7909 17.4492 18 19.2401 18 21.4492V22.4492H3V24.4492H18V25.4492C18 27.6584 19.7909 29.4492 22 29.4492H26C28.2091 29.4492 30 27.6584 30 25.4492V21.4492C30 19.2401 28.2091 17.4492 26 17.4492H22ZM20 21.4492C20 20.3447 20.8954 19.4492 22 19.4492H26C27.1046 19.4492 28 20.3447 28 21.4492V25.4492C28 26.5538 27.1046 27.4492 26 27.4492H22C20.8954 27.4492 20 26.5538 20 25.4492V21.4492ZM29 10.4492H18V8.44922H29V10.4492Z" fill="white"/>
</svg>
