<svg width="152" height="32" viewBox="0 0 152 32" fill="none" xmlns="http://www.w3.org/2000/svg">
<g clip-path="url(#clip0_3738_20570)">
<path d="M48.1407 6.47518V8.53368C48.9368 7.7333 49.8882 7.10412 50.9362 6.68473C51.9843 6.26534 53.1071 6.0645 54.2356 6.09477C60.0261 6.09477 64.1385 10.1715 64.1385 16.0023C64.1385 21.8331 60.0261 25.9052 54.2356 25.9052C53.1071 25.9354 51.9843 25.7348 50.9362 25.3154C49.8882 24.896 48.9368 24.2669 48.1407 23.4665V32H44.3281V6.4931L48.1407 6.47518ZM48.1407 16.0023C48.1407 19.8462 50.6154 22.4015 54.2356 22.4015C57.8558 22.4015 60.3304 19.8462 60.3304 16.0023C60.3304 12.1583 57.8916 9.56282 54.2356 9.56282C50.5796 9.56282 48.1407 12.1538 48.1407 16.0023Z" fill="currentColor"/>
<path d="M79.8145 0H83.6226V3.80803H79.8145V0ZM79.8145 6.47506H83.6226V25.5248H79.8145V6.47506Z" fill="currentColor"/>
<path d="M86.6924 16.0022C86.6924 10.2117 90.8094 6.09473 96.5999 6.09473C102.39 6.09473 106.503 10.2117 106.503 16.0022C106.503 21.7927 102.39 25.9051 96.5999 25.9051C90.8094 25.9051 86.6924 21.8285 86.6924 16.0022ZM102.695 16.0022C102.695 12.1538 100.256 9.56277 96.5999 9.56277C92.9439 9.56277 90.5005 12.1538 90.5005 16.0022C90.5005 19.8506 92.9797 22.4014 96.5999 22.4014C100.22 22.4014 102.695 19.8506 102.695 16.0022Z" fill="currentColor"/>
<path d="M109.532 6.47527H113.34V8.18919C113.971 7.51015 114.739 6.97258 115.593 6.61161C116.446 6.25065 117.367 6.0744 118.294 6.09486C122.827 6.09486 125.901 9.41093 125.901 14.0961V25.5251H122.089V14.0961C122.089 11.4112 120.375 9.56291 117.748 9.56291C115.005 9.56291 113.327 11.4291 113.327 14.0961V25.5251H109.519L109.532 6.47527Z" fill="currentColor"/>
<path d="M41.3033 25.9098H31.3959C29.4351 25.9106 27.5181 25.3299 25.8874 24.2411C24.2567 23.1523 22.9856 21.6044 22.2348 19.793C21.484 17.9817 21.2874 15.9884 21.6698 14.0653C22.0521 12.1421 22.9961 10.3755 24.3826 8.98905C25.769 7.60257 27.5356 6.65845 29.4588 6.27614C31.3819 5.89383 33.3752 6.09064 35.1865 6.8414C36.9979 7.59217 38.5459 8.86318 39.6347 10.4939C40.7235 12.1246 41.3041 14.0415 41.3033 16.0023V25.9098ZM31.3959 10.1178C30.6098 10.0961 29.8273 10.2323 29.0946 10.5181C28.362 10.804 27.6941 11.2338 27.1304 11.7821C26.5667 12.3305 26.1186 12.9864 25.8126 13.7109C25.5067 14.4353 25.3491 15.2137 25.3491 16.0001C25.3491 16.7865 25.5067 17.5649 25.8126 18.2893C26.1186 19.0138 26.5667 19.6697 27.1304 20.218C27.6941 20.7664 28.362 21.1962 29.0946 21.4821C29.8273 21.7679 30.6098 21.904 31.3959 21.8823H37.2759V16.0023C37.2747 14.4427 36.655 12.9474 35.5526 11.8442C34.4503 10.741 32.9554 10.1202 31.3959 10.1178Z" fill="currentColor"/>
<path d="M15.1117 19.5642C14.0915 21.3542 12.2479 22.4014 9.90749 22.4014C6.28729 22.4014 3.81262 19.8462 3.81262 16.0022C3.81262 12.1583 6.28729 9.56277 9.90749 9.56277C12.2479 9.56277 14.0959 10.6325 15.1162 12.4358H19.2153C17.8997 8.58743 14.4092 6.09473 9.90749 6.09473C4.11697 6.09473 0 10.2117 0 16.0022C0 21.7927 4.11697 25.9051 9.90749 25.9051C14.445 25.9051 17.9175 23.435 19.2241 19.5642H15.1117Z" fill="currentColor"/>
<path d="M76.4539 9.9431V6.47506H70.5157V0H66.7031V19.1256C66.7031 23.3544 68.8377 25.5248 73.1426 25.5248H76.4584V22.021H73.411C71.4689 22.021 70.5157 21.0677 70.5157 19.1256V9.9431H76.4539Z" fill="currentColor"/>
<path d="M145.967 9.35253V6.53343H144.982V6.08594H147.403V6.53343H146.441V9.35253H145.967Z" fill="currentColor"/>
<path d="M150.849 9.35257V6.60056L149.752 9.35257H149.466L148.365 6.60056V9.35257H147.891V6.09473H148.638L149.614 8.59175L150.598 6.09473H151.345V9.35257H150.849Z" fill="currentColor"/>
<path d="M129.159 21.7835L132.162 20.1233C133.146 22.061 134.726 22.7681 136.856 22.7681C139.067 22.7681 140.763 21.8732 140.763 20.1638C140.763 16.1005 129.674 19.1792 129.674 11.7956C129.674 8.40363 132.672 5.91553 136.896 5.91553C140.476 5.91553 142.933 7.57571 144.159 9.8221L141.156 11.5227C140.329 9.82224 138.749 9.2315 136.972 9.2315C135.196 9.2315 133.58 10.1802 133.58 11.7196C133.58 15.6664 144.669 12.7846 144.669 20.0831C144.669 23.757 141.121 26.084 137.013 26.084C133.424 26.084 130.658 24.6653 129.159 21.7835Z" fill="currentColor"/>
</g>
<defs>
<clipPath id="clip0_3738_20570">
<rect width="151.323" height="32" fill="currentColor"/>
</clipPath>
</defs>
</svg>