<svg width="306" height="414" viewBox="0 0 306 414" fill="none" xmlns="http://www.w3.org/2000/svg">
<g clip-path="url(#clip0_3642_56904)">
<rect width="306" height="414" rx="16" fill="#1C1D21"/>
<path d="M42.2303 265.709H41.1413V257.921H46.0033V258.878H42.2303V261.298H45.7613V262.233H42.2303V265.709ZM50.3319 262.332C50.3319 261.943 50.2146 261.657 49.9799 261.474C49.7452 261.283 49.4336 261.188 49.0449 261.188C48.7516 261.188 48.4729 261.247 48.2089 261.364C47.9522 261.474 47.7359 261.617 47.5599 261.793L47.0099 261.133C47.2666 260.891 47.5782 260.7 47.9449 260.561C48.3189 260.422 48.7186 260.352 49.1439 260.352C49.5179 260.352 49.8406 260.407 50.1119 260.517C50.3906 260.62 50.6179 260.763 50.7939 260.946C50.9699 261.129 51.1019 261.346 51.1899 261.595C51.2779 261.844 51.3219 262.112 51.3219 262.398V264.675C51.3219 264.851 51.3256 265.038 51.3329 265.236C51.3476 265.427 51.3696 265.584 51.3989 265.709H50.4639C50.4052 265.46 50.3759 265.21 50.3759 264.961H50.3429C50.1522 265.24 49.9102 265.456 49.6169 265.61C49.3309 265.764 48.9899 265.841 48.5939 265.841C48.3886 265.841 48.1722 265.812 47.9449 265.753C47.7249 265.702 47.5232 265.614 47.3399 265.489C47.1566 265.364 47.0026 265.199 46.8779 264.994C46.7606 264.789 46.7019 264.536 46.7019 264.235C46.7019 263.839 46.8082 263.527 47.0209 263.3C47.2336 263.065 47.5122 262.889 47.8569 262.772C48.2016 262.647 48.5902 262.567 49.0229 262.53C49.4556 262.493 49.8919 262.475 50.3319 262.475V262.332ZM50.0789 263.223C49.8222 263.223 49.5546 263.234 49.2759 263.256C49.0046 263.278 48.7552 263.322 48.5279 263.388C48.3079 263.454 48.1246 263.553 47.9779 263.685C47.8312 263.817 47.7579 263.993 47.7579 264.213C47.7579 264.367 47.7872 264.495 47.8459 264.598C47.9119 264.701 47.9962 264.785 48.0989 264.851C48.2016 264.917 48.3152 264.965 48.4399 264.994C48.5646 265.016 48.6929 265.027 48.8249 265.027C49.3089 265.027 49.6792 264.884 49.9359 264.598C50.1999 264.305 50.3319 263.938 50.3319 263.498V263.223H50.0789ZM57.4818 264.884C57.2838 265.199 57.0125 265.441 56.6678 265.61C56.3305 265.771 55.9748 265.852 55.6008 265.852C55.1975 265.852 54.8345 265.782 54.5118 265.643C54.1891 265.496 53.9141 265.298 53.6868 265.049C53.4595 264.8 53.2835 264.506 53.1588 264.169C53.0341 263.832 52.9718 263.472 52.9718 263.091C52.9718 262.71 53.0341 262.354 53.1588 262.024C53.2835 261.687 53.4595 261.393 53.6868 261.144C53.9215 260.895 54.2001 260.7 54.5228 260.561C54.8455 260.422 55.2011 260.352 55.5898 260.352C56.0151 260.352 56.3855 260.444 56.7008 260.627C57.0161 260.803 57.2655 261.019 57.4488 261.276H57.4708V257.393H58.5048V265.709H57.5038V264.884H57.4818ZM54.0498 263.091C54.0498 263.333 54.0865 263.568 54.1598 263.795C54.2331 264.022 54.3431 264.224 54.4898 264.4C54.6365 264.576 54.8161 264.719 55.0288 264.829C55.2415 264.932 55.4908 264.983 55.7768 264.983C56.0408 264.983 56.2791 264.932 56.4918 264.829C56.7118 264.726 56.8988 264.591 57.0528 264.422C57.2068 264.246 57.3241 264.044 57.4048 263.817C57.4928 263.59 57.5368 263.351 57.5368 263.102C57.5368 262.853 57.4928 262.614 57.4048 262.387C57.3241 262.16 57.2068 261.958 57.0528 261.782C56.8988 261.606 56.7118 261.467 56.4918 261.364C56.2791 261.261 56.0408 261.21 55.7768 261.21C55.4908 261.21 55.2415 261.261 55.0288 261.364C54.8161 261.467 54.6365 261.606 54.4898 261.782C54.3431 261.958 54.2331 262.16 54.1598 262.387C54.0865 262.614 54.0498 262.849 54.0498 263.091ZM64.3982 262.64C64.3909 262.435 64.3542 262.244 64.2882 262.068C64.2296 261.885 64.1379 261.727 64.0132 261.595C63.8959 261.463 63.7456 261.36 63.5622 261.287C63.3862 261.206 63.1772 261.166 62.9352 261.166C62.7152 261.166 62.5062 261.206 62.3082 261.287C62.1176 261.36 61.9489 261.463 61.8022 261.595C61.6629 261.727 61.5456 261.885 61.4502 262.068C61.3622 262.244 61.3109 262.435 61.2962 262.64H64.3982ZM65.4432 263.058C65.4432 263.117 65.4432 263.175 65.4432 263.234C65.4432 263.293 65.4396 263.351 65.4322 263.41H61.2962C61.3036 263.63 61.3512 263.839 61.4392 264.037C61.5346 264.228 61.6592 264.396 61.8132 264.543C61.9672 264.682 62.1432 264.792 62.3412 264.873C62.5466 264.954 62.7629 264.994 62.9902 264.994C63.3422 264.994 63.6466 264.917 63.9032 264.763C64.1599 264.609 64.3616 264.422 64.5082 264.202L65.2342 264.785C64.9556 265.152 64.6256 265.423 64.2442 265.599C63.8702 265.768 63.4522 265.852 62.9902 265.852C62.5942 265.852 62.2276 265.786 61.8902 265.654C61.5529 265.522 61.2632 265.339 61.0212 265.104C60.7792 264.862 60.5886 264.572 60.4492 264.235C60.3099 263.898 60.2402 263.524 60.2402 263.113C60.2402 262.71 60.3062 262.339 60.4382 262.002C60.5776 261.657 60.7682 261.364 61.0102 261.122C61.2522 260.88 61.5382 260.693 61.8682 260.561C62.1982 260.422 62.5539 260.352 62.9352 260.352C63.3166 260.352 63.6612 260.414 63.9692 260.539C64.2846 260.664 64.5486 260.843 64.7612 261.078C64.9812 261.313 65.1499 261.599 65.2672 261.936C65.3846 262.266 65.4432 262.64 65.4432 263.058ZM71.3199 264.884C71.1219 265.199 70.8506 265.441 70.5059 265.61C70.1686 265.771 69.8129 265.852 69.4389 265.852C69.0356 265.852 68.6726 265.782 68.3499 265.643C68.0272 265.496 67.7522 265.298 67.5249 265.049C67.2976 264.8 67.1216 264.506 66.9969 264.169C66.8722 263.832 66.8099 263.472 66.8099 263.091C66.8099 262.71 66.8722 262.354 66.9969 262.024C67.1216 261.687 67.2976 261.393 67.5249 261.144C67.7596 260.895 68.0382 260.7 68.3609 260.561C68.6836 260.422 69.0392 260.352 69.4279 260.352C69.8532 260.352 70.2236 260.444 70.5389 260.627C70.8542 260.803 71.1036 261.019 71.2869 261.276H71.3089V257.393H72.3429V265.709H71.3419V264.884H71.3199ZM67.8879 263.091C67.8879 263.333 67.9246 263.568 67.9979 263.795C68.0712 264.022 68.1812 264.224 68.3279 264.4C68.4746 264.576 68.6542 264.719 68.8669 264.829C69.0796 264.932 69.3289 264.983 69.6149 264.983C69.8789 264.983 70.1172 264.932 70.3299 264.829C70.5499 264.726 70.7369 264.591 70.8909 264.422C71.0449 264.246 71.1622 264.044 71.2429 263.817C71.3309 263.59 71.3749 263.351 71.3749 263.102C71.3749 262.853 71.3309 262.614 71.2429 262.387C71.1622 262.16 71.0449 261.958 70.8909 261.782C70.7369 261.606 70.5499 261.467 70.3299 261.364C70.1172 261.261 69.8789 261.21 69.6149 261.21C69.3289 261.21 69.0796 261.261 68.8669 261.364C68.6542 261.467 68.4746 261.606 68.3279 261.782C68.1812 261.958 68.0712 262.16 67.9979 262.387C67.9246 262.614 67.8879 262.849 67.8879 263.091ZM78.5883 265.709H77.4993V257.921H82.3613V258.878H78.5883V261.298H82.1193V262.233H78.5883V265.709ZM84.8229 265.709H83.7889V260.495H84.8229V265.709ZM84.9989 258.614C84.9989 258.805 84.9292 258.962 84.7899 259.087C84.6579 259.212 84.4966 259.274 84.3059 259.274C84.1152 259.274 83.9539 259.212 83.8219 259.087C83.6899 258.955 83.6239 258.797 83.6239 258.614C83.6239 258.423 83.6899 258.266 83.8219 258.141C83.9539 258.009 84.1152 257.943 84.3059 257.943C84.4966 257.943 84.6579 258.009 84.7899 258.141C84.9292 258.266 84.9989 258.423 84.9989 258.614ZM87.9556 265.709H86.9216V257.393H87.9556V265.709ZM91.044 261.353C91.176 261.074 91.385 260.84 91.671 260.649C91.9643 260.451 92.309 260.352 92.705 260.352C93.057 260.352 93.3723 260.433 93.651 260.594C93.937 260.755 94.1607 261.023 94.322 261.397C94.498 261.06 94.7437 260.803 95.059 260.627C95.3743 260.444 95.719 260.352 96.093 260.352C96.4303 260.352 96.72 260.411 96.962 260.528C97.204 260.638 97.4057 260.788 97.567 260.979C97.7283 261.17 97.8457 261.393 97.919 261.65C97.9997 261.907 98.04 262.182 98.04 262.475V265.709H97.006V262.816C97.006 262.603 96.9877 262.402 96.951 262.211C96.9143 262.02 96.852 261.852 96.764 261.705C96.676 261.558 96.5587 261.441 96.412 261.353C96.2653 261.265 96.0783 261.221 95.851 261.221C95.6163 261.221 95.4147 261.272 95.246 261.375C95.0773 261.47 94.938 261.599 94.828 261.76C94.7253 261.914 94.6483 262.09 94.597 262.288C94.553 262.486 94.531 262.688 94.531 262.893V265.709H93.497V262.607C93.497 262.402 93.4787 262.215 93.442 262.046C93.4053 261.877 93.343 261.734 93.255 261.617C93.167 261.492 93.0533 261.397 92.914 261.331C92.7747 261.258 92.6023 261.221 92.397 261.221C92.0157 261.221 91.6967 261.379 91.44 261.694C91.1907 262.002 91.066 262.416 91.066 262.937V265.709H90.032V261.617C90.032 261.478 90.0283 261.298 90.021 261.078C90.0137 260.858 90.0027 260.664 89.988 260.495H90.967C90.9817 260.627 90.9927 260.777 91 260.946C91.0073 261.107 91.011 261.243 91.011 261.353H91.044Z" fill="#7C7F87"/>
<path d="M45.0133 294.362C44.8593 294.149 44.6503 293.977 44.3863 293.845C44.1223 293.706 43.8253 293.636 43.4953 293.636C43.3193 293.636 43.1396 293.662 42.9563 293.713C42.7803 293.757 42.619 293.834 42.4723 293.944C42.3256 294.047 42.2046 294.179 42.1093 294.34C42.0213 294.494 41.9773 294.681 41.9773 294.901C41.9773 295.114 42.0176 295.293 42.0983 295.44C42.1863 295.579 42.3 295.7 42.4393 295.803C42.586 295.898 42.7546 295.983 42.9453 296.056C43.1433 296.122 43.3523 296.192 43.5723 296.265C43.8363 296.346 44.104 296.437 44.3753 296.54C44.6466 296.643 44.8923 296.778 45.1123 296.947C45.3323 297.116 45.512 297.328 45.6513 297.585C45.7906 297.834 45.8603 298.153 45.8603 298.542C45.8603 298.945 45.7833 299.297 45.6293 299.598C45.4826 299.891 45.2846 300.137 45.0353 300.335C44.786 300.526 44.4963 300.669 44.1663 300.764C43.8436 300.859 43.51 300.907 43.1653 300.907C42.674 300.907 42.1973 300.812 41.7353 300.621C41.2806 300.43 40.903 300.148 40.6023 299.774L41.4493 299.059C41.6326 299.33 41.8783 299.55 42.1863 299.719C42.4943 299.888 42.828 299.972 43.1873 299.972C43.3706 299.972 43.554 299.946 43.7373 299.895C43.9206 299.844 44.0856 299.763 44.2323 299.653C44.3863 299.543 44.511 299.407 44.6063 299.246C44.7016 299.077 44.7493 298.876 44.7493 298.641C44.7493 298.406 44.698 298.212 44.5953 298.058C44.5 297.897 44.368 297.761 44.1993 297.651C44.0306 297.541 43.8326 297.449 43.6053 297.376C43.3853 297.295 43.1506 297.215 42.9013 297.134C42.652 297.061 42.4063 296.973 42.1643 296.87C41.9223 296.76 41.706 296.624 41.5153 296.463C41.3246 296.294 41.1706 296.089 41.0533 295.847C40.936 295.605 40.8773 295.304 40.8773 294.945C40.8773 294.556 40.9543 294.223 41.1083 293.944C41.2696 293.665 41.475 293.434 41.7243 293.251C41.981 293.068 42.267 292.936 42.5823 292.855C42.905 292.767 43.2276 292.723 43.5503 292.723C44.005 292.723 44.4303 292.804 44.8263 292.965C45.2223 293.126 45.5413 293.343 45.7833 293.614L45.0133 294.362ZM48.702 296.287C48.8267 296.03 49.0393 295.81 49.34 295.627C49.6407 295.444 49.978 295.352 50.352 295.352C50.6893 295.352 50.979 295.411 51.221 295.528C51.463 295.638 51.6647 295.788 51.826 295.979C51.9873 296.17 52.1047 296.393 52.178 296.65C52.2587 296.907 52.299 297.182 52.299 297.475V300.709H51.265V297.827C51.265 297.614 51.2467 297.413 51.21 297.222C51.1807 297.031 51.122 296.863 51.034 296.716C50.946 296.569 50.825 296.452 50.671 296.364C50.5243 296.276 50.33 296.232 50.088 296.232C49.6773 296.232 49.34 296.39 49.076 296.705C48.812 297.013 48.68 297.427 48.68 297.948V300.709H47.646V292.393H48.68V296.287H48.702ZM57.5678 297.332C57.5678 296.943 57.4505 296.657 57.2158 296.474C56.9812 296.283 56.6695 296.188 56.2808 296.188C55.9875 296.188 55.7088 296.247 55.4448 296.364C55.1882 296.474 54.9718 296.617 54.7958 296.793L54.2458 296.133C54.5025 295.891 54.8142 295.7 55.1808 295.561C55.5548 295.422 55.9545 295.352 56.3798 295.352C56.7538 295.352 57.0765 295.407 57.3478 295.517C57.6265 295.62 57.8538 295.763 58.0298 295.946C58.2058 296.129 58.3378 296.346 58.4258 296.595C58.5138 296.844 58.5578 297.112 58.5578 297.398V299.675C58.5578 299.851 58.5615 300.038 58.5688 300.236C58.5835 300.427 58.6055 300.584 58.6348 300.709H57.6998C57.6412 300.46 57.6118 300.21 57.6118 299.961H57.5788C57.3882 300.24 57.1462 300.456 56.8528 300.61C56.5668 300.764 56.2258 300.841 55.8298 300.841C55.6245 300.841 55.4082 300.812 55.1808 300.753C54.9608 300.702 54.7592 300.614 54.5758 300.489C54.3925 300.364 54.2385 300.199 54.1138 299.994C53.9965 299.789 53.9378 299.536 53.9378 299.235C53.9378 298.839 54.0442 298.527 54.2568 298.3C54.4695 298.065 54.7482 297.889 55.0928 297.772C55.4375 297.647 55.8262 297.567 56.2588 297.53C56.6915 297.493 57.1278 297.475 57.5678 297.475V297.332ZM57.3148 298.223C57.0582 298.223 56.7905 298.234 56.5118 298.256C56.2405 298.278 55.9912 298.322 55.7638 298.388C55.5438 298.454 55.3605 298.553 55.2138 298.685C55.0672 298.817 54.9938 298.993 54.9938 299.213C54.9938 299.367 55.0232 299.495 55.0818 299.598C55.1478 299.701 55.2322 299.785 55.3348 299.851C55.4375 299.917 55.5512 299.965 55.6758 299.994C55.8005 300.016 55.9288 300.027 56.0608 300.027C56.5448 300.027 56.9152 299.884 57.1718 299.598C57.4358 299.305 57.5678 298.938 57.5678 298.498V298.223H57.3148ZM60.5598 296.617C60.5598 296.478 60.5561 296.298 60.5488 296.078C60.5414 295.858 60.5304 295.664 60.5158 295.495H61.4948C61.5094 295.627 61.5204 295.781 61.5278 295.957C61.5351 296.126 61.5388 296.265 61.5388 296.375H61.5718C61.7184 296.067 61.9311 295.821 62.2098 295.638C62.4958 295.447 62.8148 295.352 63.1668 295.352C63.3281 295.352 63.4638 295.367 63.5738 295.396L63.5298 296.353C63.3831 296.316 63.2254 296.298 63.0568 296.298C62.8074 296.298 62.5911 296.346 62.4078 296.441C62.2244 296.529 62.0704 296.65 61.9458 296.804C61.8284 296.958 61.7404 297.138 61.6818 297.343C61.6231 297.541 61.5938 297.75 61.5938 297.97V300.709H60.5598V296.617ZM65.8541 303.349H64.8201V295.495H65.8321V296.309H65.8651C66.0338 296.03 66.2794 295.803 66.6021 295.627C66.9321 295.444 67.3134 295.352 67.7461 295.352C68.1348 295.352 68.4868 295.422 68.8021 295.561C69.1248 295.7 69.3998 295.895 69.6271 296.144C69.8618 296.393 70.0414 296.687 70.1661 297.024C70.2908 297.354 70.3531 297.71 70.3531 298.091C70.3531 298.472 70.2908 298.832 70.1661 299.169C70.0414 299.506 69.8654 299.8 69.6381 300.049C69.4108 300.298 69.1358 300.496 68.8131 300.643C68.4904 300.782 68.1274 300.852 67.7241 300.852C67.3501 300.852 66.9981 300.771 66.6681 300.61C66.3381 300.449 66.0778 300.221 65.8871 299.928H65.8541V303.349ZM69.2861 298.091C69.2861 297.849 69.2494 297.614 69.1761 297.387C69.1028 297.16 68.9928 296.958 68.8461 296.782C68.6994 296.606 68.5161 296.467 68.2961 296.364C68.0834 296.261 67.8341 296.21 67.5481 296.21C67.2841 296.21 67.0421 296.261 66.8221 296.364C66.6094 296.467 66.4261 296.606 66.2721 296.782C66.1181 296.958 65.9971 297.16 65.9091 297.387C65.8284 297.614 65.7881 297.853 65.7881 298.102C65.7881 298.351 65.8284 298.59 65.9091 298.817C65.9971 299.044 66.1181 299.246 66.2721 299.422C66.4261 299.591 66.6094 299.726 66.8221 299.829C67.0421 299.932 67.2841 299.983 67.5481 299.983C67.8341 299.983 68.0834 299.932 68.2961 299.829C68.5161 299.719 68.6994 299.576 68.8461 299.4C68.9928 299.224 69.1028 299.022 69.1761 298.795C69.2494 298.568 69.2861 298.333 69.2861 298.091ZM75.8838 297.64C75.8764 297.435 75.8398 297.244 75.7738 297.068C75.7151 296.885 75.6234 296.727 75.4988 296.595C75.3814 296.463 75.2311 296.36 75.0478 296.287C74.8718 296.206 74.6628 296.166 74.4208 296.166C74.2008 296.166 73.9918 296.206 73.7938 296.287C73.6031 296.36 73.4344 296.463 73.2878 296.595C73.1484 296.727 73.0311 296.885 72.9358 297.068C72.8478 297.244 72.7964 297.435 72.7818 297.64H75.8838ZM76.9288 298.058C76.9288 298.117 76.9288 298.175 76.9288 298.234C76.9288 298.293 76.9251 298.351 76.9178 298.41H72.7818C72.7891 298.63 72.8368 298.839 72.9248 299.037C73.0201 299.228 73.1448 299.396 73.2988 299.543C73.4528 299.682 73.6288 299.792 73.8268 299.873C74.0321 299.954 74.2484 299.994 74.4758 299.994C74.8278 299.994 75.1321 299.917 75.3888 299.763C75.6454 299.609 75.8471 299.422 75.9938 299.202L76.7198 299.785C76.4411 300.152 76.1111 300.423 75.7298 300.599C75.3558 300.768 74.9378 300.852 74.4758 300.852C74.0798 300.852 73.7131 300.786 73.3758 300.654C73.0384 300.522 72.7488 300.339 72.5068 300.104C72.2648 299.862 72.0741 299.572 71.9348 299.235C71.7954 298.898 71.7258 298.524 71.7258 298.113C71.7258 297.71 71.7918 297.339 71.9238 297.002C72.0631 296.657 72.2538 296.364 72.4958 296.122C72.7378 295.88 73.0238 295.693 73.3538 295.561C73.6838 295.422 74.0394 295.352 74.4208 295.352C74.8021 295.352 75.1468 295.414 75.4548 295.539C75.7701 295.664 76.0341 295.843 76.2468 296.078C76.4668 296.313 76.6354 296.599 76.7528 296.936C76.8701 297.266 76.9288 297.64 76.9288 298.058ZM79.5824 295.495C79.5971 295.627 79.6081 295.777 79.6154 295.946C79.6228 296.107 79.6264 296.243 79.6264 296.353H79.6594C79.7254 296.214 79.8134 296.085 79.9234 295.968C80.0408 295.843 80.1728 295.737 80.3194 295.649C80.4661 295.554 80.6274 295.48 80.8034 295.429C80.9794 295.378 81.1628 295.352 81.3534 295.352C81.6908 295.352 81.9804 295.411 82.2224 295.528C82.4644 295.638 82.6661 295.788 82.8274 295.979C82.9888 296.17 83.1061 296.393 83.1794 296.65C83.2601 296.907 83.3004 297.182 83.3004 297.475V300.709H82.2664V297.816C82.2664 297.603 82.2481 297.402 82.2114 297.211C82.1821 297.02 82.1234 296.852 82.0354 296.705C81.9474 296.558 81.8264 296.441 81.6724 296.353C81.5184 296.265 81.3204 296.221 81.0784 296.221C80.6678 296.221 80.3304 296.379 80.0664 296.694C79.8098 297.002 79.6814 297.416 79.6814 297.937V300.709H78.6474V296.617C78.6474 296.478 78.6438 296.298 78.6364 296.078C78.6291 295.858 78.6181 295.664 78.6034 295.495H79.5824Z" fill="#7C7F87"/>
<path d="M43.7263 334.301H43.7593L46.1023 327.921H47.2793L44.2213 335.709H43.2093L40.1733 327.921H41.3833L43.7263 334.301ZM49.2706 335.709H48.2366V330.495H49.2706V335.709ZM49.4466 328.614C49.4466 328.805 49.3769 328.962 49.2376 329.087C49.1056 329.212 48.9442 329.274 48.7536 329.274C48.5629 329.274 48.4016 329.212 48.2696 329.087C48.1376 328.955 48.0716 328.797 48.0716 328.614C48.0716 328.423 48.1376 328.266 48.2696 328.141C48.4016 328.009 48.5629 327.943 48.7536 327.943C48.9442 327.943 49.1056 328.009 49.2376 328.141C49.3769 328.266 49.4466 328.423 49.4466 328.614ZM52.3703 334.884V335.709H51.3693V327.393H52.4033V331.276H52.4363C52.6123 331.019 52.8579 330.803 53.1733 330.627C53.4886 330.444 53.8626 330.352 54.2953 330.352C54.6839 330.352 55.0359 330.422 55.3513 330.561C55.6739 330.7 55.9489 330.895 56.1763 331.144C56.4109 331.393 56.5906 331.687 56.7153 332.024C56.8399 332.354 56.9023 332.71 56.9023 333.091C56.9023 333.472 56.8399 333.832 56.7153 334.169C56.5906 334.506 56.4146 334.8 56.1873 335.049C55.9599 335.298 55.6849 335.496 55.3623 335.643C55.0396 335.782 54.6766 335.852 54.2733 335.852C53.8993 335.852 53.5436 335.771 53.2063 335.61C52.8689 335.441 52.5976 335.199 52.3923 334.884H52.3703ZM55.8353 333.091C55.8353 332.849 55.7986 332.614 55.7253 332.387C55.6519 332.16 55.5419 331.958 55.3953 331.782C55.2486 331.606 55.0653 331.467 54.8453 331.364C54.6326 331.261 54.3833 331.21 54.0973 331.21C53.8333 331.21 53.5913 331.261 53.3713 331.364C53.1586 331.467 52.9753 331.606 52.8213 331.782C52.6673 331.958 52.5463 332.16 52.4583 332.387C52.3776 332.614 52.3373 332.853 52.3373 333.102C52.3373 333.351 52.3776 333.59 52.4583 333.817C52.5463 334.044 52.6673 334.246 52.8213 334.422C52.9753 334.591 53.1586 334.726 53.3713 334.829C53.5913 334.932 53.8333 334.983 54.0973 334.983C54.3833 334.983 54.6326 334.932 54.8453 334.829C55.0653 334.719 55.2486 334.576 55.3953 334.4C55.5419 334.224 55.6519 334.022 55.7253 333.795C55.7986 333.568 55.8353 333.333 55.8353 333.091ZM58.6154 331.617C58.6154 331.478 58.6117 331.298 58.6044 331.078C58.5971 330.858 58.5861 330.664 58.5714 330.495H59.5504C59.5651 330.627 59.5761 330.781 59.5834 330.957C59.5907 331.126 59.5944 331.265 59.5944 331.375H59.6274C59.7741 331.067 59.9867 330.821 60.2654 330.638C60.5514 330.447 60.8704 330.352 61.2224 330.352C61.3837 330.352 61.5194 330.367 61.6294 330.396L61.5854 331.353C61.4387 331.316 61.2811 331.298 61.1124 331.298C60.8631 331.298 60.6467 331.346 60.4634 331.441C60.2801 331.529 60.1261 331.65 60.0014 331.804C59.8841 331.958 59.7961 332.138 59.7374 332.343C59.6787 332.541 59.6494 332.75 59.6494 332.97V335.709H58.6154V331.617ZM65.9811 332.332C65.9811 331.943 65.8638 331.657 65.6291 331.474C65.3945 331.283 65.0828 331.188 64.6941 331.188C64.4008 331.188 64.1221 331.247 63.8581 331.364C63.6015 331.474 63.3851 331.617 63.2091 331.793L62.6591 331.133C62.9158 330.891 63.2275 330.7 63.5941 330.561C63.9681 330.422 64.3678 330.352 64.7931 330.352C65.1671 330.352 65.4898 330.407 65.7611 330.517C66.0398 330.62 66.2671 330.763 66.4431 330.946C66.6191 331.129 66.7511 331.346 66.8391 331.595C66.9271 331.844 66.9711 332.112 66.9711 332.398V334.675C66.9711 334.851 66.9748 335.038 66.9821 335.236C66.9968 335.427 67.0188 335.584 67.0481 335.709H66.1131C66.0545 335.46 66.0251 335.21 66.0251 334.961H65.9921C65.8015 335.24 65.5595 335.456 65.2661 335.61C64.9801 335.764 64.6391 335.841 64.2431 335.841C64.0378 335.841 63.8215 335.812 63.5941 335.753C63.3741 335.702 63.1725 335.614 62.9891 335.489C62.8058 335.364 62.6518 335.199 62.5271 334.994C62.4098 334.789 62.3511 334.536 62.3511 334.235C62.3511 333.839 62.4575 333.527 62.6701 333.3C62.8828 333.065 63.1615 332.889 63.5061 332.772C63.8508 332.647 64.2395 332.567 64.6721 332.53C65.1048 332.493 65.5411 332.475 65.9811 332.475V332.332ZM65.7281 333.223C65.4715 333.223 65.2038 333.234 64.9251 333.256C64.6538 333.278 64.4045 333.322 64.1771 333.388C63.9571 333.454 63.7738 333.553 63.6271 333.685C63.4805 333.817 63.4071 333.993 63.4071 334.213C63.4071 334.367 63.4365 334.495 63.4951 334.598C63.5611 334.701 63.6455 334.785 63.7481 334.851C63.8508 334.917 63.9645 334.965 64.0891 334.994C64.2138 335.016 64.3421 335.027 64.4741 335.027C64.9581 335.027 65.3285 334.884 65.5851 334.598C65.8491 334.305 65.9811 333.938 65.9811 333.498V333.223H65.7281ZM69.908 330.495C69.9227 330.627 69.9337 330.777 69.941 330.946C69.9484 331.107 69.952 331.243 69.952 331.353H69.985C70.051 331.214 70.139 331.085 70.249 330.968C70.3664 330.843 70.4984 330.737 70.645 330.649C70.7917 330.554 70.953 330.48 71.129 330.429C71.305 330.378 71.4884 330.352 71.679 330.352C72.0164 330.352 72.306 330.411 72.548 330.528C72.79 330.638 72.9917 330.788 73.153 330.979C73.3144 331.17 73.4317 331.393 73.505 331.65C73.5857 331.907 73.626 332.182 73.626 332.475V335.709H72.592V332.816C72.592 332.603 72.5737 332.402 72.537 332.211C72.5077 332.02 72.449 331.852 72.361 331.705C72.273 331.558 72.152 331.441 71.998 331.353C71.844 331.265 71.646 331.221 71.404 331.221C70.9934 331.221 70.656 331.379 70.392 331.694C70.1354 332.002 70.007 332.416 70.007 332.937V335.709H68.973V331.617C68.973 331.478 68.9694 331.298 68.962 331.078C68.9547 330.858 68.9437 330.664 68.929 330.495H69.908ZM79.3024 331.815C79.1924 331.646 79.0274 331.507 78.8074 331.397C78.5874 331.28 78.3527 331.221 78.1034 331.221C77.832 331.221 77.59 331.272 77.3774 331.375C77.172 331.478 76.996 331.617 76.8494 331.793C76.7027 331.962 76.589 332.16 76.5084 332.387C76.435 332.614 76.3984 332.853 76.3984 333.102C76.3984 333.351 76.435 333.59 76.5084 333.817C76.589 334.044 76.7027 334.246 76.8494 334.422C76.996 334.591 77.1757 334.726 77.3884 334.829C77.601 334.932 77.843 334.983 78.1144 334.983C78.3784 334.983 78.6167 334.932 78.8294 334.829C79.0494 334.726 79.229 334.587 79.3684 334.411L80.0614 335.038C79.8414 335.295 79.5664 335.496 79.2364 335.643C78.9064 335.782 78.5324 335.852 78.1144 335.852C77.711 335.852 77.337 335.786 76.9924 335.654C76.655 335.522 76.3617 335.339 76.1124 335.104C75.863 334.862 75.665 334.572 75.5184 334.235C75.379 333.898 75.3094 333.52 75.3094 333.102C75.3094 332.691 75.379 332.317 75.5184 331.98C75.6577 331.643 75.852 331.353 76.1014 331.111C76.3507 330.869 76.644 330.682 76.9814 330.55C77.326 330.418 77.6964 330.352 78.0924 330.352C78.459 330.352 78.822 330.425 79.1814 330.572C79.548 330.719 79.8377 330.931 80.0504 331.21L79.3024 331.815ZM85.1779 332.64C85.1706 332.435 85.1339 332.244 85.0679 332.068C85.0093 331.885 84.9176 331.727 84.7929 331.595C84.6756 331.463 84.5253 331.36 84.3419 331.287C84.1659 331.206 83.9569 331.166 83.7149 331.166C83.4949 331.166 83.2859 331.206 83.0879 331.287C82.8973 331.36 82.7286 331.463 82.5819 331.595C82.4426 331.727 82.3253 331.885 82.2299 332.068C82.1419 332.244 82.0906 332.435 82.0759 332.64H85.1779ZM86.2229 333.058C86.2229 333.117 86.2229 333.175 86.2229 333.234C86.2229 333.293 86.2193 333.351 86.2119 333.41H82.0759C82.0833 333.63 82.1309 333.839 82.2189 334.037C82.3143 334.228 82.4389 334.396 82.5929 334.543C82.7469 334.682 82.9229 334.792 83.1209 334.873C83.3263 334.954 83.5426 334.994 83.7699 334.994C84.1219 334.994 84.4263 334.917 84.6829 334.763C84.9396 334.609 85.1413 334.422 85.2879 334.202L86.0139 334.785C85.7353 335.152 85.4053 335.423 85.0239 335.599C84.6499 335.768 84.2319 335.852 83.7699 335.852C83.3739 335.852 83.0073 335.786 82.6699 335.654C82.3326 335.522 82.0429 335.339 81.8009 335.104C81.5589 334.862 81.3683 334.572 81.2289 334.235C81.0896 333.898 81.0199 333.524 81.0199 333.113C81.0199 332.71 81.0859 332.339 81.2179 332.002C81.3573 331.657 81.5479 331.364 81.7899 331.122C82.0319 330.88 82.3179 330.693 82.6479 330.561C82.9779 330.422 83.3336 330.352 83.7149 330.352C84.0963 330.352 84.4409 330.414 84.7489 330.539C85.0643 330.664 85.3283 330.843 85.5409 331.078C85.7609 331.313 85.9296 331.599 86.0469 331.936C86.1643 332.266 86.2229 332.64 86.2229 333.058Z" fill="#7C7F87"/>
<path d="M45.0133 364.362C44.8593 364.149 44.6503 363.977 44.3863 363.845C44.1223 363.706 43.8253 363.636 43.4953 363.636C43.3193 363.636 43.1396 363.662 42.9563 363.713C42.7803 363.757 42.619 363.834 42.4723 363.944C42.3256 364.047 42.2046 364.179 42.1093 364.34C42.0213 364.494 41.9773 364.681 41.9773 364.901C41.9773 365.114 42.0176 365.293 42.0983 365.44C42.1863 365.579 42.3 365.7 42.4393 365.803C42.586 365.898 42.7546 365.983 42.9453 366.056C43.1433 366.122 43.3523 366.192 43.5723 366.265C43.8363 366.346 44.104 366.437 44.3753 366.54C44.6466 366.643 44.8923 366.778 45.1123 366.947C45.3323 367.116 45.512 367.328 45.6513 367.585C45.7906 367.834 45.8603 368.153 45.8603 368.542C45.8603 368.945 45.7833 369.297 45.6293 369.598C45.4826 369.891 45.2846 370.137 45.0353 370.335C44.786 370.526 44.4963 370.669 44.1663 370.764C43.8436 370.859 43.51 370.907 43.1653 370.907C42.674 370.907 42.1973 370.812 41.7353 370.621C41.2806 370.43 40.903 370.148 40.6023 369.774L41.4493 369.059C41.6326 369.33 41.8783 369.55 42.1863 369.719C42.4943 369.888 42.828 369.972 43.1873 369.972C43.3706 369.972 43.554 369.946 43.7373 369.895C43.9206 369.844 44.0856 369.763 44.2323 369.653C44.3863 369.543 44.511 369.407 44.6063 369.246C44.7016 369.077 44.7493 368.876 44.7493 368.641C44.7493 368.406 44.698 368.212 44.5953 368.058C44.5 367.897 44.368 367.761 44.1993 367.651C44.0306 367.541 43.8326 367.449 43.6053 367.376C43.3853 367.295 43.1506 367.215 42.9013 367.134C42.652 367.061 42.4063 366.973 42.1643 366.87C41.9223 366.76 41.706 366.624 41.5153 366.463C41.3246 366.294 41.1706 366.089 41.0533 365.847C40.936 365.605 40.8773 365.304 40.8773 364.945C40.8773 364.556 40.9543 364.223 41.1083 363.944C41.2696 363.665 41.475 363.434 41.7243 363.251C41.981 363.068 42.267 362.936 42.5823 362.855C42.905 362.767 43.2276 362.723 43.5503 362.723C44.005 362.723 44.4303 362.804 44.8263 362.965C45.2223 363.126 45.5413 363.343 45.7833 363.614L45.0133 364.362ZM50.869 367.332C50.869 366.943 50.7517 366.657 50.517 366.474C50.2823 366.283 49.9707 366.188 49.582 366.188C49.2887 366.188 49.01 366.247 48.746 366.364C48.4893 366.474 48.273 366.617 48.097 366.793L47.547 366.133C47.8037 365.891 48.1153 365.7 48.482 365.561C48.856 365.422 49.2557 365.352 49.681 365.352C50.055 365.352 50.3777 365.407 50.649 365.517C50.9277 365.62 51.155 365.763 51.331 365.946C51.507 366.129 51.639 366.346 51.727 366.595C51.815 366.844 51.859 367.112 51.859 367.398V369.675C51.859 369.851 51.8627 370.038 51.87 370.236C51.8847 370.427 51.9067 370.584 51.936 370.709H51.001C50.9423 370.46 50.913 370.21 50.913 369.961H50.88C50.6893 370.24 50.4473 370.456 50.154 370.61C49.868 370.764 49.527 370.841 49.131 370.841C48.9257 370.841 48.7093 370.812 48.482 370.753C48.262 370.702 48.0603 370.614 47.877 370.489C47.6937 370.364 47.5397 370.199 47.415 369.994C47.2977 369.789 47.239 369.536 47.239 369.235C47.239 368.839 47.3453 368.527 47.558 368.3C47.7707 368.065 48.0493 367.889 48.394 367.772C48.7387 367.647 49.1273 367.567 49.56 367.53C49.9927 367.493 50.429 367.475 50.869 367.475V367.332ZM50.616 368.223C50.3593 368.223 50.0917 368.234 49.813 368.256C49.5417 368.278 49.2923 368.322 49.065 368.388C48.845 368.454 48.6617 368.553 48.515 368.685C48.3683 368.817 48.295 368.993 48.295 369.213C48.295 369.367 48.3243 369.495 48.383 369.598C48.449 369.701 48.5333 369.785 48.636 369.851C48.7387 369.917 48.8523 369.965 48.977 369.994C49.1017 370.016 49.23 370.027 49.362 370.027C49.846 370.027 50.2163 369.884 50.473 369.598C50.737 369.305 50.869 368.938 50.869 368.498V368.223H50.616ZM56.3055 366.342H54.9195V369.059C54.9195 369.374 54.9782 369.602 55.0955 369.741C55.2128 369.873 55.3998 369.939 55.6565 369.939C55.7518 369.939 55.8545 369.928 55.9645 369.906C56.0745 369.884 56.1735 369.851 56.2615 369.807L56.2945 370.654C56.1698 370.698 56.0305 370.731 55.8765 370.753C55.7298 370.782 55.5758 370.797 55.4145 370.797C54.9232 370.797 54.5455 370.661 54.2815 370.39C54.0248 370.119 53.8965 369.712 53.8965 369.169V366.342H52.8955V365.495H53.8965V363.999H54.9195V365.495H56.3055V366.342ZM61.3226 370.709C61.308 370.577 61.297 370.43 61.2896 370.269C61.2823 370.1 61.2786 369.961 61.2786 369.851H61.2566C61.1246 370.13 60.901 370.368 60.5856 370.566C60.2776 370.757 59.933 370.852 59.5516 370.852C59.2143 370.852 58.921 370.797 58.6716 370.687C58.4296 370.577 58.228 370.427 58.0666 370.236C57.9126 370.038 57.7953 369.811 57.7146 369.554C57.6413 369.297 57.6046 369.022 57.6046 368.729V365.495H58.6386V368.377C58.6386 368.59 58.6533 368.795 58.6826 368.993C58.7193 369.184 58.7816 369.352 58.8696 369.499C58.9576 369.646 59.0786 369.763 59.2326 369.851C59.3866 369.939 59.5846 369.983 59.8266 369.983C60.2446 369.983 60.582 369.829 60.8386 369.521C61.0953 369.206 61.2236 368.788 61.2236 368.267V365.495H62.2576V369.587C62.2576 369.726 62.2613 369.906 62.2686 370.126C62.276 370.346 62.287 370.54 62.3016 370.709H61.3226ZM64.326 366.617C64.326 366.478 64.3223 366.298 64.315 366.078C64.3076 365.858 64.2966 365.664 64.282 365.495H65.261C65.2756 365.627 65.2866 365.781 65.294 365.957C65.3013 366.126 65.305 366.265 65.305 366.375H65.338C65.4846 366.067 65.6973 365.821 65.976 365.638C66.262 365.447 66.581 365.352 66.933 365.352C67.0943 365.352 67.23 365.367 67.34 365.396L67.296 366.353C67.1493 366.316 66.9916 366.298 66.823 366.298C66.5736 366.298 66.3573 366.346 66.174 366.441C65.9906 366.529 65.8366 366.65 65.712 366.804C65.5946 366.958 65.5066 367.138 65.448 367.343C65.3893 367.541 65.36 367.75 65.36 367.97V370.709H64.326V366.617ZM71.6917 367.332C71.6917 366.943 71.5743 366.657 71.3397 366.474C71.105 366.283 70.7933 366.188 70.4047 366.188C70.1113 366.188 69.8327 366.247 69.5687 366.364C69.312 366.474 69.0957 366.617 68.9197 366.793L68.3697 366.133C68.6263 365.891 68.938 365.7 69.3047 365.561C69.6787 365.422 70.0783 365.352 70.5037 365.352C70.8777 365.352 71.2003 365.407 71.4717 365.517C71.7503 365.62 71.9777 365.763 72.1537 365.946C72.3297 366.129 72.4617 366.346 72.5497 366.595C72.6377 366.844 72.6817 367.112 72.6817 367.398V369.675C72.6817 369.851 72.6853 370.038 72.6927 370.236C72.7073 370.427 72.7293 370.584 72.7587 370.709H71.8237C71.765 370.46 71.7357 370.21 71.7357 369.961H71.7027C71.512 370.24 71.27 370.456 70.9767 370.61C70.6907 370.764 70.3497 370.841 69.9537 370.841C69.7483 370.841 69.532 370.812 69.3047 370.753C69.0847 370.702 68.883 370.614 68.6997 370.489C68.5163 370.364 68.3623 370.199 68.2377 369.994C68.1203 369.789 68.0617 369.536 68.0617 369.235C68.0617 368.839 68.168 368.527 68.3807 368.3C68.5933 368.065 68.872 367.889 69.2167 367.772C69.5613 367.647 69.95 367.567 70.3827 367.53C70.8153 367.493 71.2517 367.475 71.6917 367.475V367.332ZM71.4387 368.223C71.182 368.223 70.9143 368.234 70.6357 368.256C70.3643 368.278 70.115 368.322 69.8877 368.388C69.6677 368.454 69.4843 368.553 69.3377 368.685C69.191 368.817 69.1177 368.993 69.1177 369.213C69.1177 369.367 69.147 369.495 69.2057 369.598C69.2717 369.701 69.356 369.785 69.4587 369.851C69.5613 369.917 69.675 369.965 69.7997 369.994C69.9243 370.016 70.0527 370.027 70.1847 370.027C70.6687 370.027 71.039 369.884 71.2957 369.598C71.5597 369.305 71.6917 368.938 71.6917 368.498V368.223H71.4387ZM77.1282 366.342H75.7422V369.059C75.7422 369.374 75.8008 369.602 75.9182 369.741C76.0355 369.873 76.2225 369.939 76.4792 369.939C76.5745 369.939 76.6772 369.928 76.7872 369.906C76.8972 369.884 76.9962 369.851 77.0842 369.807L77.1172 370.654C76.9925 370.698 76.8532 370.731 76.6992 370.753C76.5525 370.782 76.3985 370.797 76.2372 370.797C75.7458 370.797 75.3682 370.661 75.1042 370.39C74.8475 370.119 74.7192 369.712 74.7192 369.169V366.342H73.7182V365.495H74.7192V363.999H75.7422V365.495H77.1282V366.342ZM79.5163 370.709H78.4823V365.495H79.5163V370.709ZM79.6923 363.614C79.6923 363.805 79.6226 363.962 79.4833 364.087C79.3513 364.212 79.1899 364.274 78.9993 364.274C78.8086 364.274 78.6473 364.212 78.5153 364.087C78.3833 363.955 78.3173 363.797 78.3173 363.614C78.3173 363.423 78.3833 363.266 78.5153 363.141C78.6473 363.009 78.8086 362.943 78.9993 362.943C79.1899 362.943 79.3513 363.009 79.4833 363.141C79.6226 363.266 79.6923 363.423 79.6923 363.614ZM86.873 368.091C86.873 368.494 86.7996 368.865 86.653 369.202C86.5136 369.539 86.3156 369.833 86.059 370.082C85.8096 370.324 85.5126 370.515 85.168 370.654C84.8233 370.786 84.453 370.852 84.057 370.852C83.661 370.852 83.2906 370.786 82.946 370.654C82.6013 370.515 82.3043 370.324 82.055 370.082C81.8056 369.833 81.6076 369.539 81.461 369.202C81.3216 368.865 81.252 368.494 81.252 368.091C81.252 367.688 81.3216 367.321 81.461 366.991C81.6076 366.654 81.8056 366.364 82.055 366.122C82.3043 365.88 82.6013 365.693 82.946 365.561C83.2906 365.422 83.661 365.352 84.057 365.352C84.453 365.352 84.8233 365.422 85.168 365.561C85.5126 365.693 85.8096 365.88 86.059 366.122C86.3156 366.364 86.5136 366.654 86.653 366.991C86.7996 367.321 86.873 367.688 86.873 368.091ZM85.795 368.091C85.795 367.842 85.7546 367.603 85.674 367.376C85.6006 367.149 85.4906 366.951 85.344 366.782C85.1973 366.606 85.014 366.467 84.794 366.364C84.5813 366.261 84.3356 366.21 84.057 366.21C83.7783 366.21 83.529 366.261 83.309 366.364C83.0963 366.467 82.9166 366.606 82.77 366.782C82.6233 366.951 82.5096 367.149 82.429 367.376C82.3556 367.603 82.319 367.842 82.319 368.091C82.319 368.34 82.3556 368.579 82.429 368.806C82.5096 369.033 82.6233 369.235 82.77 369.411C82.9166 369.587 83.0963 369.726 83.309 369.829C83.529 369.932 83.7783 369.983 84.057 369.983C84.3356 369.983 84.5813 369.932 84.794 369.829C85.014 369.726 85.1973 369.587 85.344 369.411C85.4906 369.235 85.6006 369.033 85.674 368.806C85.7546 368.579 85.795 368.34 85.795 368.091ZM89.5168 365.495C89.5315 365.627 89.5425 365.777 89.5498 365.946C89.5572 366.107 89.5608 366.243 89.5608 366.353H89.5938C89.6598 366.214 89.7478 366.085 89.8578 365.968C89.9752 365.843 90.1072 365.737 90.2538 365.649C90.4005 365.554 90.5618 365.48 90.7378 365.429C90.9138 365.378 91.0972 365.352 91.2878 365.352C91.6252 365.352 91.9148 365.411 92.1568 365.528C92.3988 365.638 92.6005 365.788 92.7618 365.979C92.9232 366.17 93.0405 366.393 93.1138 366.65C93.1945 366.907 93.2348 367.182 93.2348 367.475V370.709H92.2008V367.816C92.2008 367.603 92.1825 367.402 92.1458 367.211C92.1165 367.02 92.0578 366.852 91.9698 366.705C91.8818 366.558 91.7608 366.441 91.6068 366.353C91.4528 366.265 91.2548 366.221 91.0128 366.221C90.6022 366.221 90.2648 366.379 90.0008 366.694C89.7442 367.002 89.6158 367.416 89.6158 367.937V370.709H88.5818V366.617C88.5818 366.478 88.5782 366.298 88.5708 366.078C88.5635 365.858 88.5525 365.664 88.5378 365.495H89.5168Z" fill="#7C7F87"/>
<path d="M252.083 257.723C252.545 257.723 252.941 257.829 253.271 258.042C253.608 258.255 253.883 258.548 254.096 258.922C254.316 259.289 254.477 259.721 254.58 260.22C254.682 260.719 254.734 261.25 254.734 261.815C254.734 262.387 254.682 262.922 254.58 263.421C254.477 263.912 254.316 264.345 254.096 264.719C253.883 265.086 253.608 265.375 253.271 265.588C252.941 265.801 252.545 265.907 252.083 265.907C251.621 265.907 251.221 265.801 250.884 265.588C250.546 265.375 250.268 265.086 250.048 264.719C249.835 264.345 249.677 263.912 249.575 263.421C249.472 262.922 249.421 262.387 249.421 261.815C249.421 261.25 249.472 260.719 249.575 260.22C249.677 259.721 249.835 259.289 250.048 258.922C250.268 258.548 250.546 258.255 250.884 258.042C251.221 257.829 251.621 257.723 252.083 257.723ZM252.083 258.614C251.76 258.614 251.496 258.72 251.291 258.933C251.085 259.138 250.924 259.402 250.807 259.725C250.697 260.04 250.62 260.385 250.576 260.759C250.532 261.133 250.51 261.485 250.51 261.815C250.51 262.145 250.532 262.497 250.576 262.871C250.62 263.245 250.697 263.59 250.807 263.905C250.924 264.22 251.085 264.484 251.291 264.697C251.496 264.902 251.76 265.005 252.083 265.005C252.398 265.005 252.655 264.902 252.853 264.697C253.058 264.484 253.219 264.22 253.337 263.905C253.454 263.59 253.535 263.245 253.579 262.871C253.623 262.497 253.645 262.145 253.645 261.815C253.645 261.485 253.623 261.133 253.579 260.759C253.535 260.385 253.454 260.04 253.337 259.725C253.219 259.402 253.058 259.138 252.853 258.933C252.655 258.72 252.398 258.614 252.083 258.614ZM257.789 265.049C257.789 265.24 257.719 265.408 257.58 265.555C257.44 265.702 257.264 265.775 257.052 265.775C256.846 265.775 256.67 265.705 256.524 265.566C256.384 265.419 256.315 265.251 256.315 265.06C256.315 264.862 256.384 264.693 256.524 264.554C256.663 264.407 256.839 264.334 257.052 264.334C257.264 264.334 257.44 264.404 257.58 264.543C257.719 264.682 257.789 264.851 257.789 265.049ZM262.032 257.723C262.494 257.723 262.89 257.829 263.22 258.042C263.557 258.255 263.832 258.548 264.045 258.922C264.265 259.289 264.426 259.721 264.529 260.22C264.632 260.719 264.683 261.25 264.683 261.815C264.683 262.387 264.632 262.922 264.529 263.421C264.426 263.912 264.265 264.345 264.045 264.719C263.832 265.086 263.557 265.375 263.22 265.588C262.89 265.801 262.494 265.907 262.032 265.907C261.57 265.907 261.17 265.801 260.833 265.588C260.496 265.375 260.217 265.086 259.997 264.719C259.784 264.345 259.627 263.912 259.524 263.421C259.421 262.922 259.37 262.387 259.37 261.815C259.37 261.25 259.421 260.719 259.524 260.22C259.627 259.721 259.784 259.289 259.997 258.922C260.217 258.548 260.496 258.255 260.833 258.042C261.17 257.829 261.57 257.723 262.032 257.723ZM262.032 258.614C261.709 258.614 261.445 258.72 261.24 258.933C261.035 259.138 260.873 259.402 260.756 259.725C260.646 260.04 260.569 260.385 260.525 260.759C260.481 261.133 260.459 261.485 260.459 261.815C260.459 262.145 260.481 262.497 260.525 262.871C260.569 263.245 260.646 263.59 260.756 263.905C260.873 264.22 261.035 264.484 261.24 264.697C261.445 264.902 261.709 265.005 262.032 265.005C262.347 265.005 262.604 264.902 262.802 264.697C263.007 264.484 263.169 264.22 263.286 263.905C263.403 263.59 263.484 263.245 263.528 262.871C263.572 262.497 263.594 262.145 263.594 261.815C263.594 261.485 263.572 261.133 263.528 260.759C263.484 260.385 263.403 260.04 263.286 259.725C263.169 259.402 263.007 259.138 262.802 258.933C262.604 258.72 262.347 258.614 262.032 258.614Z" fill="#A652FA"/>
<path d="M253.766 298.047H254.888V298.96H253.766V300.709H252.732V298.96H249.146V297.992L252.457 292.921H253.766V298.047ZM252.732 294.142H252.71L250.246 298.047H252.732V294.142ZM257.789 300.049C257.789 300.24 257.719 300.408 257.58 300.555C257.44 300.702 257.264 300.775 257.052 300.775C256.846 300.775 256.67 300.705 256.524 300.566C256.384 300.419 256.315 300.251 256.315 300.06C256.315 299.862 256.384 299.693 256.524 299.554C256.663 299.407 256.839 299.334 257.052 299.334C257.264 299.334 257.44 299.404 257.58 299.543C257.719 299.682 257.789 299.851 257.789 300.049ZM263.715 298.047H264.837V298.96H263.715V300.709H262.681V298.96H259.095V297.992L262.406 292.921H263.715V298.047ZM262.681 294.142H262.659L260.195 298.047H262.681V294.142Z" fill="#A652FA"/>
<path d="M251.148 331.199H251.489C251.709 331.199 251.921 331.181 252.127 331.144C252.339 331.1 252.526 331.03 252.688 330.935C252.849 330.832 252.977 330.697 253.073 330.528C253.175 330.359 253.227 330.15 253.227 329.901C253.227 329.703 253.19 329.527 253.117 329.373C253.043 329.212 252.941 329.076 252.809 328.966C252.684 328.856 252.537 328.772 252.369 328.713C252.207 328.647 252.035 328.614 251.852 328.614C251.522 328.614 251.239 328.698 251.005 328.867C250.777 329.036 250.605 329.27 250.488 329.571L249.52 329.23C249.71 328.761 250.015 328.394 250.433 328.13C250.858 327.859 251.346 327.723 251.896 327.723C252.218 327.723 252.523 327.771 252.809 327.866C253.102 327.954 253.359 328.086 253.579 328.262C253.799 328.438 253.971 328.658 254.096 328.922C254.228 329.186 254.294 329.49 254.294 329.835C254.294 330.055 254.257 330.26 254.184 330.451C254.118 330.642 254.022 330.814 253.898 330.968C253.78 331.122 253.637 331.254 253.469 331.364C253.3 331.474 253.117 331.555 252.919 331.606V331.628C253.146 331.672 253.355 331.749 253.546 331.859C253.744 331.969 253.912 332.108 254.052 332.277C254.191 332.438 254.301 332.625 254.382 332.838C254.462 333.051 254.503 333.282 254.503 333.531C254.503 333.92 254.429 334.264 254.283 334.565C254.136 334.858 253.942 335.104 253.7 335.302C253.458 335.5 253.179 335.65 252.864 335.753C252.548 335.856 252.226 335.907 251.896 335.907C251.28 335.907 250.737 335.768 250.268 335.489C249.798 335.21 249.457 334.778 249.245 334.191L250.235 333.861C250.352 334.198 250.55 334.473 250.829 334.686C251.115 334.899 251.463 335.005 251.874 335.005C252.072 335.005 252.262 334.976 252.446 334.917C252.636 334.851 252.805 334.756 252.952 334.631C253.098 334.506 253.216 334.352 253.304 334.169C253.392 333.986 253.436 333.769 253.436 333.52C253.436 333.249 253.377 333.021 253.26 332.838C253.142 332.655 252.988 332.508 252.798 332.398C252.614 332.281 252.405 332.2 252.171 332.156C251.936 332.105 251.705 332.079 251.478 332.079H251.148V331.199ZM257.789 335.049C257.789 335.24 257.719 335.408 257.58 335.555C257.44 335.702 257.264 335.775 257.052 335.775C256.846 335.775 256.67 335.705 256.524 335.566C256.384 335.419 256.315 335.251 256.315 335.06C256.315 334.862 256.384 334.693 256.524 334.554C256.663 334.407 256.839 334.334 257.052 334.334C257.264 334.334 257.44 334.404 257.58 334.543C257.719 334.682 257.789 334.851 257.789 335.049ZM264.419 328.889L261.295 335.709H260.074L263.319 328.867H259.458V327.921H264.419V328.889Z" fill="#A652FA"/>
<path d="M253.216 366.606C253.421 366.657 253.612 366.745 253.788 366.87C253.971 366.987 254.129 367.13 254.261 367.299C254.393 367.468 254.495 367.662 254.569 367.882C254.649 368.102 254.69 368.337 254.69 368.586C254.69 368.953 254.62 369.279 254.481 369.565C254.341 369.851 254.151 370.093 253.909 370.291C253.674 370.489 253.399 370.639 253.084 370.742C252.768 370.852 252.435 370.907 252.083 370.907C251.731 370.907 251.393 370.852 251.071 370.742C250.755 370.639 250.477 370.489 250.235 370.291C250 370.093 249.813 369.851 249.674 369.565C249.534 369.279 249.465 368.953 249.465 368.586C249.465 368.329 249.501 368.091 249.575 367.871C249.655 367.651 249.762 367.457 249.894 367.288C250.033 367.119 250.191 366.98 250.367 366.87C250.55 366.753 250.741 366.665 250.939 366.606V366.584C250.587 366.459 250.297 366.247 250.07 365.946C249.85 365.645 249.74 365.279 249.74 364.846C249.74 364.523 249.802 364.234 249.927 363.977C250.051 363.713 250.22 363.489 250.433 363.306C250.645 363.115 250.891 362.972 251.17 362.877C251.456 362.774 251.76 362.723 252.083 362.723C252.398 362.723 252.699 362.774 252.985 362.877C253.271 362.972 253.516 363.112 253.722 363.295C253.934 363.471 254.103 363.691 254.228 363.955C254.352 364.212 254.415 364.501 254.415 364.824C254.415 365.249 254.301 365.62 254.074 365.935C253.854 366.25 253.568 366.467 253.216 366.584V366.606ZM250.807 364.879C250.807 365.055 250.836 365.22 250.895 365.374C250.961 365.528 251.049 365.664 251.159 365.781C251.276 365.891 251.412 365.979 251.566 366.045C251.727 366.111 251.899 366.144 252.083 366.144C252.259 366.144 252.424 366.111 252.578 366.045C252.732 365.979 252.867 365.891 252.985 365.781C253.102 365.664 253.194 365.528 253.26 365.374C253.326 365.22 253.359 365.055 253.359 364.879C253.359 364.696 253.322 364.527 253.249 364.373C253.183 364.212 253.091 364.076 252.974 363.966C252.864 363.849 252.732 363.761 252.578 363.702C252.424 363.636 252.259 363.603 252.083 363.603C251.899 363.603 251.727 363.636 251.566 363.702C251.412 363.761 251.276 363.849 251.159 363.966C251.049 364.076 250.961 364.212 250.895 364.373C250.836 364.527 250.807 364.696 250.807 364.879ZM250.554 368.531C250.554 368.751 250.59 368.953 250.664 369.136C250.737 369.319 250.84 369.477 250.972 369.609C251.111 369.734 251.272 369.833 251.456 369.906C251.646 369.979 251.855 370.016 252.083 370.016C252.303 370.016 252.504 369.979 252.688 369.906C252.878 369.833 253.04 369.734 253.172 369.609C253.304 369.477 253.406 369.319 253.48 369.136C253.56 368.953 253.601 368.751 253.601 368.531C253.601 368.318 253.56 368.124 253.48 367.948C253.406 367.765 253.304 367.607 253.172 367.475C253.04 367.343 252.878 367.24 252.688 367.167C252.504 367.094 252.303 367.057 252.083 367.057C251.863 367.057 251.657 367.094 251.467 367.167C251.283 367.24 251.122 367.343 250.983 367.475C250.851 367.607 250.744 367.765 250.664 367.948C250.59 368.124 250.554 368.318 250.554 368.531ZM257.789 370.049C257.789 370.24 257.719 370.408 257.58 370.555C257.44 370.702 257.264 370.775 257.052 370.775C256.846 370.775 256.67 370.705 256.524 370.566C256.384 370.419 256.315 370.251 256.315 370.06C256.315 369.862 256.384 369.693 256.524 369.554C256.663 369.407 256.839 369.334 257.052 369.334C257.264 369.334 257.44 369.404 257.58 369.543C257.719 369.682 257.789 369.851 257.789 370.049ZM264.419 363.889L261.295 370.709H260.074L263.319 363.867H259.458V362.921H264.419V363.889Z" fill="#A652FA"/>
<line x1="120.598" y1="261.709" x2="231.06" y2="261.709" stroke="#4A4A4A"/>
<line x1="120.598" y1="296.709" x2="231.06" y2="296.709" stroke="#4A4A4A"/>
<line x1="120.598" y1="331.709" x2="231.06" y2="331.709" stroke="#4A4A4A"/>
<line x1="120.598" y1="366.709" x2="231.06" y2="366.709" stroke="#4A4A4A"/>
<circle cx="154.596" cy="262.209" r="4.70898" fill="#1E1F23" stroke="#7C7F87"/>
<circle cx="192.975" cy="297.209" r="4.70898" fill="#1E1F23" stroke="#7C7F87"/>
<circle cx="186.248" cy="332.209" r="4.70898" fill="#1E1F23" stroke="#7C7F87"/>
<circle cx="217.311" cy="367.209" r="4.70898" fill="#1E1F23" stroke="#7C7F87"/>
<rect x="40.1953" y="46.6895" width="225.608" height="177.954" fill="#100919"/>
<line x1="77.7891" y1="46.6895" x2="77.7891" y2="224.643" stroke="#1E1F23"/>
<line x1="115.645" y1="46.6895" x2="115.645" y2="224.643" stroke="#1E1F23"/>
<line x1="153.5" y1="46.6895" x2="153.5" y2="224.643" stroke="#1E1F23"/>
<line x1="191.357" y1="46.6895" x2="191.357" y2="224.643" stroke="#1E1F23"/>
<line x1="229.213" y1="46.6895" x2="229.213" y2="224.643" stroke="#1E1F23"/>
<line x1="265.295" y1="79.3818" x2="40.1953" y2="79.3818" stroke="#1E1F23"/>
<line x1="265.295" y1="117.237" x2="40.1953" y2="117.237" stroke="#1E1F23"/>
<line x1="265.295" y1="155.094" x2="40.1953" y2="155.094" stroke="#1E1F23"/>
<line x1="265.295" y1="192.949" x2="40.1953" y2="192.949" stroke="#1E1F23"/>
<line x1="39.2826" y1="224.269" x2="265.495" y2="46.2962" stroke="#A652FA"/>
<path d="M39.5918 224.062V224.062C88.3215 143.071 163.949 81.7667 253.271 50.8514L265.295 46.6897" stroke="#F6F6FC"/>
<rect x="131.926" y="111.064" width="6.67664" height="6.67664" fill="#100919" stroke="#F6F6FC"/>
<rect x="258.627" y="44.9238" width="6.67664" height="6.67664" fill="#100919" stroke="#F6F6FC"/>
<rect x="36.8574" y="219.741" width="6.67664" height="6.67664" fill="#100919" stroke="#F6F6FC"/>
</g>
<defs>
<clipPath id="clip0_3642_56904">
<rect width="306" height="414" rx="16" fill="white"/>
</clipPath>
</defs>
</svg>
