<svg xmlns="http://www.w3.org/2000/svg" width="12" height="12" viewBox="0 0 12 12" fill="none"><circle cx="6" cy="6" r="6" fill="black" fill-opacity="0.25"/><path fill-rule="evenodd" clip-rule="evenodd" d="M8.71289 3.58672C8.87135 3.74518 8.87135 4.00209 8.71289 4.16054L6.72363 6.14981L8.71289 8.13907C8.87135 8.29752 8.87135 8.55444 8.71289 8.71289C8.55444 8.87135 8.29752 8.87135 8.13907 8.71289L6.14981 6.72363L4.16054 8.71289C4.00209 8.87135 3.74518 8.87135 3.58672 8.71289C3.42826 8.55443 3.42826 8.29752 3.58672 8.13907L5.57598 6.14981L3.58672 4.16054C3.42826 4.00209 3.42826 3.74518 3.58672 3.58672C3.74518 3.42826 4.00209 3.42826 4.16054 3.58672L6.14981 5.57598L8.13907 3.58672C8.29752 3.42826 8.55444 3.42826 8.71289 3.58672Z" fill="white"/></svg>