<svg width="32" height="33" viewBox="0 0 32 33" fill="none" xmlns="http://www.w3.org/2000/svg">
<path fill-rule="evenodd" clip-rule="evenodd" d="M3.97205 7.8354C3.36635 8.53645 3 9.45005 3 10.4492V23.4492C3 25.1061 4.34315 26.4492 6 26.4492H26C27.6569 26.4492 29 25.1061 29 23.4492V15.4492H31V23.4492C31 26.2106 28.7614 28.4492 26 28.4492H6C3.23858 28.4492 1 26.2106 1 23.4492V10.4492C1 7.13551 3.68629 4.44922 7 4.44922H25C28.3137 4.44922 31 7.13551 31 10.4492V11.4492H29V10.4492C29 8.24008 27.2091 6.44922 25 6.44922H21.4143L26.4144 11.4493H23.5859L18.5859 6.44922H13.4143L18.4144 11.4493H15.5859L10.5859 6.44922H7C6.52565 6.44922 6.07059 6.53179 5.6484 6.68333L10.4144 11.4493H7.58594L3.97205 7.8354ZM16 22.4492H8V20.4492H16V22.4492Z" fill="white"/>
</svg>
