<svg width="306" height="153" viewBox="0 0 306 153" fill="none" xmlns="http://www.w3.org/2000/svg">
<rect width="306" height="153" rx="16" fill="#F6F6FC"/>
<rect x="31" y="68.5" width="4" height="16" rx="2" fill="#8C20F8"/>
<rect x="41" y="56.5" width="4" height="40" rx="2" fill="#8C20F8"/>
<rect x="51" y="66.5" width="4" height="20" rx="2" fill="#8C20F8"/>
<rect x="61" y="46.5" width="4" height="60" rx="2" fill="#8C20F8"/>
<rect x="71" y="66.5" width="4" height="20" rx="2" fill="#8C20F8"/>
<rect x="81" y="56.5" width="4" height="40" rx="2" fill="#8C20F8"/>
<rect x="91" y="60.5" width="4" height="32" rx="2" fill="#8C20F8"/>
<rect x="101" y="68.5" width="4" height="16" rx="2" fill="#8C20F8"/>
<rect x="111" y="46.5" width="4" height="60" rx="2" fill="#8C20F8"/>
<rect x="121" y="53.5" width="4" height="46" rx="2" fill="#8C20F8"/>
<rect x="131" y="60.5" width="4" height="32" rx="2" fill="#8C20F8"/>
<rect x="141" y="56.5" width="4" height="40" rx="2" fill="#8C20F8"/>
<rect x="151" y="64.5" width="4" height="24" rx="2" fill="#8C20F8"/>
<rect x="161" y="66.5" width="4" height="20" rx="2" fill="#8C20F8"/>
<rect x="171" y="50.5" width="4" height="52" rx="2" fill="#8C20F8"/>
<rect x="181" y="46.5" width="4" height="60" rx="2" fill="#8C20F8"/>
<rect x="191" y="66.5" width="4" height="20" rx="2" fill="#8C20F8"/>
<rect x="201" y="60.5" width="4" height="32" rx="2" fill="#8C20F8"/>
<rect x="211" y="53.5" width="4" height="46" rx="2" fill="#8C20F8"/>
<rect x="221" y="46.5" width="4" height="60" rx="2" fill="#8C20F8"/>
<rect x="231" y="66.5" width="4" height="20" rx="2" fill="#8C20F8"/>
<rect x="241" y="53.5" width="4" height="46" rx="2" fill="#8C20F8"/>
<rect x="251" y="66.5" width="4" height="20" rx="2" fill="#8C20F8"/>
<rect x="261" y="46.5" width="4" height="60" rx="2" fill="#8C20F8"/>
<rect x="271" y="60.5" width="4" height="32" rx="2" fill="#8C20F8"/>
</svg>
