<svg width="32" height="32" viewBox="0 0 32 32" fill="none" xmlns="http://www.w3.org/2000/svg">
<path d="M25.218 23.1332C26.2485 23.1332 27.2367 22.7275 27.9654 22.0052C28.6941 21.283 29.1034 20.3034 29.1034 19.282V6.74082C29.1034 5.71941 28.6941 4.73983 27.9654 4.01759C27.2367 3.29534 26.2485 2.88959 25.218 2.88959H6.78387C5.75339 2.88959 4.76511 3.29534 4.03645 4.01759C3.30779 4.73983 2.89844 5.71941 2.89844 6.74082V19.282C2.89844 20.3034 3.30779 21.283 4.03645 22.0052C4.76511 22.7275 5.75339 23.1332 6.78387 23.1332H16.0009L23.3031 30.3711" stroke="currentcolor" stroke-width="2" stroke-miterlimit="10"/>
<path d="M8.11719 9.88556H23.8851" stroke="currentcolor" stroke-width="2" stroke-miterlimit="10"/>
<path d="M8.11719 16.1373H16.7896" stroke="currentcolor" stroke-width="2" stroke-miterlimit="10"/>
</svg>