<svg width="32" height="32" viewBox="0 0 32 32" fill="none" xmlns="http://www.w3.org/2000/svg">
<path d="M11.5508 12.6987C11.5509 11.9288 11.7627 11.1736 12.163 10.5159C12.5633 9.85821 13.1367 9.32318 13.8206 8.96933C14.5044 8.61547 15.2723 8.45641 16.0405 8.50952C16.8086 8.56262 17.5474 8.82586 18.176 9.27046C18.8046 9.71506 19.2989 10.3239 19.6049 11.0305C19.9109 11.737 20.0167 12.5141 19.9109 13.2767C19.8051 14.0394 19.4917 14.7583 19.0049 15.3548C18.5181 15.9514 17.8767 16.4027 17.1508 16.6593C16.7412 16.8041 16.3866 17.0724 16.1358 17.4272C15.8851 17.782 15.7506 18.2059 15.7508 18.6403V18.9987" stroke="currentcolor" stroke-width="2" stroke-linecap="round" stroke-linejoin="round"/>
<path d="M15.7516 23.1987C15.6477 23.1987 15.5462 23.2295 15.4599 23.2872C15.3736 23.3449 15.3063 23.4269 15.2665 23.5228C15.2268 23.6188 15.2164 23.7243 15.2367 23.8262C15.2569 23.928 15.3069 24.0215 15.3803 24.095C15.4538 24.1684 15.5473 24.2184 15.6491 24.2386C15.751 24.2589 15.8565 24.2485 15.9525 24.2088C16.0484 24.169 16.1304 24.1017 16.1881 24.0154C16.2458 23.9291 16.2766 23.8276 16.2766 23.7237C16.2766 23.5845 16.2213 23.451 16.1228 23.3525C16.0243 23.254 15.8908 23.1987 15.7516 23.1987Z" fill="currentcolor" stroke="currentcolor" stroke-width="1.5" stroke-linecap="round" stroke-linejoin="round"/>
<path d="M30 17.75V5C30 3.34315 28.6569 2 27 2H5C3.34315 2 2 3.34315 2 5V27C2 28.6569 3.34315 30 5 30H27C28.6569 30 30 28.6569 30 27V24.75" stroke="currentcolor" stroke-width="2" stroke-linejoin="round"/>
</svg>