<svg width="32" height="33" viewBox="0 0 32 33" fill="none" xmlns="http://www.w3.org/2000/svg">
<path fill-rule="evenodd" clip-rule="evenodd" d="M11.2424 28.2779C11.8101 28.3902 12.3977 28.4492 13 28.4492H14.5V30.4492H13C12.2666 30.4492 11.5491 30.3773 10.8543 30.2399L11.2424 28.2779ZM17.5 28.4492H19C19.6023 28.4492 20.1899 28.3902 20.7576 28.2779L21.1457 30.2399C20.4509 30.3773 19.7334 30.4492 19 30.4492H17.5V28.4492ZM5.51531 24.4491C6.17268 25.431 7.01827 26.2765 8.00016 26.9339L6.88752 28.5958C5.68839 27.793 4.65618 26.7608 3.85338 25.5617L5.51531 24.4491ZM23.9998 26.9339C24.9817 26.2765 25.8273 25.431 26.4847 24.4491L28.1466 25.5617C27.3438 26.7608 26.3116 27.793 25.1125 28.5958L23.9998 26.9339ZM4 19.4492C4 20.0516 4.05903 20.6391 4.17133 21.2068L2.20935 21.5949C2.07191 20.9001 2 20.1826 2 19.4492V17.9492H4V19.4492ZM27.8287 21.2068C27.941 20.6391 28 20.0516 28 19.4492V17.9492H30V19.4492C30 20.1826 29.9281 20.9001 29.7906 21.5949L27.8287 21.2068ZM4 13.4492V14.9492H2V13.4492C2 12.7159 2.07191 11.9983 2.20935 11.3035L4.17133 11.6917C4.05903 12.2593 4 12.8469 4 13.4492ZM28 14.9492V13.4492C28 12.8469 27.941 12.2593 27.8287 11.6917L29.7906 11.3035C29.9281 11.9983 30 12.7159 30 13.4492V14.9492H28ZM8.00016 5.96453C7.01827 6.62189 6.17268 7.46749 5.51531 8.44938L3.85338 7.33674C4.65618 6.13761 5.68839 5.1054 6.88752 4.3026L8.00016 5.96453ZM26.4847 8.44938C25.8273 7.46749 24.9817 6.62189 23.9998 5.96453L25.1125 4.3026C26.3116 5.1054 27.3438 6.13761 28.1466 7.33674L26.4847 8.44938ZM13 4.44922C12.3977 4.44922 11.8101 4.50825 11.2424 4.62055L10.8543 2.65857C11.5491 2.52112 12.2666 2.44922 13 2.44922H14.5V4.44922H13ZM20.7576 4.62055C20.1899 4.50825 19.6023 4.44922 19 4.44922H17.5V2.44922H19C19.7334 2.44922 20.4509 2.52112 21.1457 2.65857L20.7576 4.62055ZM11 7.44922C8.79086 7.44922 7 9.24008 7 11.4492V21.4492C7 23.6584 8.79086 25.4492 11 25.4492H21C23.2091 25.4492 25 23.6584 25 21.4492H23C23 22.5538 22.1046 23.4492 21 23.4492H11C9.89543 23.4492 9 22.5538 9 21.4492V11.4492C9 10.3446 9.89543 9.44922 11 9.44922H21C22.1046 9.44922 23 10.3446 23 11.4492V17.4492H25V11.4492C25 9.24008 23.2091 7.44922 21 7.44922H11Z" fill="white"/>
</svg>
