<svg width="24" height="24" viewBox="0 0 24 24" fill="none" xmlns="http://www.w3.org/2000/svg">
    <path fill-rule="evenodd" clip-rule="evenodd"
        d="M3 4.98135C3 3.8573 3.86245 3 5.18229 3C6.50213 3 7.31563 3.85562 7.34264 4.98135C7.34264 6.08359 6.50381 6.96438 5.15866 6.96438H5.13334C3.83713 6.96438 3 6.08192 3 4.98135ZM16.5574 8.25941C14.5085 8.25941 13.592 9.3734 13.0789 10.1535V8.52952H9.2207C9.27134 9.60659 9.2207 19.9999 9.2207 19.9999H13.0789V13.5945C13.0789 13.2522 13.1043 12.91 13.2055 12.665C13.484 11.9805 14.1186 11.2709 15.1853 11.2709C16.5828 11.2709 17.1414 12.3228 17.1414 13.8646V19.9999H20.9997V13.4233C20.9997 9.89851 19.0959 8.25941 16.5574 8.25941ZM7.08578 8.53024H3.22754V20.0006H7.08578V8.53024Z"
        fill="currentColor" />
</svg>
