<svg width="24" height="24" viewBox="0 0 24 24" fill="none" xmlns="http://www.w3.org/2000/svg">
    <path
        d="M20.4994 10.2017C18.7792 10.2058 17.1012 9.66934 15.7024 8.6681V15.6511C15.702 16.9444 15.3067 18.2068 14.5694 19.2694C13.8321 20.332 12.788 21.1442 11.5766 21.5974C10.3653 22.0505 9.04446 22.1231 7.79078 21.8053C6.53709 21.4876 5.41029 20.7946 4.56105 19.8192C3.71181 18.8437 3.18061 17.6323 3.03848 16.3468C2.89634 15.0613 3.15005 13.763 3.76568 12.6256C4.3813 11.4882 5.3295 10.5658 6.48349 9.98185C7.63747 9.39788 8.94224 9.18013 10.2233 9.35772V12.8699C9.63709 12.6855 9.00759 12.6911 8.42471 12.8858C7.84183 13.0805 7.33538 13.4544 6.97769 13.9541C6.61999 14.4539 6.42934 15.0538 6.43296 15.6684C6.43658 16.2829 6.63428 16.8806 6.99784 17.376C7.3614 17.8715 7.87222 18.2394 8.45735 18.4272C9.04249 18.6151 9.67201 18.6132 10.256 18.4219C10.84 18.2306 11.3487 17.8597 11.7093 17.3621C12.0699 16.8645 12.2641 16.2657 12.2641 15.6511V2H15.7024C15.7001 2.29036 15.7244 2.58033 15.7751 2.86623C15.8946 3.50447 16.143 4.11163 16.5052 4.65057C16.8674 5.1895 17.3357 5.64889 17.8815 6.00062C18.658 6.51407 19.5684 6.78774 20.4994 6.78754V10.2017Z"
        fill="currentColor" />
</svg>
