<svg xmlns="http://www.w3.org/2000/svg" width="16" height="16" viewBox="0 0 16 16" fill="none"><path fill-rule="evenodd" clip-rule="evenodd" d="M14.0291 2.63758C14.3812 2.98971 14.3812 3.56062 14.0291 3.91275L9.6085 8.33333L14.0291 12.7539C14.3812 13.106 14.3812 13.677 14.0291 14.0291C13.677 14.3812 13.106 14.3812 12.7539 14.0291L8.33333 9.6085L3.91275 14.0291C3.56062 14.3812 2.98971 14.3812 2.63758 14.0291C2.28546 13.677 2.28546 13.106 2.63758 12.7539L7.05817 8.33333L2.63758 3.91275C2.28546 3.56062 2.28546 2.98971 2.63758 2.63758C2.98971 2.28546 3.56062 2.28546 3.91275 2.63758L8.33333 7.05817L12.7539 2.63758C13.106 2.28546 13.677 2.28546 14.0291 2.63758Z" fill="#B3B3B3"/></svg>