<svg width="32" height="32" viewBox="0 0 32 32" fill="none" xmlns="http://www.w3.org/2000/svg">
<path d="M10.5419 10.555C12.7095 10.555 14.4666 8.86377 14.4666 6.77749C14.4666 4.69121 12.7095 2.99994 10.5419 2.99994C8.37435 2.99994 6.61719 4.69121 6.61719 6.77749C6.61719 8.86377 8.37435 10.555 10.5419 10.555Z" stroke="currentcolor" stroke-width="2" stroke-linecap="round" stroke-linejoin="round"/>
<path d="M16.1876 18.0192C15.4612 16.8265 14.3473 15.897 13.0176 15.3741C11.688 14.8512 10.2165 14.764 8.83026 15.1259C7.444 15.4878 6.21998 16.2787 5.34703 17.3765C4.47409 18.4744 4.00073 19.8182 4 21.2007V29.2139" stroke="currentcolor" stroke-width="2" stroke-linecap="round" stroke-linejoin="round"/>
<path d="M22.3154 10.555C24.4829 10.555 26.2401 8.86377 26.2401 6.77749C26.2401 4.69121 24.4829 2.99994 22.3154 2.99994C20.1478 2.99994 18.3906 4.69121 18.3906 6.77749C18.3906 8.86377 20.1478 10.555 22.3154 10.555Z" stroke="currentcolor" stroke-width="2" stroke-linecap="round" stroke-linejoin="round"/>
<path d="M28.8559 21.2009C28.8559 19.5311 28.1667 17.9297 26.94 16.749C25.7133 15.5683 24.0495 14.905 22.3147 14.905C20.5798 14.905 18.916 15.5683 17.6893 16.749C16.4626 17.9297 15.7734 19.5311 15.7734 21.2009V29.7862H28.8559V21.2009Z" stroke="currentcolor" stroke-width="2" stroke-linecap="round" stroke-linejoin="round"/>
</svg>