<svg width="24" height="25" viewBox="0 0 24 25" fill="none" xmlns="http://www.w3.org/2000/svg">
<path d="M12.4874 19.6552L7.97385 19.5717C6.51246 19.5426 5.04744 19.6007 3.61471 19.2991C1.43519 18.8485 1.28079 16.6393 1.11922 14.7862C0.896594 12.1809 0.982778 9.52836 1.4029 6.94484C1.64007 5.49522 2.57344 4.63022 4.01686 4.53609C8.88948 4.19448 13.7945 4.23496 18.6563 4.39434C19.1698 4.40895 19.6868 4.4888 20.1931 4.57969C22.6923 5.02301 22.7533 7.52657 22.9153 9.63409C23.0768 11.7634 23.0086 13.9036 22.6998 16.0183C22.4521 17.7693 21.978 19.2377 19.9776 19.3794C17.4712 19.5648 15.0223 19.714 12.5089 19.6665C12.509 19.6552 12.4946 19.6552 12.4874 19.6552ZM9.83387 15.2222C11.7226 14.1248 13.5754 13.0457 15.4534 11.9556C13.5611 10.8582 11.7118 9.77907 9.83387 8.68901V15.2222Z" fill="currentcolor"/>
</svg>