<svg width="24" height="24" viewBox="0 0 24 24" fill="none" xmlns="http://www.w3.org/2000/svg">
<path d="M21.9708 6.46378C21.4547 7.15213 20.8309 7.75258 20.1235 8.24195C20.1235 8.42177 20.1235 8.60158 20.1235 8.79139C20.1292 12.0568 18.8249 15.1879 16.5029 17.4828C14.181 19.7777 11.0357 21.0443 7.77211 20.9988C5.88538 21.0051 4.02281 20.5743 2.3303 19.7401C2.23904 19.7003 2.18018 19.61 2.18053 19.5103V19.4005C2.18053 19.257 2.29676 19.1407 2.44014 19.1407C4.29475 19.0796 6.0832 18.4366 7.55244 17.3026C5.87376 17.2688 4.36338 16.2744 3.66829 14.7453C3.63318 14.6617 3.64411 14.5659 3.69713 14.4925C3.75016 14.419 3.83761 14.3785 3.9279 14.3856C4.43809 14.4369 4.95337 14.3894 5.44561 14.2458C3.59249 13.8611 2.20007 12.3227 2.0008 10.4397C1.99371 10.3494 2.03419 10.2619 2.10761 10.2088C2.18103 10.1558 2.27677 10.1448 2.36026 10.18C2.85755 10.3994 3.39439 10.515 3.93788 10.5196C2.31411 9.45384 1.61274 7.42672 2.23045 5.58469C2.29421 5.4057 2.4474 5.27347 2.63372 5.2366C2.82004 5.19972 3.01201 5.26365 3.13908 5.40487C5.33027 7.73695 8.34099 9.12662 11.5364 9.28088C11.4546 8.95427 11.4143 8.61862 11.4166 8.28191C11.4465 6.51636 12.5389 4.94357 14.1825 4.29986C15.826 3.65615 17.6953 4.06893 18.9153 5.34494C19.747 5.18651 20.551 4.90716 21.3018 4.51579C21.3568 4.48145 21.4265 4.48145 21.4815 4.51579C21.5158 4.57081 21.5158 4.64058 21.4815 4.6956C21.1178 5.52835 20.5035 6.2268 19.7241 6.69355C20.4066 6.6144 21.0771 6.45341 21.7211 6.21404C21.7754 6.17713 21.8466 6.17713 21.9009 6.21404C21.9463 6.23482 21.9802 6.27457 21.9937 6.32269C22.0072 6.37081 21.9988 6.42242 21.9708 6.46378Z" fill="currentColor"/>
</svg>