<svg width="32" height="25" viewBox="0 0 32 25" fill="none" xmlns="http://www.w3.org/2000/svg">
<path d="M27.1842 2.52022C25.1839 1.60244 23.039 0.926256 20.7964 0.538978C20.7555 0.531504 20.7147 0.550183 20.6937 0.587541C20.4178 1.07817 20.1123 1.71824 19.8983 2.22134C17.4862 1.86022 15.0864 1.86022 12.7238 2.22134C12.5097 1.70706 12.1931 1.07817 11.916 0.587541C11.895 0.551429 11.8542 0.53275 11.8133 0.538978C9.57191 0.925018 7.42698 1.6012 5.42553 2.52022C5.4082 2.52769 5.39335 2.54016 5.38349 2.55633C1.31502 8.63455 0.200493 14.5634 0.747242 20.4187C0.749716 20.4473 0.765797 20.4747 0.788063 20.4921C3.47233 22.4634 6.07249 23.6601 8.62438 24.4534C8.66522 24.4658 8.70849 24.4509 8.73448 24.4172C9.33813 23.5929 9.87623 22.7237 10.3376 21.8096C10.3648 21.7561 10.3388 21.6926 10.2832 21.6714C9.42967 21.3476 8.61695 20.9529 7.83517 20.5046C7.77334 20.4685 7.76839 20.38 7.82527 20.3377C7.98979 20.2144 8.15435 20.0861 8.31144 19.9566C8.33986 19.933 8.37946 19.928 8.41288 19.9429C13.5488 22.2878 19.1091 22.2878 24.1844 19.9429C24.2178 19.9268 24.2575 19.9318 24.2871 19.9554C24.4442 20.0849 24.6088 20.2144 24.7745 20.3377C24.8314 20.38 24.8277 20.4685 24.7658 20.5046C23.9841 20.9616 23.1714 21.3476 22.3166 21.6702C22.261 21.6913 22.2362 21.7561 22.2634 21.8096C22.7347 22.7224 23.2728 23.5916 23.8653 24.416C23.8901 24.4509 23.9346 24.4658 23.9754 24.4534C26.5397 23.6601 29.1398 22.4634 31.8241 20.4921C31.8476 20.4747 31.8624 20.4485 31.8649 20.4199C32.5193 13.6505 30.7689 7.77033 27.225 2.55757C27.2163 2.54016 27.2015 2.52769 27.1842 2.52022ZM11.1046 16.8534C9.55829 16.8534 8.28421 15.4338 8.28421 13.6904C8.28421 11.947 9.53358 10.5274 11.1046 10.5274C12.6879 10.5274 13.9496 11.9595 13.9249 13.6904C13.9249 15.4338 12.6755 16.8534 11.1046 16.8534ZM21.5323 16.8534C19.9861 16.8534 18.712 15.4338 18.712 13.6904C18.712 11.947 19.9614 10.5274 21.5323 10.5274C23.1157 10.5274 24.3774 11.9595 24.3527 13.6904C24.3527 15.4338 23.1157 16.8534 21.5323 16.8534Z" fill="currentcolor"/>
</svg>