<svg width="32" height="32" viewBox="0 0 32 32" fill="none" xmlns="http://www.w3.org/2000/svg">
<path d="M31 21V29C31 29.5304 30.7893 30.0391 30.4142 30.4142C30.0391 30.7893 29.5304 31 29 31H21" stroke="#AB88FB" stroke-width="2" stroke-linecap="round" stroke-linejoin="round"/>
<path d="M21 1H29C29.5304 1 30.0391 1.21071 30.4142 1.58579C30.7893 1.96086 31 2.46957 31 3V11" stroke="#AB88FB" stroke-width="2" stroke-linecap="round" stroke-linejoin="round"/>
<path d="M1 11V3C1 2.46957 1.21071 1.96086 1.58579 1.58579C1.96086 1.21071 2.46957 1 3 1H11" stroke="#AB88FB" stroke-width="2" stroke-linecap="round" stroke-linejoin="round"/>
<path d="M11 31H3C2.46957 31 1.96086 30.7893 1.58579 30.4142C1.21071 30.0391 1 29.5304 1 29V21" stroke="#AB88FB" stroke-width="2" stroke-linecap="round" stroke-linejoin="round"/>
<path d="M16 9V23" stroke="currentcolor" stroke-width="2" stroke-linecap="round" stroke-linejoin="round"/>
<path d="M11 12V20" stroke="currentcolor" stroke-width="2" stroke-linecap="round" stroke-linejoin="round"/>
<path d="M21 12V20" stroke="currentcolor" stroke-width="2" stroke-linecap="round" stroke-linejoin="round"/>
<path d="M6 14V18" stroke="currentcolor" stroke-width="2" stroke-linecap="round" stroke-linejoin="round"/>
<path d="M26 14V18" stroke="currentcolor" stroke-width="2" stroke-linecap="round" stroke-linejoin="round"/>
</svg>