<svg width="284" height="199" viewBox="0 0 284 199" fill="none" xmlns="http://www.w3.org/2000/svg">
<rect y="0.449219" width="284" height="198" rx="16" fill="#1C1D21"/>
<path d="M51.5289 50.1292H56.2689V51.4492H50.0439V40.8292H51.5289V50.1292ZM62.7964 47.2642C62.7864 46.9842 62.7364 46.7242 62.6464 46.4842C62.5664 46.2342 62.4414 46.0192 62.2714 45.8392C62.1114 45.6592 61.9064 45.5192 61.6564 45.4192C61.4164 45.3092 61.1314 45.2542 60.8014 45.2542C60.5014 45.2542 60.2164 45.3092 59.9464 45.4192C59.6864 45.5192 59.4564 45.6592 59.2564 45.8392C59.0664 46.0192 58.9064 46.2342 58.7764 46.4842C58.6564 46.7242 58.5864 46.9842 58.5664 47.2642H62.7964ZM64.2214 47.8342C64.2214 47.9142 64.2214 47.9942 64.2214 48.0742C64.2214 48.1542 64.2164 48.2342 64.2064 48.3142H58.5664C58.5764 48.6142 58.6414 48.8992 58.7614 49.1692C58.8914 49.4292 59.0614 49.6592 59.2714 49.8592C59.4814 50.0492 59.7214 50.1992 59.9914 50.3092C60.2714 50.4192 60.5664 50.4742 60.8764 50.4742C61.3564 50.4742 61.7714 50.3692 62.1214 50.1592C62.4714 49.9492 62.7464 49.6942 62.9464 49.3942L63.9364 50.1892C63.5564 50.6892 63.1064 51.0592 62.5864 51.2992C62.0764 51.5292 61.5064 51.6442 60.8764 51.6442C60.3364 51.6442 59.8364 51.5542 59.3764 51.3742C58.9164 51.1942 58.5214 50.9442 58.1914 50.6242C57.8614 50.2942 57.6014 49.8992 57.4114 49.4392C57.2214 48.9792 57.1264 48.4692 57.1264 47.9092C57.1264 47.3592 57.2164 46.8542 57.3964 46.3942C57.5864 45.9242 57.8464 45.5242 58.1764 45.1942C58.5064 44.8642 58.8964 44.6092 59.3464 44.4292C59.7964 44.2392 60.2814 44.1442 60.8014 44.1442C61.3214 44.1442 61.7914 44.2292 62.2114 44.3992C62.6414 44.5692 63.0014 44.8142 63.2914 45.1342C63.5914 45.4542 63.8214 45.8442 63.9814 46.3042C64.1414 46.7542 64.2214 47.2642 64.2214 47.8342ZM69.895 45.4942H68.005V49.1992C68.005 49.6292 68.085 49.9392 68.245 50.1292C68.405 50.3092 68.66 50.3992 69.01 50.3992C69.14 50.3992 69.28 50.3842 69.43 50.3542C69.58 50.3242 69.715 50.2792 69.835 50.2192L69.88 51.3742C69.71 51.4342 69.52 51.4792 69.31 51.5092C69.11 51.5492 68.9 51.5692 68.68 51.5692C68.01 51.5692 67.495 51.3842 67.135 51.0142C66.785 50.6442 66.61 50.0892 66.61 49.3492V45.4942H65.245V44.3392H66.61V42.2992H68.005V44.3392H69.895V45.4942ZM72.5427 44.5792H71.3577L72.3927 40.8292H73.7877L72.5427 44.5792ZM78.9814 46.1392C78.8214 45.8792 78.5964 45.6692 78.3064 45.5092C78.0164 45.3392 77.6914 45.2542 77.3314 45.2542C77.1714 45.2542 77.0114 45.2742 76.8514 45.3142C76.6914 45.3442 76.5464 45.3992 76.4164 45.4792C76.2964 45.5492 76.1964 45.6442 76.1164 45.7642C76.0464 45.8742 76.0114 46.0142 76.0114 46.1842C76.0114 46.4842 76.1464 46.7092 76.4164 46.8592C76.6864 46.9992 77.0914 47.1292 77.6314 47.2492C77.9714 47.3292 78.2864 47.4242 78.5764 47.5342C78.8664 47.6442 79.1164 47.7842 79.3264 47.9542C79.5464 48.1142 79.7164 48.3092 79.8364 48.5392C79.9564 48.7692 80.0164 49.0392 80.0164 49.3492C80.0164 49.7692 79.9364 50.1242 79.7764 50.4142C79.6164 50.7042 79.4014 50.9442 79.1314 51.1342C78.8714 51.3142 78.5714 51.4442 78.2314 51.5242C77.8914 51.6042 77.5414 51.6442 77.1814 51.6442C76.6414 51.6442 76.1114 51.5392 75.5914 51.3292C75.0814 51.1192 74.6564 50.7992 74.3164 50.3692L75.3214 49.5142C75.5114 49.7942 75.7714 50.0292 76.1014 50.2192C76.4414 50.4092 76.8114 50.5042 77.2114 50.5042C77.3914 50.5042 77.5614 50.4892 77.7214 50.4592C77.8914 50.4192 78.0414 50.3592 78.1714 50.2792C78.3114 50.1992 78.4214 50.0942 78.5014 49.9642C78.5814 49.8342 78.6214 49.6692 78.6214 49.4692C78.6214 49.1392 78.4614 48.8942 78.1414 48.7342C77.8314 48.5742 77.3714 48.4242 76.7614 48.2842C76.5214 48.2242 76.2764 48.1542 76.0264 48.0742C75.7864 47.9842 75.5664 47.8642 75.3664 47.7142C75.1664 47.5642 75.0014 47.3792 74.8714 47.1592C74.7514 46.9292 74.6914 46.6492 74.6914 46.3192C74.6914 45.9392 74.7664 45.6142 74.9164 45.3442C75.0764 45.0642 75.2814 44.8392 75.5314 44.6692C75.7814 44.4892 76.0664 44.3592 76.3864 44.2792C76.7064 44.1892 77.0364 44.1442 77.3764 44.1442C77.8864 44.1442 78.3764 44.2442 78.8464 44.4442C79.3264 44.6442 79.6964 44.9342 79.9564 45.3142L78.9814 46.1392ZM91.0164 51.4492C90.9964 51.2692 90.9814 51.0692 90.9714 50.8492C90.9614 50.6192 90.9564 50.4292 90.9564 50.2792H90.9264C90.7464 50.6592 90.4414 50.9842 90.0114 51.2542C89.5914 51.5142 89.1214 51.6442 88.6014 51.6442C88.1414 51.6442 87.7414 51.5692 87.4014 51.4192C87.0714 51.2692 86.7964 51.0642 86.5764 50.8042C86.3664 50.5342 86.2064 50.2242 86.0964 49.8742C85.9964 49.5242 85.9464 49.1492 85.9464 48.7492V44.3392H87.3564V48.2692C87.3564 48.5592 87.3764 48.8392 87.4164 49.1092C87.4664 49.3692 87.5514 49.5992 87.6714 49.7992C87.7914 49.9992 87.9564 50.1592 88.1664 50.2792C88.3764 50.3992 88.6464 50.4592 88.9764 50.4592C89.5464 50.4592 90.0064 50.2492 90.3564 49.8292C90.7064 49.3992 90.8814 48.8292 90.8814 48.1192V44.3392H92.2914V49.9192C92.2914 50.1092 92.2964 50.3542 92.3064 50.6542C92.3164 50.9542 92.3314 51.2192 92.3514 51.4492H91.0164ZM98.8019 46.1392C98.6419 45.8792 98.4169 45.6692 98.1269 45.5092C97.8369 45.3392 97.5119 45.2542 97.1519 45.2542C96.9919 45.2542 96.8319 45.2742 96.6719 45.3142C96.5119 45.3442 96.3669 45.3992 96.2369 45.4792C96.1169 45.5492 96.0169 45.6442 95.9369 45.7642C95.8669 45.8742 95.8319 46.0142 95.8319 46.1842C95.8319 46.4842 95.9669 46.7092 96.2369 46.8592C96.5069 46.9992 96.9119 47.1292 97.4519 47.2492C97.7919 47.3292 98.1069 47.4242 98.3969 47.5342C98.6869 47.6442 98.9369 47.7842 99.1469 47.9542C99.3669 48.1142 99.5369 48.3092 99.6569 48.5392C99.7769 48.7692 99.8369 49.0392 99.8369 49.3492C99.8369 49.7692 99.7569 50.1242 99.5969 50.4142C99.4369 50.7042 99.2219 50.9442 98.9519 51.1342C98.6919 51.3142 98.3919 51.4442 98.0519 51.5242C97.7119 51.6042 97.3619 51.6442 97.0019 51.6442C96.4619 51.6442 95.9319 51.5392 95.4119 51.3292C94.9019 51.1192 94.4769 50.7992 94.1369 50.3692L95.1419 49.5142C95.3319 49.7942 95.5919 50.0292 95.9219 50.2192C96.2619 50.4092 96.6319 50.5042 97.0319 50.5042C97.2119 50.5042 97.3819 50.4892 97.5419 50.4592C97.7119 50.4192 97.8619 50.3592 97.9919 50.2792C98.1319 50.1992 98.2419 50.0942 98.3219 49.9642C98.4019 49.8342 98.4419 49.6692 98.4419 49.4692C98.4419 49.1392 98.2819 48.8942 97.9619 48.7342C97.6519 48.5742 97.1919 48.4242 96.5819 48.2842C96.3419 48.2242 96.0969 48.1542 95.8469 48.0742C95.6069 47.9842 95.3869 47.8642 95.1869 47.7142C94.9869 47.5642 94.8219 47.3792 94.6919 47.1592C94.5719 46.9292 94.5119 46.6492 94.5119 46.3192C94.5119 45.9392 94.5869 45.6142 94.7369 45.3442C94.8969 45.0642 95.1019 44.8392 95.3519 44.6692C95.6019 44.4892 95.8869 44.3592 96.2069 44.2792C96.5269 44.1892 96.8569 44.1442 97.1969 44.1442C97.7069 44.1442 98.1969 44.2442 98.6669 44.4442C99.1469 44.6442 99.5169 44.9342 99.7769 45.3142L98.8019 46.1392ZM107.057 47.2642C107.047 46.9842 106.997 46.7242 106.907 46.4842C106.827 46.2342 106.702 46.0192 106.532 45.8392C106.372 45.6592 106.167 45.5192 105.917 45.4192C105.677 45.3092 105.392 45.2542 105.062 45.2542C104.762 45.2542 104.477 45.3092 104.207 45.4192C103.947 45.5192 103.717 45.6592 103.517 45.8392C103.327 46.0192 103.167 46.2342 103.037 46.4842C102.917 46.7242 102.847 46.9842 102.827 47.2642H107.057ZM108.482 47.8342C108.482 47.9142 108.482 47.9942 108.482 48.0742C108.482 48.1542 108.477 48.2342 108.467 48.3142H102.827C102.837 48.6142 102.902 48.8992 103.022 49.1692C103.152 49.4292 103.322 49.6592 103.532 49.8592C103.742 50.0492 103.982 50.1992 104.252 50.3092C104.532 50.4192 104.827 50.4742 105.137 50.4742C105.617 50.4742 106.032 50.3692 106.382 50.1592C106.732 49.9492 107.007 49.6942 107.207 49.3942L108.197 50.1892C107.817 50.6892 107.367 51.0592 106.847 51.2992C106.337 51.5292 105.767 51.6442 105.137 51.6442C104.597 51.6442 104.097 51.5542 103.637 51.3742C103.177 51.1942 102.782 50.9442 102.452 50.6242C102.122 50.2942 101.862 49.8992 101.672 49.4392C101.482 48.9792 101.387 48.4692 101.387 47.9092C101.387 47.3592 101.477 46.8542 101.657 46.3942C101.847 45.9242 102.107 45.5242 102.437 45.1942C102.767 44.8642 103.157 44.6092 103.607 44.4292C104.057 44.2392 104.542 44.1442 105.062 44.1442C105.582 44.1442 106.052 44.2292 106.472 44.3992C106.902 44.5692 107.262 44.8142 107.552 45.1342C107.852 45.4542 108.082 45.8442 108.242 46.3042C108.402 46.7542 108.482 47.2642 108.482 47.8342ZM115.176 44.3392L116.781 49.7692H116.811L118.506 44.3392H119.991L121.716 49.7692H121.746L123.351 44.3392H124.836L122.481 51.4492H121.011L119.256 46.1092H119.226L117.486 51.4492H116.016L113.646 44.3392H115.176ZM130.902 46.8442C130.902 46.3142 130.742 45.9242 130.422 45.6742C130.102 45.4142 129.677 45.2842 129.147 45.2842C128.747 45.2842 128.367 45.3642 128.007 45.5242C127.657 45.6742 127.362 45.8692 127.122 46.1092L126.372 45.2092C126.722 44.8792 127.147 44.6192 127.647 44.4292C128.157 44.2392 128.702 44.1442 129.282 44.1442C129.792 44.1442 130.232 44.2192 130.602 44.3692C130.982 44.5092 131.292 44.7042 131.532 44.9542C131.772 45.2042 131.952 45.4992 132.072 45.8392C132.192 46.1792 132.252 46.5442 132.252 46.9342V50.0392C132.252 50.2792 132.257 50.5342 132.267 50.8042C132.287 51.0642 132.317 51.2792 132.357 51.4492H131.082C131.002 51.1092 130.962 50.7692 130.962 50.4292H130.917C130.657 50.8092 130.327 51.1042 129.927 51.3142C129.537 51.5242 129.072 51.6292 128.532 51.6292C128.252 51.6292 127.957 51.5892 127.647 51.5092C127.347 51.4392 127.072 51.3192 126.822 51.1492C126.572 50.9792 126.362 50.7542 126.192 50.4742C126.032 50.1942 125.952 49.8492 125.952 49.4392C125.952 48.8992 126.097 48.4742 126.387 48.1642C126.677 47.8442 127.057 47.6042 127.527 47.4442C127.997 47.2742 128.527 47.1642 129.117 47.1142C129.707 47.0642 130.302 47.0392 130.902 47.0392V46.8442ZM130.557 48.0592C130.207 48.0592 129.842 48.0742 129.462 48.1042C129.092 48.1342 128.752 48.1942 128.442 48.2842C128.142 48.3742 127.892 48.5092 127.692 48.6892C127.492 48.8692 127.392 49.1092 127.392 49.4092C127.392 49.6192 127.432 49.7942 127.512 49.9342C127.602 50.0742 127.717 50.1892 127.857 50.2792C127.997 50.3692 128.152 50.4342 128.322 50.4742C128.492 50.5042 128.667 50.5192 128.847 50.5192C129.507 50.5192 130.012 50.3242 130.362 49.9342C130.722 49.5342 130.902 49.0342 130.902 48.4342V48.0592H130.557ZM134.832 45.8692C134.832 45.6792 134.827 45.4342 134.817 45.1342C134.807 44.8342 134.792 44.5692 134.772 44.3392H136.107C136.127 44.5192 136.142 44.7292 136.152 44.9692C136.162 45.1992 136.167 45.3892 136.167 45.5392H136.212C136.412 45.1192 136.702 44.7842 137.082 44.5342C137.472 44.2742 137.907 44.1442 138.387 44.1442C138.607 44.1442 138.792 44.1642 138.942 44.2042L138.882 45.5092C138.682 45.4592 138.467 45.4342 138.237 45.4342C137.897 45.4342 137.602 45.4992 137.352 45.6292C137.102 45.7492 136.892 45.9142 136.722 46.1242C136.562 46.3342 136.442 46.5792 136.362 46.8592C136.282 47.1292 136.242 47.4142 136.242 47.7142V51.4492H134.832V45.8692ZM141.872 45.5092C142.052 45.1292 142.337 44.8092 142.727 44.5492C143.127 44.2792 143.597 44.1442 144.137 44.1442C144.617 44.1442 145.047 44.2542 145.427 44.4742C145.817 44.6942 146.122 45.0592 146.342 45.5692C146.582 45.1092 146.917 44.7592 147.347 44.5192C147.777 44.2692 148.247 44.1442 148.757 44.1442C149.217 44.1442 149.612 44.2242 149.942 44.3842C150.272 44.5342 150.547 44.7392 150.767 44.9992C150.987 45.2592 151.147 45.5642 151.247 45.9142C151.357 46.2642 151.412 46.6392 151.412 47.0392V51.4492H150.002V47.5042C150.002 47.2142 149.977 46.9392 149.927 46.6792C149.877 46.4192 149.792 46.1892 149.672 45.9892C149.552 45.7892 149.392 45.6292 149.192 45.5092C148.992 45.3892 148.737 45.3292 148.427 45.3292C148.107 45.3292 147.832 45.3992 147.602 45.5392C147.372 45.6692 147.182 45.8442 147.032 46.0642C146.892 46.2742 146.787 46.5142 146.717 46.7842C146.657 47.0542 146.627 47.3292 146.627 47.6092V51.4492H145.217V47.2192C145.217 46.9392 145.192 46.6842 145.142 46.4542C145.092 46.2242 145.007 46.0292 144.887 45.8692C144.767 45.6992 144.612 45.5692 144.422 45.4792C144.232 45.3792 143.997 45.3292 143.717 45.3292C143.197 45.3292 142.762 45.5442 142.412 45.9742C142.072 46.3942 141.902 46.9592 141.902 47.6692V51.4492H140.492V45.8692C140.492 45.6792 140.487 45.4342 140.477 45.1342C140.467 44.8342 140.452 44.5692 140.432 44.3392H141.767C141.787 44.5192 141.802 44.7242 141.812 44.9542C141.822 45.1742 141.827 45.3592 141.827 45.5092H141.872ZM162.972 46.1392C162.822 45.9092 162.597 45.7192 162.297 45.5692C161.997 45.4092 161.677 45.3292 161.337 45.3292C160.967 45.3292 160.637 45.3992 160.347 45.5392C160.067 45.6792 159.827 45.8692 159.627 46.1092C159.427 46.3392 159.272 46.6092 159.162 46.9192C159.062 47.2292 159.012 47.5542 159.012 47.8942C159.012 48.2342 159.062 48.5592 159.162 48.8692C159.272 49.1792 159.427 49.4542 159.627 49.6942C159.827 49.9242 160.072 50.1092 160.362 50.2492C160.652 50.3892 160.982 50.4592 161.352 50.4592C161.712 50.4592 162.037 50.3892 162.327 50.2492C162.627 50.1092 162.872 49.9192 163.062 49.6792L164.007 50.5342C163.707 50.8842 163.332 51.1592 162.882 51.3592C162.432 51.5492 161.922 51.6442 161.352 51.6442C160.802 51.6442 160.292 51.5542 159.822 51.3742C159.362 51.1942 158.962 50.9442 158.622 50.6242C158.282 50.2942 158.012 49.8992 157.812 49.4392C157.622 48.9792 157.527 48.4642 157.527 47.8942C157.527 47.3342 157.622 46.8242 157.812 46.3642C158.002 45.9042 158.267 45.5092 158.607 45.1792C158.947 44.8492 159.347 44.5942 159.807 44.4142C160.277 44.2342 160.782 44.1442 161.322 44.1442C161.822 44.1442 162.317 44.2442 162.807 44.4442C163.307 44.6442 163.702 44.9342 163.992 45.3142L162.972 46.1392ZM172.829 47.8792C172.829 48.4292 172.729 48.9342 172.529 49.3942C172.339 49.8542 172.069 50.2542 171.719 50.5942C171.379 50.9242 170.974 51.1842 170.504 51.3742C170.034 51.5542 169.529 51.6442 168.989 51.6442C168.449 51.6442 167.944 51.5542 167.474 51.3742C167.004 51.1842 166.599 50.9242 166.259 50.5942C165.919 50.2542 165.649 49.8542 165.449 49.3942C165.259 48.9342 165.164 48.4292 165.164 47.8792C165.164 47.3292 165.259 46.8292 165.449 46.3792C165.649 45.9192 165.919 45.5242 166.259 45.1942C166.599 44.8642 167.004 44.6092 167.474 44.4292C167.944 44.2392 168.449 44.1442 168.989 44.1442C169.529 44.1442 170.034 44.2392 170.504 44.4292C170.974 44.6092 171.379 44.8642 171.719 45.1942C172.069 45.5242 172.339 45.9192 172.529 46.3792C172.729 46.8292 172.829 47.3292 172.829 47.8792ZM171.359 47.8792C171.359 47.5392 171.304 47.2142 171.194 46.9042C171.094 46.5942 170.944 46.3242 170.744 46.0942C170.544 45.8542 170.294 45.6642 169.994 45.5242C169.704 45.3842 169.369 45.3142 168.989 45.3142C168.609 45.3142 168.269 45.3842 167.969 45.5242C167.679 45.6642 167.434 45.8542 167.234 46.0942C167.034 46.3242 166.879 46.5942 166.769 46.9042C166.669 47.2142 166.619 47.5392 166.619 47.8792C166.619 48.2192 166.669 48.5442 166.769 48.8542C166.879 49.1642 167.034 49.4392 167.234 49.6792C167.434 49.9192 167.679 50.1092 167.969 50.2492C168.269 50.3892 168.609 50.4592 168.989 50.4592C169.369 50.4592 169.704 50.3892 169.994 50.2492C170.294 50.1092 170.544 49.9192 170.744 49.6792C170.944 49.4392 171.094 49.1642 171.194 48.8542C171.304 48.5442 171.359 48.2192 171.359 47.8792ZM176.45 51.4492H175.04V40.1092H176.45V51.4492ZM186.331 47.8792C186.331 48.4292 186.231 48.9342 186.031 49.3942C185.841 49.8542 185.571 50.2542 185.221 50.5942C184.881 50.9242 184.476 51.1842 184.006 51.3742C183.536 51.5542 183.031 51.6442 182.491 51.6442C181.951 51.6442 181.446 51.5542 180.976 51.3742C180.506 51.1842 180.101 50.9242 179.761 50.5942C179.421 50.2542 179.151 49.8542 178.951 49.3942C178.761 48.9342 178.666 48.4292 178.666 47.8792C178.666 47.3292 178.761 46.8292 178.951 46.3792C179.151 45.9192 179.421 45.5242 179.761 45.1942C180.101 44.8642 180.506 44.6092 180.976 44.4292C181.446 44.2392 181.951 44.1442 182.491 44.1442C183.031 44.1442 183.536 44.2392 184.006 44.4292C184.476 44.6092 184.881 44.8642 185.221 45.1942C185.571 45.5242 185.841 45.9192 186.031 46.3792C186.231 46.8292 186.331 47.3292 186.331 47.8792ZM184.861 47.8792C184.861 47.5392 184.806 47.2142 184.696 46.9042C184.596 46.5942 184.446 46.3242 184.246 46.0942C184.046 45.8542 183.796 45.6642 183.496 45.5242C183.206 45.3842 182.871 45.3142 182.491 45.3142C182.111 45.3142 181.771 45.3842 181.471 45.5242C181.181 45.6642 180.936 45.8542 180.736 46.0942C180.536 46.3242 180.381 46.5942 180.271 46.9042C180.171 47.2142 180.121 47.5392 180.121 47.8792C180.121 48.2192 180.171 48.5442 180.271 48.8542C180.381 49.1642 180.536 49.4392 180.736 49.6792C180.936 49.9192 181.181 50.1092 181.471 50.2492C181.771 50.3892 182.111 50.4592 182.491 50.4592C182.871 50.4592 183.206 50.3892 183.496 50.2492C183.796 50.1092 184.046 49.9192 184.246 49.6792C184.446 49.4392 184.596 49.1642 184.696 48.8542C184.806 48.5442 184.861 48.2192 184.861 47.8792ZM193.521 51.4492C193.501 51.2692 193.486 51.0692 193.476 50.8492C193.466 50.6192 193.461 50.4292 193.461 50.2792H193.431C193.251 50.6592 192.946 50.9842 192.516 51.2542C192.096 51.5142 191.626 51.6442 191.106 51.6442C190.646 51.6442 190.246 51.5692 189.906 51.4192C189.576 51.2692 189.301 51.0642 189.081 50.8042C188.871 50.5342 188.711 50.2242 188.601 49.8742C188.501 49.5242 188.451 49.1492 188.451 48.7492V44.3392H189.861V48.2692C189.861 48.5592 189.881 48.8392 189.921 49.1092C189.971 49.3692 190.056 49.5992 190.176 49.7992C190.296 49.9992 190.461 50.1592 190.671 50.2792C190.881 50.3992 191.151 50.4592 191.481 50.4592C192.051 50.4592 192.511 50.2492 192.861 49.8292C193.211 49.3992 193.386 48.8292 193.386 48.1192V44.3392H194.796V49.9192C194.796 50.1092 194.801 50.3542 194.811 50.6542C194.821 50.9542 194.836 51.2192 194.856 51.4492H193.521ZM197.467 45.8692C197.467 45.6792 197.462 45.4342 197.452 45.1342C197.442 44.8342 197.427 44.5692 197.407 44.3392H198.742C198.762 44.5192 198.777 44.7292 198.787 44.9692C198.797 45.1992 198.802 45.3892 198.802 45.5392H198.847C199.047 45.1192 199.337 44.7842 199.717 44.5342C200.107 44.2742 200.542 44.1442 201.022 44.1442C201.242 44.1442 201.427 44.1642 201.577 44.2042L201.517 45.5092C201.317 45.4592 201.102 45.4342 200.872 45.4342C200.532 45.4342 200.237 45.4992 199.987 45.6292C199.737 45.7492 199.527 45.9142 199.357 46.1242C199.197 46.3342 199.077 46.5792 198.997 46.8592C198.917 47.1292 198.877 47.4142 198.877 47.7142V51.4492H197.467V45.8692ZM53.8089 70.1392C53.6489 69.8792 53.4239 69.6692 53.1339 69.5092C52.8439 69.3392 52.5189 69.2542 52.1589 69.2542C51.9989 69.2542 51.8389 69.2742 51.6789 69.3142C51.5189 69.3442 51.3739 69.3992 51.2439 69.4792C51.1239 69.5492 51.0239 69.6442 50.9439 69.7642C50.8739 69.8742 50.8389 70.0142 50.8389 70.1842C50.8389 70.4842 50.9739 70.7092 51.2439 70.8592C51.5139 70.9992 51.9189 71.1292 52.4589 71.2492C52.7989 71.3292 53.1139 71.4242 53.4039 71.5342C53.6939 71.6442 53.9439 71.7842 54.1539 71.9542C54.3739 72.1142 54.5439 72.3092 54.6639 72.5392C54.7839 72.7692 54.8439 73.0392 54.8439 73.3492C54.8439 73.7692 54.7639 74.1242 54.6039 74.4142C54.4439 74.7042 54.2289 74.9442 53.9589 75.1342C53.6989 75.3142 53.3989 75.4442 53.0589 75.5242C52.7189 75.6042 52.3689 75.6442 52.0089 75.6442C51.4689 75.6442 50.9389 75.5392 50.4189 75.3292C49.9089 75.1192 49.4839 74.7992 49.1439 74.3692L50.1489 73.5142C50.3389 73.7942 50.5989 74.0292 50.9289 74.2192C51.2689 74.4092 51.6389 74.5042 52.0389 74.5042C52.2189 74.5042 52.3889 74.4892 52.5489 74.4592C52.7189 74.4192 52.8689 74.3592 52.9989 74.2792C53.1389 74.1992 53.2489 74.0942 53.3289 73.9642C53.4089 73.8342 53.4489 73.6692 53.4489 73.4692C53.4489 73.1392 53.2889 72.8942 52.9689 72.7342C52.6589 72.5742 52.1989 72.4242 51.5889 72.2842C51.3489 72.2242 51.1039 72.1542 50.8539 72.0742C50.6139 71.9842 50.3939 71.8642 50.1939 71.7142C49.9939 71.5642 49.8289 71.3792 49.6989 71.1592C49.5789 70.9292 49.5189 70.6492 49.5189 70.3192C49.5189 69.9392 49.5939 69.6142 49.7439 69.3442C49.9039 69.0642 50.1089 68.8392 50.3589 68.6692C50.6089 68.4892 50.8939 68.3592 51.2139 68.2792C51.5339 68.1892 51.8639 68.1442 52.2039 68.1442C52.7139 68.1442 53.2039 68.2442 53.6739 68.4442C54.1539 68.6442 54.5239 68.9342 54.7839 69.3142L53.8089 70.1392ZM61.8389 70.1392C61.6889 69.9092 61.4639 69.7192 61.1639 69.5692C60.8639 69.4092 60.5439 69.3292 60.2039 69.3292C59.8339 69.3292 59.5039 69.3992 59.2139 69.5392C58.9339 69.6792 58.6939 69.8692 58.4939 70.1092C58.2939 70.3392 58.1389 70.6092 58.0289 70.9192C57.9289 71.2292 57.8789 71.5542 57.8789 71.8942C57.8789 72.2342 57.9289 72.5592 58.0289 72.8692C58.1389 73.1792 58.2939 73.4542 58.4939 73.6942C58.6939 73.9242 58.9389 74.1092 59.2289 74.2492C59.5189 74.3892 59.8489 74.4592 60.2189 74.4592C60.5789 74.4592 60.9039 74.3892 61.1939 74.2492C61.4939 74.1092 61.7389 73.9192 61.9289 73.6792L62.8739 74.5342C62.5739 74.8842 62.1989 75.1592 61.7489 75.3592C61.2989 75.5492 60.7889 75.6442 60.2189 75.6442C59.6689 75.6442 59.1589 75.5542 58.6889 75.3742C58.2289 75.1942 57.8289 74.9442 57.4889 74.6242C57.1489 74.2942 56.8789 73.8992 56.6789 73.4392C56.4889 72.9792 56.3939 72.4642 56.3939 71.8942C56.3939 71.3342 56.4889 70.8242 56.6789 70.3642C56.8689 69.9042 57.1339 69.5092 57.4739 69.1792C57.8139 68.8492 58.2139 68.5942 58.6739 68.4142C59.1439 68.2342 59.6489 68.1442 60.1889 68.1442C60.6889 68.1442 61.1839 68.2442 61.6739 68.4442C62.1739 68.6442 62.5689 68.9342 62.8589 69.3142L61.8389 70.1392ZM65.9661 69.4192C66.1361 69.0692 66.4261 68.7692 66.8361 68.5192C67.2461 68.2692 67.7061 68.1442 68.2161 68.1442C68.6761 68.1442 69.0711 68.2242 69.4011 68.3842C69.7311 68.5342 70.0061 68.7392 70.2261 68.9992C70.4461 69.2592 70.6061 69.5642 70.7061 69.9142C70.8161 70.2642 70.8711 70.6392 70.8711 71.0392V75.4492H69.4611V71.5192C69.4611 71.2292 69.4361 70.9542 69.3861 70.6942C69.3461 70.4342 69.2661 70.2042 69.1461 70.0042C69.0261 69.8042 68.8611 69.6442 68.6511 69.5242C68.4511 69.4042 68.1861 69.3442 67.8561 69.3442C67.2961 69.3442 66.8361 69.5592 66.4761 69.9892C66.1161 70.4092 65.9361 70.9742 65.9361 71.6842V75.4492H64.5261V64.1092H65.9361V69.4192H65.9661ZM78.6858 71.2642C78.6758 70.9842 78.6258 70.7242 78.5358 70.4842C78.4558 70.2342 78.3308 70.0192 78.1608 69.8392C78.0008 69.6592 77.7958 69.5192 77.5458 69.4192C77.3058 69.3092 77.0208 69.2542 76.6908 69.2542C76.3908 69.2542 76.1058 69.3092 75.8358 69.4192C75.5758 69.5192 75.3458 69.6592 75.1458 69.8392C74.9558 70.0192 74.7958 70.2342 74.6658 70.4842C74.5458 70.7242 74.4758 70.9842 74.4558 71.2642H78.6858ZM80.1108 71.8342C80.1108 71.9142 80.1108 71.9942 80.1108 72.0742C80.1108 72.1542 80.1058 72.2342 80.0958 72.3142H74.4558C74.4658 72.6142 74.5308 72.8992 74.6508 73.1692C74.7808 73.4292 74.9508 73.6592 75.1608 73.8592C75.3708 74.0492 75.6108 74.1992 75.8808 74.3092C76.1608 74.4192 76.4558 74.4742 76.7658 74.4742C77.2458 74.4742 77.6608 74.3692 78.0108 74.1592C78.3608 73.9492 78.6358 73.6942 78.8358 73.3942L79.8258 74.1892C79.4458 74.6892 78.9958 75.0592 78.4758 75.2992C77.9658 75.5292 77.3958 75.6442 76.7658 75.6442C76.2258 75.6442 75.7258 75.5542 75.2658 75.3742C74.8058 75.1942 74.4108 74.9442 74.0808 74.6242C73.7508 74.2942 73.4908 73.8992 73.3008 73.4392C73.1108 72.9792 73.0158 72.4692 73.0158 71.9092C73.0158 71.3592 73.1058 70.8542 73.2858 70.3942C73.4758 69.9242 73.7358 69.5242 74.0658 69.1942C74.3958 68.8642 74.7858 68.6092 75.2358 68.4292C75.6858 68.2392 76.1708 68.1442 76.6908 68.1442C77.2108 68.1442 77.6808 68.2292 78.1008 68.3992C78.5308 68.5692 78.8908 68.8142 79.1808 69.1342C79.4808 69.4542 79.7108 69.8442 79.8708 70.3042C80.0308 70.7542 80.1108 71.2642 80.1108 71.8342ZM83.6845 69.5092C83.8645 69.1292 84.1495 68.8092 84.5395 68.5492C84.9395 68.2792 85.4095 68.1442 85.9495 68.1442C86.4295 68.1442 86.8595 68.2542 87.2395 68.4742C87.6295 68.6942 87.9345 69.0592 88.1545 69.5692C88.3945 69.1092 88.7295 68.7592 89.1595 68.5192C89.5895 68.2692 90.0595 68.1442 90.5695 68.1442C91.0295 68.1442 91.4245 68.2242 91.7545 68.3842C92.0845 68.5342 92.3595 68.7392 92.5795 68.9992C92.7995 69.2592 92.9595 69.5642 93.0595 69.9142C93.1695 70.2642 93.2245 70.6392 93.2245 71.0392V75.4492H91.8145V71.5042C91.8145 71.2142 91.7895 70.9392 91.7395 70.6792C91.6895 70.4192 91.6045 70.1892 91.4845 69.9892C91.3645 69.7892 91.2045 69.6292 91.0045 69.5092C90.8045 69.3892 90.5495 69.3292 90.2395 69.3292C89.9195 69.3292 89.6445 69.3992 89.4145 69.5392C89.1845 69.6692 88.9945 69.8442 88.8445 70.0642C88.7045 70.2742 88.5995 70.5142 88.5295 70.7842C88.4695 71.0542 88.4395 71.3292 88.4395 71.6092V75.4492H87.0295V71.2192C87.0295 70.9392 87.0045 70.6842 86.9545 70.4542C86.9045 70.2242 86.8195 70.0292 86.6995 69.8692C86.5795 69.6992 86.4245 69.5692 86.2345 69.4792C86.0445 69.3792 85.8095 69.3292 85.5295 69.3292C85.0095 69.3292 84.5745 69.5442 84.2245 69.9742C83.8845 70.3942 83.7145 70.9592 83.7145 71.6692V75.4492H82.3045V69.8692C82.3045 69.6792 82.2995 69.4342 82.2895 69.1342C82.2795 68.8342 82.2645 68.5692 82.2445 68.3392H83.5795C83.5995 68.5192 83.6145 68.7242 83.6245 68.9542C83.6345 69.1742 83.6395 69.3592 83.6395 69.5092H83.6845ZM101.035 71.2642C101.025 70.9842 100.975 70.7242 100.885 70.4842C100.805 70.2342 100.68 70.0192 100.51 69.8392C100.35 69.6592 100.145 69.5192 99.8952 69.4192C99.6552 69.3092 99.3702 69.2542 99.0402 69.2542C98.7402 69.2542 98.4552 69.3092 98.1852 69.4192C97.9252 69.5192 97.6952 69.6592 97.4952 69.8392C97.3052 70.0192 97.1452 70.2342 97.0152 70.4842C96.8952 70.7242 96.8252 70.9842 96.8052 71.2642H101.035ZM102.46 71.8342C102.46 71.9142 102.46 71.9942 102.46 72.0742C102.46 72.1542 102.455 72.2342 102.445 72.3142H96.8052C96.8152 72.6142 96.8802 72.8992 97.0002 73.1692C97.1302 73.4292 97.3002 73.6592 97.5102 73.8592C97.7202 74.0492 97.9602 74.1992 98.2302 74.3092C98.5102 74.4192 98.8052 74.4742 99.1152 74.4742C99.5952 74.4742 100.01 74.3692 100.36 74.1592C100.71 73.9492 100.985 73.6942 101.185 73.3942L102.175 74.1892C101.795 74.6892 101.345 75.0592 100.825 75.2992C100.315 75.5292 99.7452 75.6442 99.1152 75.6442C98.5752 75.6442 98.0752 75.5542 97.6152 75.3742C97.1552 75.1942 96.7602 74.9442 96.4302 74.6242C96.1002 74.2942 95.8402 73.8992 95.6502 73.4392C95.4602 72.9792 95.3652 72.4692 95.3652 71.9092C95.3652 71.3592 95.4552 70.8542 95.6352 70.3942C95.8252 69.9242 96.0852 69.5242 96.4152 69.1942C96.7452 68.8642 97.1352 68.6092 97.5852 68.4292C98.0352 68.2392 98.5202 68.1442 99.0402 68.1442C99.5602 68.1442 100.03 68.2292 100.45 68.3992C100.88 68.5692 101.24 68.8142 101.53 69.1342C101.83 69.4542 102.06 69.8442 102.22 70.3042C102.38 70.7542 102.46 71.2642 102.46 71.8342ZM108.494 70.1392C108.334 69.8792 108.109 69.6692 107.819 69.5092C107.529 69.3392 107.204 69.2542 106.844 69.2542C106.684 69.2542 106.524 69.2742 106.364 69.3142C106.204 69.3442 106.059 69.3992 105.929 69.4792C105.809 69.5492 105.709 69.6442 105.629 69.7642C105.559 69.8742 105.524 70.0142 105.524 70.1842C105.524 70.4842 105.659 70.7092 105.929 70.8592C106.199 70.9992 106.604 71.1292 107.144 71.2492C107.484 71.3292 107.799 71.4242 108.089 71.5342C108.379 71.6442 108.629 71.7842 108.839 71.9542C109.059 72.1142 109.229 72.3092 109.349 72.5392C109.469 72.7692 109.529 73.0392 109.529 73.3492C109.529 73.7692 109.449 74.1242 109.289 74.4142C109.129 74.7042 108.914 74.9442 108.644 75.1342C108.384 75.3142 108.084 75.4442 107.744 75.5242C107.404 75.6042 107.054 75.6442 106.694 75.6442C106.154 75.6442 105.624 75.5392 105.104 75.3292C104.594 75.1192 104.169 74.7992 103.829 74.3692L104.834 73.5142C105.024 73.7942 105.284 74.0292 105.614 74.2192C105.954 74.4092 106.324 74.5042 106.724 74.5042C106.904 74.5042 107.074 74.4892 107.234 74.4592C107.404 74.4192 107.554 74.3592 107.684 74.2792C107.824 74.1992 107.934 74.0942 108.014 73.9642C108.094 73.8342 108.134 73.6692 108.134 73.4692C108.134 73.1392 107.974 72.8942 107.654 72.7342C107.344 72.5742 106.884 72.4242 106.274 72.2842C106.034 72.2242 105.789 72.1542 105.539 72.0742C105.299 71.9842 105.079 71.8642 104.879 71.7142C104.679 71.5642 104.514 71.3792 104.384 71.1592C104.264 70.9292 104.204 70.6492 104.204 70.3192C104.204 69.9392 104.279 69.6142 104.429 69.3442C104.589 69.0642 104.794 68.8392 105.044 68.6692C105.294 68.4892 105.579 68.3592 105.899 68.2792C106.219 68.1892 106.549 68.1442 106.889 68.1442C107.399 68.1442 107.889 68.2442 108.359 68.4442C108.839 68.6442 109.209 68.9342 109.469 69.3142L108.494 70.1392ZM119.944 70.8442C119.944 70.3142 119.784 69.9242 119.464 69.6742C119.144 69.4142 118.719 69.2842 118.189 69.2842C117.789 69.2842 117.409 69.3642 117.049 69.5242C116.699 69.6742 116.404 69.8692 116.164 70.1092L115.414 69.2092C115.764 68.8792 116.189 68.6192 116.689 68.4292C117.199 68.2392 117.744 68.1442 118.324 68.1442C118.834 68.1442 119.274 68.2192 119.644 68.3692C120.024 68.5092 120.334 68.7042 120.574 68.9542C120.814 69.2042 120.994 69.4992 121.114 69.8392C121.234 70.1792 121.294 70.5442 121.294 70.9342V74.0392C121.294 74.2792 121.299 74.5342 121.309 74.8042C121.329 75.0642 121.359 75.2792 121.399 75.4492H120.124C120.044 75.1092 120.004 74.7692 120.004 74.4292H119.959C119.699 74.8092 119.369 75.1042 118.969 75.3142C118.579 75.5242 118.114 75.6292 117.574 75.6292C117.294 75.6292 116.999 75.5892 116.689 75.5092C116.389 75.4392 116.114 75.3192 115.864 75.1492C115.614 74.9792 115.404 74.7542 115.234 74.4742C115.074 74.1942 114.994 73.8492 114.994 73.4392C114.994 72.8992 115.139 72.4742 115.429 72.1642C115.719 71.8442 116.099 71.6042 116.569 71.4442C117.039 71.2742 117.569 71.1642 118.159 71.1142C118.749 71.0642 119.344 71.0392 119.944 71.0392V70.8442ZM119.599 72.0592C119.249 72.0592 118.884 72.0742 118.504 72.1042C118.134 72.1342 117.794 72.1942 117.484 72.2842C117.184 72.3742 116.934 72.5092 116.734 72.6892C116.534 72.8692 116.434 73.1092 116.434 73.4092C116.434 73.6192 116.474 73.7942 116.554 73.9342C116.644 74.0742 116.759 74.1892 116.899 74.2792C117.039 74.3692 117.194 74.4342 117.364 74.4742C117.534 74.5042 117.709 74.5192 117.889 74.5192C118.549 74.5192 119.054 74.3242 119.404 73.9342C119.764 73.5342 119.944 73.0342 119.944 72.4342V72.0592H119.599ZM125.149 68.3392C125.169 68.5192 125.184 68.7242 125.194 68.9542C125.204 69.1742 125.209 69.3592 125.209 69.5092H125.254C125.344 69.3192 125.464 69.1442 125.614 68.9842C125.774 68.8142 125.954 68.6692 126.154 68.5492C126.354 68.4192 126.574 68.3192 126.814 68.2492C127.054 68.1792 127.304 68.1442 127.564 68.1442C128.024 68.1442 128.419 68.2242 128.749 68.3842C129.079 68.5342 129.354 68.7392 129.574 68.9992C129.794 69.2592 129.954 69.5642 130.054 69.9142C130.164 70.2642 130.219 70.6392 130.219 71.0392V75.4492H128.809V71.5042C128.809 71.2142 128.784 70.9392 128.734 70.6792C128.694 70.4192 128.614 70.1892 128.494 69.9892C128.374 69.7892 128.209 69.6292 127.999 69.5092C127.789 69.3892 127.519 69.3292 127.189 69.3292C126.629 69.3292 126.169 69.5442 125.809 69.9742C125.459 70.3942 125.284 70.9592 125.284 71.6692V75.4492H123.874V69.8692C123.874 69.6792 123.869 69.4342 123.859 69.1342C123.849 68.8342 123.834 68.5692 123.814 68.3392H125.149ZM138.499 74.3242C138.229 74.7542 137.859 75.0842 137.389 75.3142C136.929 75.5342 136.444 75.6442 135.934 75.6442C135.384 75.6442 134.889 75.5492 134.449 75.3592C134.009 75.1592 133.634 74.8892 133.324 74.5492C133.014 74.2092 132.774 73.8092 132.604 73.3492C132.434 72.8892 132.349 72.3992 132.349 71.8792C132.349 71.3592 132.434 70.8742 132.604 70.4242C132.774 69.9642 133.014 69.5642 133.324 69.2242C133.644 68.8842 134.024 68.6192 134.464 68.4292C134.904 68.2392 135.389 68.1442 135.919 68.1442C136.499 68.1442 137.004 68.2692 137.434 68.5192C137.864 68.7592 138.204 69.0542 138.454 69.4042H138.484V64.1092H139.894V75.4492H138.529V74.3242H138.499ZM133.819 71.8792C133.819 72.2092 133.869 72.5292 133.969 72.8392C134.069 73.1492 134.219 73.4242 134.419 73.6642C134.619 73.9042 134.864 74.0992 135.154 74.2492C135.444 74.3892 135.784 74.4592 136.174 74.4592C136.534 74.4592 136.859 74.3892 137.149 74.2492C137.449 74.1092 137.704 73.9242 137.914 73.6942C138.124 73.4542 138.284 73.1792 138.394 72.8692C138.514 72.5592 138.574 72.2342 138.574 71.8942C138.574 71.5542 138.514 71.2292 138.394 70.9192C138.284 70.6092 138.124 70.3342 137.914 70.0942C137.704 69.8542 137.449 69.6642 137.149 69.5242C136.859 69.3842 136.534 69.3142 136.174 69.3142C135.784 69.3142 135.444 69.3842 135.154 69.5242C134.864 69.6642 134.619 69.8542 134.419 70.0942C134.219 70.3342 134.069 70.6092 133.969 70.9192C133.869 71.2292 133.819 71.5492 133.819 71.8792ZM147.931 69.5092C148.111 69.1292 148.396 68.8092 148.786 68.5492C149.186 68.2792 149.656 68.1442 150.196 68.1442C150.676 68.1442 151.106 68.2542 151.486 68.4742C151.876 68.6942 152.181 69.0592 152.401 69.5692C152.641 69.1092 152.976 68.7592 153.406 68.5192C153.836 68.2692 154.306 68.1442 154.816 68.1442C155.276 68.1442 155.671 68.2242 156.001 68.3842C156.331 68.5342 156.606 68.7392 156.826 68.9992C157.046 69.2592 157.206 69.5642 157.306 69.9142C157.416 70.2642 157.471 70.6392 157.471 71.0392V75.4492H156.061V71.5042C156.061 71.2142 156.036 70.9392 155.986 70.6792C155.936 70.4192 155.851 70.1892 155.731 69.9892C155.611 69.7892 155.451 69.6292 155.251 69.5092C155.051 69.3892 154.796 69.3292 154.486 69.3292C154.166 69.3292 153.891 69.3992 153.661 69.5392C153.431 69.6692 153.241 69.8442 153.091 70.0642C152.951 70.2742 152.846 70.5142 152.776 70.7842C152.716 71.0542 152.686 71.3292 152.686 71.6092V75.4492H151.276V71.2192C151.276 70.9392 151.251 70.6842 151.201 70.4542C151.151 70.2242 151.066 70.0292 150.946 69.8692C150.826 69.6992 150.671 69.5692 150.481 69.4792C150.291 69.3792 150.056 69.3292 149.776 69.3292C149.256 69.3292 148.821 69.5442 148.471 69.9742C148.131 70.3942 147.961 70.9592 147.961 71.6692V75.4492H146.551V69.8692C146.551 69.6792 146.546 69.4342 146.536 69.1342C146.526 68.8342 146.511 68.5692 146.491 68.3392H147.826C147.846 68.5192 147.861 68.7242 147.871 68.9542C147.881 69.1742 147.886 69.3592 147.886 69.5092H147.931ZM164.502 70.8442C164.502 70.3142 164.342 69.9242 164.022 69.6742C163.702 69.4142 163.277 69.2842 162.747 69.2842C162.347 69.2842 161.967 69.3642 161.607 69.5242C161.257 69.6742 160.962 69.8692 160.722 70.1092L159.972 69.2092C160.322 68.8792 160.747 68.6192 161.247 68.4292C161.757 68.2392 162.302 68.1442 162.882 68.1442C163.392 68.1442 163.832 68.2192 164.202 68.3692C164.582 68.5092 164.892 68.7042 165.132 68.9542C165.372 69.2042 165.552 69.4992 165.672 69.8392C165.792 70.1792 165.852 70.5442 165.852 70.9342V74.0392C165.852 74.2792 165.857 74.5342 165.867 74.8042C165.887 75.0642 165.917 75.2792 165.957 75.4492H164.682C164.602 75.1092 164.562 74.7692 164.562 74.4292H164.517C164.257 74.8092 163.927 75.1042 163.527 75.3142C163.137 75.5242 162.672 75.6292 162.132 75.6292C161.852 75.6292 161.557 75.5892 161.247 75.5092C160.947 75.4392 160.672 75.3192 160.422 75.1492C160.172 74.9792 159.962 74.7542 159.792 74.4742C159.632 74.1942 159.552 73.8492 159.552 73.4392C159.552 72.8992 159.697 72.4742 159.987 72.1642C160.277 71.8442 160.657 71.6042 161.127 71.4442C161.597 71.2742 162.127 71.1642 162.717 71.1142C163.307 71.0642 163.902 71.0392 164.502 71.0392V70.8442ZM164.157 72.0592C163.807 72.0592 163.442 72.0742 163.062 72.1042C162.692 72.1342 162.352 72.1942 162.042 72.2842C161.742 72.3742 161.492 72.5092 161.292 72.6892C161.092 72.8692 160.992 73.1092 160.992 73.4092C160.992 73.6192 161.032 73.7942 161.112 73.9342C161.202 74.0742 161.317 74.1892 161.457 74.2792C161.597 74.3692 161.752 74.4342 161.922 74.4742C162.092 74.5042 162.267 74.5192 162.447 74.5192C163.107 74.5192 163.612 74.3242 163.962 73.9342C164.322 73.5342 164.502 73.0342 164.502 72.4342V72.0592H164.157ZM169.871 71.4292H169.916L172.901 68.3392H174.791L171.461 71.5642L175.076 75.4492H173.126L169.916 71.7592H169.871V75.4492H168.461V64.1092H169.871V71.4292ZM181.508 71.2642C181.498 70.9842 181.448 70.7242 181.358 70.4842C181.278 70.2342 181.153 70.0192 180.983 69.8392C180.823 69.6592 180.618 69.5192 180.368 69.4192C180.128 69.3092 179.843 69.2542 179.513 69.2542C179.213 69.2542 178.928 69.3092 178.658 69.4192C178.398 69.5192 178.168 69.6592 177.968 69.8392C177.778 70.0192 177.618 70.2342 177.488 70.4842C177.368 70.7242 177.298 70.9842 177.278 71.2642H181.508ZM182.933 71.8342C182.933 71.9142 182.933 71.9942 182.933 72.0742C182.933 72.1542 182.928 72.2342 182.918 72.3142H177.278C177.288 72.6142 177.353 72.8992 177.473 73.1692C177.603 73.4292 177.773 73.6592 177.983 73.8592C178.193 74.0492 178.433 74.1992 178.703 74.3092C178.983 74.4192 179.278 74.4742 179.588 74.4742C180.068 74.4742 180.483 74.3692 180.833 74.1592C181.183 73.9492 181.458 73.6942 181.658 73.3942L182.648 74.1892C182.268 74.6892 181.818 75.0592 181.298 75.2992C180.788 75.5292 180.218 75.6442 179.588 75.6442C179.048 75.6442 178.548 75.5542 178.088 75.3742C177.628 75.1942 177.233 74.9442 176.903 74.6242C176.573 74.2942 176.313 73.8992 176.123 73.4392C175.933 72.9792 175.838 72.4692 175.838 71.9092C175.838 71.3592 175.928 70.8542 176.108 70.3942C176.298 69.9242 176.558 69.5242 176.888 69.1942C177.218 68.8642 177.608 68.6092 178.058 68.4292C178.508 68.2392 178.993 68.1442 179.513 68.1442C180.033 68.1442 180.503 68.2292 180.923 68.3992C181.353 68.5692 181.713 68.8142 182.003 69.1342C182.303 69.4542 182.533 69.8442 182.693 70.3042C182.853 70.7542 182.933 71.2642 182.933 71.8342ZM192.582 69.4942H190.692V73.1992C190.692 73.6292 190.772 73.9392 190.932 74.1292C191.092 74.3092 191.347 74.3992 191.697 74.3992C191.827 74.3992 191.967 74.3842 192.117 74.3542C192.267 74.3242 192.402 74.2792 192.522 74.2192L192.567 75.3742C192.397 75.4342 192.207 75.4792 191.997 75.5092C191.797 75.5492 191.587 75.5692 191.367 75.5692C190.697 75.5692 190.182 75.3842 189.822 75.0142C189.472 74.6442 189.297 74.0892 189.297 73.3492V69.4942H187.932V68.3392H189.297V66.2992H190.692V68.3392H192.582V69.4942ZM195.733 69.4192C195.903 69.0692 196.193 68.7692 196.603 68.5192C197.013 68.2692 197.473 68.1442 197.983 68.1442C198.443 68.1442 198.838 68.2242 199.168 68.3842C199.498 68.5342 199.773 68.7392 199.993 68.9992C200.213 69.2592 200.373 69.5642 200.473 69.9142C200.583 70.2642 200.638 70.6392 200.638 71.0392V75.4492H199.228V71.5192C199.228 71.2292 199.203 70.9542 199.153 70.6942C199.113 70.4342 199.033 70.2042 198.913 70.0042C198.793 69.8042 198.628 69.6442 198.418 69.5242C198.218 69.4042 197.953 69.3442 197.623 69.3442C197.063 69.3442 196.603 69.5592 196.243 69.9892C195.883 70.4092 195.703 70.9742 195.703 71.6842V75.4492H194.293V64.1092H195.703V69.4192H195.733ZM204.673 75.4492H203.263V68.3392H204.673V75.4492ZM204.913 65.7742C204.913 66.0342 204.818 66.2492 204.628 66.4192C204.448 66.5892 204.228 66.6742 203.968 66.6742C203.708 66.6742 203.488 66.5892 203.308 66.4192C203.128 66.2392 203.038 66.0242 203.038 65.7742C203.038 65.5142 203.128 65.2992 203.308 65.1292C203.488 64.9492 203.708 64.8592 203.968 64.8592C204.228 64.8592 204.448 64.9492 204.628 65.1292C204.818 65.2992 204.913 65.5142 204.913 65.7742ZM211.195 70.1392C211.035 69.8792 210.81 69.6692 210.52 69.5092C210.23 69.3392 209.905 69.2542 209.545 69.2542C209.385 69.2542 209.225 69.2742 209.065 69.3142C208.905 69.3442 208.76 69.3992 208.63 69.4792C208.51 69.5492 208.41 69.6442 208.33 69.7642C208.26 69.8742 208.225 70.0142 208.225 70.1842C208.225 70.4842 208.36 70.7092 208.63 70.8592C208.9 70.9992 209.305 71.1292 209.845 71.2492C210.185 71.3292 210.5 71.4242 210.79 71.5342C211.08 71.6442 211.33 71.7842 211.54 71.9542C211.76 72.1142 211.93 72.3092 212.05 72.5392C212.17 72.7692 212.23 73.0392 212.23 73.3492C212.23 73.7692 212.15 74.1242 211.99 74.4142C211.83 74.7042 211.615 74.9442 211.345 75.1342C211.085 75.3142 210.785 75.4442 210.445 75.5242C210.105 75.6042 209.755 75.6442 209.395 75.6442C208.855 75.6442 208.325 75.5392 207.805 75.3292C207.295 75.1192 206.87 74.7992 206.53 74.3692L207.535 73.5142C207.725 73.7942 207.985 74.0292 208.315 74.2192C208.655 74.4092 209.025 74.5042 209.425 74.5042C209.605 74.5042 209.775 74.4892 209.935 74.4592C210.105 74.4192 210.255 74.3592 210.385 74.2792C210.525 74.1992 210.635 74.0942 210.715 73.9642C210.795 73.8342 210.835 73.6692 210.835 73.4692C210.835 73.1392 210.675 72.8942 210.355 72.7342C210.045 72.5742 209.585 72.4242 208.975 72.2842C208.735 72.2242 208.49 72.1542 208.24 72.0742C208 71.9842 207.78 71.8642 207.58 71.7142C207.38 71.5642 207.215 71.3792 207.085 71.1592C206.965 70.9292 206.905 70.6492 206.905 70.3192C206.905 69.9392 206.98 69.6142 207.13 69.3442C207.29 69.0642 207.495 68.8392 207.745 68.6692C207.995 68.4892 208.28 68.3592 208.6 68.2792C208.92 68.1892 209.25 68.1442 209.59 68.1442C210.1 68.1442 210.59 68.2442 211.06 68.4442C211.54 68.6442 211.91 68.9342 212.17 69.3142L211.195 70.1392ZM222.06 70.1392C221.9 69.8792 221.675 69.6692 221.385 69.5092C221.095 69.3392 220.77 69.2542 220.41 69.2542C220.25 69.2542 220.09 69.2742 219.93 69.3142C219.77 69.3442 219.625 69.3992 219.495 69.4792C219.375 69.5492 219.275 69.6442 219.195 69.7642C219.125 69.8742 219.09 70.0142 219.09 70.1842C219.09 70.4842 219.225 70.7092 219.495 70.8592C219.765 70.9992 220.17 71.1292 220.71 71.2492C221.05 71.3292 221.365 71.4242 221.655 71.5342C221.945 71.6442 222.195 71.7842 222.405 71.9542C222.625 72.1142 222.795 72.3092 222.915 72.5392C223.035 72.7692 223.095 73.0392 223.095 73.3492C223.095 73.7692 223.015 74.1242 222.855 74.4142C222.695 74.7042 222.48 74.9442 222.21 75.1342C221.95 75.3142 221.65 75.4442 221.31 75.5242C220.97 75.6042 220.62 75.6442 220.26 75.6442C219.72 75.6442 219.19 75.5392 218.67 75.3292C218.16 75.1192 217.735 74.7992 217.395 74.3692L218.4 73.5142C218.59 73.7942 218.85 74.0292 219.18 74.2192C219.52 74.4092 219.89 74.5042 220.29 74.5042C220.47 74.5042 220.64 74.4892 220.8 74.4592C220.97 74.4192 221.12 74.3592 221.25 74.2792C221.39 74.1992 221.5 74.0942 221.58 73.9642C221.66 73.8342 221.7 73.6692 221.7 73.4692C221.7 73.1392 221.54 72.8942 221.22 72.7342C220.91 72.5742 220.45 72.4242 219.84 72.2842C219.6 72.2242 219.355 72.1542 219.105 72.0742C218.865 71.9842 218.645 71.8642 218.445 71.7142C218.245 71.5642 218.08 71.3792 217.95 71.1592C217.83 70.9292 217.77 70.6492 217.77 70.3192C217.77 69.9392 217.845 69.6142 217.995 69.3442C218.155 69.0642 218.36 68.8392 218.61 68.6692C218.86 68.4892 219.145 68.3592 219.465 68.2792C219.785 68.1892 220.115 68.1442 220.455 68.1442C220.965 68.1442 221.455 68.2442 221.925 68.4442C222.405 68.6442 222.775 68.9342 223.035 69.3142L222.06 70.1392ZM226.58 69.4192C226.75 69.0692 227.04 68.7692 227.45 68.5192C227.86 68.2692 228.32 68.1442 228.83 68.1442C229.29 68.1442 229.685 68.2242 230.015 68.3842C230.345 68.5342 230.62 68.7392 230.84 68.9992C231.06 69.2592 231.22 69.5642 231.32 69.9142C231.43 70.2642 231.485 70.6392 231.485 71.0392V75.4492H230.075V71.5192C230.075 71.2292 230.05 70.9542 230 70.6942C229.96 70.4342 229.88 70.2042 229.76 70.0042C229.64 69.8042 229.475 69.6442 229.265 69.5242C229.065 69.4042 228.8 69.3442 228.47 69.3442C227.91 69.3442 227.45 69.5592 227.09 69.9892C226.73 70.4092 226.55 70.9742 226.55 71.6842V75.4492H225.14V64.1092H226.55V69.4192H226.58ZM241.294 71.8792C241.294 72.4292 241.194 72.9342 240.994 73.3942C240.804 73.8542 240.534 74.2542 240.184 74.5942C239.844 74.9242 239.439 75.1842 238.969 75.3742C238.499 75.5542 237.994 75.6442 237.454 75.6442C236.914 75.6442 236.409 75.5542 235.939 75.3742C235.469 75.1842 235.064 74.9242 234.724 74.5942C234.384 74.2542 234.114 73.8542 233.914 73.3942C233.724 72.9342 233.629 72.4292 233.629 71.8792C233.629 71.3292 233.724 70.8292 233.914 70.3792C234.114 69.9192 234.384 69.5242 234.724 69.1942C235.064 68.8642 235.469 68.6092 235.939 68.4292C236.409 68.2392 236.914 68.1442 237.454 68.1442C237.994 68.1442 238.499 68.2392 238.969 68.4292C239.439 68.6092 239.844 68.8642 240.184 69.1942C240.534 69.5242 240.804 69.9192 240.994 70.3792C241.194 70.8292 241.294 71.3292 241.294 71.8792ZM239.824 71.8792C239.824 71.5392 239.769 71.2142 239.659 70.9042C239.559 70.5942 239.409 70.3242 239.209 70.0942C239.009 69.8542 238.759 69.6642 238.459 69.5242C238.169 69.3842 237.834 69.3142 237.454 69.3142C237.074 69.3142 236.734 69.3842 236.434 69.5242C236.144 69.6642 235.899 69.8542 235.699 70.0942C235.499 70.3242 235.344 70.5942 235.234 70.9042C235.134 71.2142 235.084 71.5392 235.084 71.8792C235.084 72.2192 235.134 72.5442 235.234 72.8542C235.344 73.1642 235.499 73.4392 235.699 73.6792C235.899 73.9192 236.144 74.1092 236.434 74.2492C236.734 74.3892 237.074 74.4592 237.454 74.4592C237.834 74.4592 238.169 74.3892 238.459 74.2492C238.759 74.1092 239.009 73.9192 239.209 73.6792C239.409 73.4392 239.559 73.1642 239.659 72.8542C239.769 72.5442 239.824 72.2192 239.824 71.8792ZM246.955 69.4942H245.065V73.1992C245.065 73.6292 245.145 73.9392 245.305 74.1292C245.465 74.3092 245.72 74.3992 246.07 74.3992C246.2 74.3992 246.34 74.3842 246.49 74.3542C246.64 74.3242 246.775 74.2792 246.895 74.2192L246.94 75.3742C246.77 75.4342 246.58 75.4792 246.37 75.5092C246.17 75.5492 245.96 75.5692 245.74 75.5692C245.07 75.5692 244.555 75.3842 244.195 75.0142C243.845 74.6442 243.67 74.0892 243.67 73.3492V69.4942H242.305V68.3392H243.67V66.2992H245.065V68.3392H246.955V69.4942ZM54.9489 94.1392C54.7989 93.9092 54.5739 93.7192 54.2739 93.5692C53.9739 93.4092 53.6539 93.3292 53.3139 93.3292C52.9439 93.3292 52.6139 93.3992 52.3239 93.5392C52.0439 93.6792 51.8039 93.8692 51.6039 94.1092C51.4039 94.3392 51.2489 94.6092 51.1389 94.9192C51.0389 95.2292 50.9889 95.5542 50.9889 95.8942C50.9889 96.2342 51.0389 96.5592 51.1389 96.8692C51.2489 97.1792 51.4039 97.4542 51.6039 97.6942C51.8039 97.9242 52.0489 98.1092 52.3389 98.2492C52.6289 98.3892 52.9589 98.4592 53.3289 98.4592C53.6889 98.4592 54.0139 98.3892 54.3039 98.2492C54.6039 98.1092 54.8489 97.9192 55.0389 97.6792L55.9839 98.5342C55.6839 98.8842 55.3089 99.1592 54.8589 99.3592C54.4089 99.5492 53.8989 99.6442 53.3289 99.6442C52.7789 99.6442 52.2689 99.5542 51.7989 99.3742C51.3389 99.1942 50.9389 98.9442 50.5989 98.6242C50.2589 98.2942 49.9889 97.8992 49.7889 97.4392C49.5989 96.9792 49.5039 96.4642 49.5039 95.8942C49.5039 95.3342 49.5989 94.8242 49.7889 94.3642C49.9789 93.9042 50.2439 93.5092 50.5839 93.1792C50.9239 92.8492 51.3239 92.5942 51.7839 92.4142C52.2539 92.2342 52.7589 92.1442 53.2989 92.1442C53.7989 92.1442 54.2939 92.2442 54.7839 92.4442C55.2839 92.6442 55.6789 92.9342 55.9689 93.3142L54.9489 94.1392ZM59.031 99.4492H57.621V92.3392H59.031V99.4492ZM59.271 89.7742C59.271 90.0342 59.176 90.2492 58.986 90.4192C58.806 90.5892 58.586 90.6742 58.326 90.6742C58.066 90.6742 57.846 90.5892 57.666 90.4192C57.486 90.2392 57.396 90.0242 57.396 89.7742C57.396 89.5142 57.486 89.2992 57.666 89.1292C57.846 88.9492 58.066 88.8592 58.326 88.8592C58.586 88.8592 58.806 88.9492 58.986 89.1292C59.176 89.2992 59.271 89.5142 59.271 89.7742ZM62.9879 92.3392C63.0079 92.5192 63.0229 92.7242 63.0329 92.9542C63.0429 93.1742 63.0479 93.3592 63.0479 93.5092H63.0929C63.1829 93.3192 63.3029 93.1442 63.4529 92.9842C63.6129 92.8142 63.7929 92.6692 63.9929 92.5492C64.1929 92.4192 64.4129 92.3192 64.6529 92.2492C64.8929 92.1792 65.1429 92.1442 65.4029 92.1442C65.8629 92.1442 66.2579 92.2242 66.5879 92.3842C66.9179 92.5342 67.1929 92.7392 67.4129 92.9992C67.6329 93.2592 67.7929 93.5642 67.8929 93.9142C68.0029 94.2642 68.0579 94.6392 68.0579 95.0392V99.4492H66.6479V95.5042C66.6479 95.2142 66.6229 94.9392 66.5729 94.6792C66.5329 94.4192 66.4529 94.1892 66.3329 93.9892C66.2129 93.7892 66.0479 93.6292 65.8379 93.5092C65.6279 93.3892 65.3579 93.3292 65.0279 93.3292C64.4679 93.3292 64.0079 93.5442 63.6479 93.9742C63.2979 94.3942 63.1229 94.9592 63.1229 95.6692V99.4492H61.7129V93.8692C61.7129 93.6792 61.7079 93.4342 61.6979 93.1342C61.6879 92.8342 61.6729 92.5692 61.6529 92.3392H62.9879ZM75.8733 95.2642C75.8633 94.9842 75.8133 94.7242 75.7233 94.4842C75.6433 94.2342 75.5183 94.0192 75.3483 93.8392C75.1883 93.6592 74.9833 93.5192 74.7333 93.4192C74.4933 93.3092 74.2083 93.2542 73.8783 93.2542C73.5783 93.2542 73.2933 93.3092 73.0233 93.4192C72.7633 93.5192 72.5333 93.6592 72.3333 93.8392C72.1433 94.0192 71.9833 94.2342 71.8533 94.4842C71.7333 94.7242 71.6633 94.9842 71.6433 95.2642H75.8733ZM77.2983 95.8342C77.2983 95.9142 77.2983 95.9942 77.2983 96.0742C77.2983 96.1542 77.2933 96.2342 77.2833 96.3142H71.6433C71.6533 96.6142 71.7183 96.8992 71.8383 97.1692C71.9683 97.4292 72.1383 97.6592 72.3483 97.8592C72.5583 98.0492 72.7983 98.1992 73.0683 98.3092C73.3483 98.4192 73.6433 98.4742 73.9533 98.4742C74.4333 98.4742 74.8483 98.3692 75.1983 98.1592C75.5483 97.9492 75.8233 97.6942 76.0233 97.3942L77.0133 98.1892C76.6333 98.6892 76.1833 99.0592 75.6633 99.2992C75.1533 99.5292 74.5833 99.6442 73.9533 99.6442C73.4133 99.6442 72.9133 99.5542 72.4533 99.3742C71.9933 99.1942 71.5983 98.9442 71.2683 98.6242C70.9383 98.2942 70.6783 97.8992 70.4883 97.4392C70.2983 96.9792 70.2033 96.4692 70.2033 95.9092C70.2033 95.3592 70.2933 94.8542 70.4733 94.3942C70.6633 93.9242 70.9233 93.5242 71.2533 93.1942C71.5833 92.8642 71.9733 92.6092 72.4233 92.4292C72.8733 92.2392 73.3583 92.1442 73.8783 92.1442C74.3983 92.1442 74.8683 92.2292 75.2883 92.3992C75.7183 92.5692 76.0783 92.8142 76.3683 93.1342C76.6683 93.4542 76.8983 93.8442 77.0583 94.3042C77.2183 94.7542 77.2983 95.2642 77.2983 95.8342ZM80.872 93.5092C81.052 93.1292 81.337 92.8092 81.727 92.5492C82.127 92.2792 82.597 92.1442 83.137 92.1442C83.617 92.1442 84.047 92.2542 84.427 92.4742C84.817 92.6942 85.122 93.0592 85.342 93.5692C85.582 93.1092 85.917 92.7592 86.347 92.5192C86.777 92.2692 87.247 92.1442 87.757 92.1442C88.217 92.1442 88.612 92.2242 88.942 92.3842C89.272 92.5342 89.547 92.7392 89.767 92.9992C89.987 93.2592 90.147 93.5642 90.247 93.9142C90.357 94.2642 90.412 94.6392 90.412 95.0392V99.4492H89.002V95.5042C89.002 95.2142 88.977 94.9392 88.927 94.6792C88.877 94.4192 88.792 94.1892 88.672 93.9892C88.552 93.7892 88.392 93.6292 88.192 93.5092C87.992 93.3892 87.737 93.3292 87.427 93.3292C87.107 93.3292 86.832 93.3992 86.602 93.5392C86.372 93.6692 86.182 93.8442 86.032 94.0642C85.892 94.2742 85.787 94.5142 85.717 94.7842C85.657 95.0542 85.627 95.3292 85.627 95.6092V99.4492H84.217V95.2192C84.217 94.9392 84.192 94.6842 84.142 94.4542C84.092 94.2242 84.007 94.0292 83.887 93.8692C83.767 93.6992 83.612 93.5692 83.422 93.4792C83.232 93.3792 82.997 93.3292 82.717 93.3292C82.197 93.3292 81.762 93.5442 81.412 93.9742C81.072 94.3942 80.902 94.9592 80.902 95.6692V99.4492H79.492V93.8692C79.492 93.6792 79.487 93.4342 79.477 93.1342C79.467 92.8342 79.452 92.5692 79.432 92.3392H80.767C80.787 92.5192 80.802 92.7242 80.812 92.9542C80.822 93.1742 80.827 93.3592 80.827 93.5092H80.872ZM97.4427 94.8442C97.4427 94.3142 97.2827 93.9242 96.9627 93.6742C96.6427 93.4142 96.2177 93.2842 95.6877 93.2842C95.2877 93.2842 94.9077 93.3642 94.5477 93.5242C94.1977 93.6742 93.9027 93.8692 93.6627 94.1092L92.9127 93.2092C93.2627 92.8792 93.6877 92.6192 94.1877 92.4292C94.6977 92.2392 95.2427 92.1442 95.8227 92.1442C96.3327 92.1442 96.7727 92.2192 97.1427 92.3692C97.5227 92.5092 97.8327 92.7042 98.0727 92.9542C98.3127 93.2042 98.4927 93.4992 98.6127 93.8392C98.7327 94.1792 98.7927 94.5442 98.7927 94.9342V98.0392C98.7927 98.2792 98.7977 98.5342 98.8077 98.8042C98.8277 99.0642 98.8577 99.2792 98.8977 99.4492H97.6227C97.5427 99.1092 97.5027 98.7692 97.5027 98.4292H97.4577C97.1977 98.8092 96.8677 99.1042 96.4677 99.3142C96.0777 99.5242 95.6127 99.6292 95.0727 99.6292C94.7927 99.6292 94.4977 99.5892 94.1877 99.5092C93.8877 99.4392 93.6127 99.3192 93.3627 99.1492C93.1127 98.9792 92.9027 98.7542 92.7327 98.4742C92.5727 98.1942 92.4927 97.8492 92.4927 97.4392C92.4927 96.8992 92.6377 96.4742 92.9277 96.1642C93.2177 95.8442 93.5977 95.6042 94.0677 95.4442C94.5377 95.2742 95.0677 95.1642 95.6577 95.1142C96.2477 95.0642 96.8427 95.0392 97.4427 95.0392V94.8442ZM97.0977 96.0592C96.7477 96.0592 96.3827 96.0742 96.0027 96.1042C95.6327 96.1342 95.2927 96.1942 94.9827 96.2842C94.6827 96.3742 94.4327 96.5092 94.2327 96.6892C94.0327 96.8692 93.9327 97.1092 93.9327 97.4092C93.9327 97.6192 93.9727 97.7942 94.0527 97.9342C94.1427 98.0742 94.2577 98.1892 94.3977 98.2792C94.5377 98.3692 94.6927 98.4342 94.8627 98.4742C95.0327 98.5042 95.2077 98.5192 95.3877 98.5192C96.0477 98.5192 96.5527 98.3242 96.9027 97.9342C97.2627 97.5342 97.4427 97.0342 97.4427 96.4342V96.0592H97.0977ZM104.706 93.4942H102.816V97.1992C102.816 97.6292 102.896 97.9392 103.056 98.1292C103.216 98.3092 103.471 98.3992 103.821 98.3992C103.951 98.3992 104.091 98.3842 104.241 98.3542C104.391 98.3242 104.526 98.2792 104.646 98.2192L104.691 99.3742C104.521 99.4342 104.331 99.4792 104.121 99.5092C103.921 99.5492 103.711 99.5692 103.491 99.5692C102.821 99.5692 102.306 99.3842 101.946 99.0142C101.596 98.6442 101.421 98.0892 101.421 97.3492V93.4942H100.056V92.3392H101.421V90.2992H102.816V92.3392H104.706V93.4942ZM107.813 99.4492H106.403V92.3392H107.813V99.4492ZM108.053 89.7742C108.053 90.0342 107.958 90.2492 107.768 90.4192C107.588 90.5892 107.368 90.6742 107.108 90.6742C106.848 90.6742 106.628 90.5892 106.448 90.4192C106.268 90.2392 106.178 90.0242 106.178 89.7742C106.178 89.5142 106.268 89.2992 106.448 89.1292C106.628 88.9492 106.848 88.8592 107.108 88.8592C107.368 88.8592 107.588 88.9492 107.768 89.1292C107.958 89.2992 108.053 89.5142 108.053 89.7742ZM115.474 94.1392C115.324 93.9092 115.099 93.7192 114.799 93.5692C114.499 93.4092 114.179 93.3292 113.839 93.3292C113.469 93.3292 113.139 93.3992 112.849 93.5392C112.569 93.6792 112.329 93.8692 112.129 94.1092C111.929 94.3392 111.774 94.6092 111.664 94.9192C111.564 95.2292 111.514 95.5542 111.514 95.8942C111.514 96.2342 111.564 96.5592 111.664 96.8692C111.774 97.1792 111.929 97.4542 112.129 97.6942C112.329 97.9242 112.574 98.1092 112.864 98.2492C113.154 98.3892 113.484 98.4592 113.854 98.4592C114.214 98.4592 114.539 98.3892 114.829 98.2492C115.129 98.1092 115.374 97.9192 115.564 97.6792L116.509 98.5342C116.209 98.8842 115.834 99.1592 115.384 99.3592C114.934 99.5492 114.424 99.6442 113.854 99.6442C113.304 99.6442 112.794 99.5542 112.324 99.3742C111.864 99.1942 111.464 98.9442 111.124 98.6242C110.784 98.2942 110.514 97.8992 110.314 97.4392C110.124 96.9792 110.029 96.4642 110.029 95.8942C110.029 95.3342 110.124 94.8242 110.314 94.3642C110.504 93.9042 110.769 93.5092 111.109 93.1792C111.449 92.8492 111.849 92.5942 112.309 92.4142C112.779 92.2342 113.284 92.1442 113.824 92.1442C114.324 92.1442 114.819 92.2442 115.309 92.4442C115.809 92.6442 116.204 92.9342 116.494 93.3142L115.474 94.1392ZM126.532 94.8442C126.532 94.3142 126.372 93.9242 126.052 93.6742C125.732 93.4142 125.307 93.2842 124.777 93.2842C124.377 93.2842 123.997 93.3642 123.637 93.5242C123.287 93.6742 122.992 93.8692 122.752 94.1092L122.002 93.2092C122.352 92.8792 122.777 92.6192 123.277 92.4292C123.787 92.2392 124.332 92.1442 124.912 92.1442C125.422 92.1442 125.862 92.2192 126.232 92.3692C126.612 92.5092 126.922 92.7042 127.162 92.9542C127.402 93.2042 127.582 93.4992 127.702 93.8392C127.822 94.1792 127.882 94.5442 127.882 94.9342V98.0392C127.882 98.2792 127.887 98.5342 127.897 98.8042C127.917 99.0642 127.947 99.2792 127.987 99.4492H126.712C126.632 99.1092 126.592 98.7692 126.592 98.4292H126.547C126.287 98.8092 125.957 99.1042 125.557 99.3142C125.167 99.5242 124.702 99.6292 124.162 99.6292C123.882 99.6292 123.587 99.5892 123.277 99.5092C122.977 99.4392 122.702 99.3192 122.452 99.1492C122.202 98.9792 121.992 98.7542 121.822 98.4742C121.662 98.1942 121.582 97.8492 121.582 97.4392C121.582 96.8992 121.727 96.4742 122.017 96.1642C122.307 95.8442 122.687 95.6042 123.157 95.4442C123.627 95.2742 124.157 95.1642 124.747 95.1142C125.337 95.0642 125.932 95.0392 126.532 95.0392V94.8442ZM126.187 96.0592C125.837 96.0592 125.472 96.0742 125.092 96.1042C124.722 96.1342 124.382 96.1942 124.072 96.2842C123.772 96.3742 123.522 96.5092 123.322 96.6892C123.122 96.8692 123.022 97.1092 123.022 97.4092C123.022 97.6192 123.062 97.7942 123.142 97.9342C123.232 98.0742 123.347 98.1892 123.487 98.2792C123.627 98.3692 123.782 98.4342 123.952 98.4742C124.122 98.5042 124.297 98.5192 124.477 98.5192C125.137 98.5192 125.642 98.3242 125.992 97.9342C126.352 97.5342 126.532 97.0342 126.532 96.4342V96.0592H126.187ZM133.795 93.4942H131.905V97.1992C131.905 97.6292 131.985 97.9392 132.145 98.1292C132.305 98.3092 132.56 98.3992 132.91 98.3992C133.04 98.3992 133.18 98.3842 133.33 98.3542C133.48 98.3242 133.615 98.2792 133.735 98.2192L133.78 99.3742C133.61 99.4342 133.42 99.4792 133.21 99.5092C133.01 99.5492 132.8 99.5692 132.58 99.5692C131.91 99.5692 131.395 99.3842 131.035 99.0142C130.685 98.6442 130.51 98.0892 130.51 97.3492V93.4942H129.145V92.3392H130.51V90.2992H131.905V92.3392H133.795V93.4942ZM140.727 92.3392C140.747 92.5192 140.762 92.7242 140.772 92.9542C140.782 93.1742 140.787 93.3592 140.787 93.5092H140.832C140.922 93.3192 141.042 93.1442 141.192 92.9842C141.352 92.8142 141.532 92.6692 141.732 92.5492C141.932 92.4192 142.152 92.3192 142.392 92.2492C142.632 92.1792 142.882 92.1442 143.142 92.1442C143.602 92.1442 143.997 92.2242 144.327 92.3842C144.657 92.5342 144.932 92.7392 145.152 92.9992C145.372 93.2592 145.532 93.5642 145.632 93.9142C145.742 94.2642 145.797 94.6392 145.797 95.0392V99.4492H144.387V95.5042C144.387 95.2142 144.362 94.9392 144.312 94.6792C144.272 94.4192 144.192 94.1892 144.072 93.9892C143.952 93.7892 143.787 93.6292 143.577 93.5092C143.367 93.3892 143.097 93.3292 142.767 93.3292C142.207 93.3292 141.747 93.5442 141.387 93.9742C141.037 94.3942 140.862 94.9592 140.862 95.6692V99.4492H139.452V93.8692C139.452 93.6792 139.447 93.4342 139.437 93.1342C139.427 92.8342 139.412 92.5692 139.392 92.3392H140.727ZM149.832 99.4492H148.422V92.3392H149.832V99.4492ZM150.072 89.7742C150.072 90.0342 149.977 90.2492 149.787 90.4192C149.607 90.5892 149.387 90.6742 149.127 90.6742C148.867 90.6742 148.647 90.5892 148.467 90.4192C148.287 90.2392 148.197 90.0242 148.197 89.7742C148.197 89.5142 148.287 89.2992 148.467 89.1292C148.647 88.9492 148.867 88.8592 149.127 88.8592C149.387 88.8592 149.607 88.9492 149.787 89.1292C149.977 89.2992 150.072 89.5142 150.072 89.7742ZM153.069 100.664C153.379 101.014 153.764 101.294 154.224 101.504C154.694 101.714 155.174 101.819 155.664 101.819C156.134 101.819 156.529 101.749 156.849 101.609C157.169 101.479 157.424 101.294 157.614 101.054C157.814 100.824 157.954 100.549 158.034 100.229C158.124 99.9092 158.169 99.5642 158.169 99.1942V98.2792H158.139C157.879 98.6792 157.524 98.9842 157.074 99.1942C156.624 99.4042 156.144 99.5092 155.634 99.5092C155.094 99.5092 154.599 99.4142 154.149 99.2242C153.709 99.0342 153.334 98.7742 153.024 98.4442C152.714 98.1142 152.474 97.7292 152.304 97.2892C152.134 96.8392 152.049 96.3592 152.049 95.8492C152.049 95.3392 152.134 94.8592 152.304 94.4092C152.474 93.9592 152.714 93.5692 153.024 93.2392C153.334 92.8992 153.709 92.6342 154.149 92.4442C154.589 92.2442 155.079 92.1442 155.619 92.1442C156.129 92.1442 156.614 92.2542 157.074 92.4742C157.544 92.6942 157.914 93.0292 158.184 93.4792H158.214V92.3392H159.579V99.0892C159.579 99.6092 159.514 100.104 159.384 100.574C159.254 101.054 159.034 101.474 158.724 101.834C158.414 102.204 158.009 102.499 157.509 102.719C157.009 102.939 156.389 103.049 155.649 103.049C155.029 103.049 154.404 102.934 153.774 102.704C153.154 102.484 152.619 102.169 152.169 101.759L153.069 100.664ZM153.504 95.8192C153.504 96.1492 153.554 96.4642 153.654 96.7642C153.764 97.0642 153.919 97.3292 154.119 97.5592C154.329 97.7892 154.579 97.9742 154.869 98.1142C155.159 98.2542 155.489 98.3242 155.859 98.3242C156.219 98.3242 156.549 98.2592 156.849 98.1292C157.149 97.9992 157.404 97.8242 157.614 97.6042C157.824 97.3742 157.984 97.1092 158.094 96.8092C158.214 96.4992 158.274 96.1692 158.274 95.8192C158.274 95.4792 158.214 95.1592 158.094 94.8592C157.984 94.5592 157.819 94.2942 157.599 94.0642C157.389 93.8342 157.134 93.6542 156.834 93.5242C156.544 93.3842 156.219 93.3142 155.859 93.3142C155.489 93.3142 155.159 93.3842 154.869 93.5242C154.579 93.6542 154.329 93.8342 154.119 94.0642C153.919 94.2842 153.764 94.5492 153.654 94.8592C153.554 95.1592 153.504 95.4792 153.504 95.8192ZM163.686 93.4192C163.856 93.0692 164.146 92.7692 164.556 92.5192C164.966 92.2692 165.426 92.1442 165.936 92.1442C166.396 92.1442 166.791 92.2242 167.121 92.3842C167.451 92.5342 167.726 92.7392 167.946 92.9992C168.166 93.2592 168.326 93.5642 168.426 93.9142C168.536 94.2642 168.591 94.6392 168.591 95.0392V99.4492H167.181V95.5192C167.181 95.2292 167.156 94.9542 167.106 94.6942C167.066 94.4342 166.986 94.2042 166.866 94.0042C166.746 93.8042 166.581 93.6442 166.371 93.5242C166.171 93.4042 165.906 93.3442 165.576 93.3442C165.016 93.3442 164.556 93.5592 164.196 93.9892C163.836 94.4092 163.656 94.9742 163.656 95.6842V99.4492H162.246V88.1092H163.656V93.4192H163.686ZM174.681 93.4942H172.791V97.1992C172.791 97.6292 172.871 97.9392 173.031 98.1292C173.191 98.3092 173.446 98.3992 173.796 98.3992C173.926 98.3992 174.066 98.3842 174.216 98.3542C174.366 98.3242 174.501 98.2792 174.621 98.2192L174.666 99.3742C174.496 99.4342 174.306 99.4792 174.096 99.5092C173.896 99.5492 173.686 99.5692 173.466 99.5692C172.796 99.5692 172.281 99.3842 171.921 99.0142C171.571 98.6442 171.396 98.0892 171.396 97.3492V93.4942H170.031V92.3392H171.396V90.2992H172.791V92.3392H174.681V93.4942ZM178.103 98.5492C178.103 98.8092 178.008 99.0392 177.818 99.2392C177.628 99.4392 177.388 99.5392 177.098 99.5392C176.818 99.5392 176.578 99.4442 176.378 99.2542C176.188 99.0542 176.093 98.8242 176.093 98.5642C176.093 98.2942 176.188 98.0642 176.378 97.8742C176.568 97.6742 176.808 97.5742 177.098 97.5742C177.388 97.5742 177.628 97.6692 177.818 97.8592C178.008 98.0492 178.103 98.2792 178.103 98.5492Z" fill="#CED0D7"/>
<rect x="29.8555" y="40.4492" width="3.34766" height="59" rx="1.67383" fill="#515156"/>
<path d="M73.5353 144.38H75.1703L79.7453 155H77.5853L76.5953 152.57H71.9903L71.0303 155H68.9153L73.5353 144.38ZM75.9353 150.95L74.3003 146.63L72.6353 150.95H75.9353ZM82.6561 147.8V148.805H82.7011C82.7911 148.665 82.9061 148.525 83.0461 148.385C83.1961 148.235 83.3761 148.105 83.5861 147.995C83.7961 147.875 84.0311 147.78 84.2911 147.71C84.5611 147.63 84.8611 147.59 85.1911 147.59C85.7011 147.59 86.1711 147.69 86.6011 147.89C87.0311 148.08 87.4011 148.345 87.7111 148.685C88.0211 149.025 88.2611 149.425 88.4311 149.885C88.6011 150.345 88.6861 150.84 88.6861 151.37C88.6861 151.9 88.6011 152.4 88.4311 152.87C88.2711 153.33 88.0361 153.735 87.7261 154.085C87.4261 154.425 87.0561 154.7 86.6161 154.91C86.1861 155.11 85.6961 155.21 85.1461 155.21C84.6361 155.21 84.1661 155.105 83.7361 154.895C83.3161 154.685 82.9911 154.4 82.7611 154.04H82.7311V158.6H80.9311V147.8H82.6561ZM86.8561 151.37C86.8561 151.09 86.8111 150.815 86.7211 150.545C86.6411 150.265 86.5161 150.015 86.3461 149.795C86.1761 149.575 85.9611 149.4 85.7011 149.27C85.4411 149.13 85.1361 149.06 84.7861 149.06C84.4561 149.06 84.1611 149.13 83.9011 149.27C83.6411 149.41 83.4161 149.59 83.2261 149.81C83.0461 150.03 82.9061 150.28 82.8061 150.56C82.7161 150.84 82.6711 151.12 82.6711 151.4C82.6711 151.68 82.7161 151.96 82.8061 152.24C82.9061 152.51 83.0461 152.755 83.2261 152.975C83.4161 153.195 83.6411 153.375 83.9011 153.515C84.1611 153.645 84.4561 153.71 84.7861 153.71C85.1361 153.71 85.4411 153.64 85.7011 153.5C85.9611 153.36 86.1761 153.18 86.3461 152.96C86.5161 152.74 86.6411 152.49 86.7211 152.21C86.8111 151.93 86.8561 151.65 86.8561 151.37ZM92.3733 147.8V148.805H92.4183C92.5083 148.665 92.6233 148.525 92.7633 148.385C92.9133 148.235 93.0933 148.105 93.3033 147.995C93.5133 147.875 93.7483 147.78 94.0083 147.71C94.2783 147.63 94.5783 147.59 94.9083 147.59C95.4183 147.59 95.8883 147.69 96.3183 147.89C96.7483 148.08 97.1183 148.345 97.4283 148.685C97.7383 149.025 97.9783 149.425 98.1483 149.885C98.3183 150.345 98.4033 150.84 98.4033 151.37C98.4033 151.9 98.3183 152.4 98.1483 152.87C97.9883 153.33 97.7533 153.735 97.4433 154.085C97.1433 154.425 96.7733 154.7 96.3333 154.91C95.9033 155.11 95.4133 155.21 94.8633 155.21C94.3533 155.21 93.8833 155.105 93.4533 154.895C93.0333 154.685 92.7083 154.4 92.4783 154.04H92.4483V158.6H90.6483V147.8H92.3733ZM96.5733 151.37C96.5733 151.09 96.5283 150.815 96.4383 150.545C96.3583 150.265 96.2333 150.015 96.0633 149.795C95.8933 149.575 95.6783 149.4 95.4183 149.27C95.1583 149.13 94.8533 149.06 94.5033 149.06C94.1733 149.06 93.8783 149.13 93.6183 149.27C93.3583 149.41 93.1333 149.59 92.9433 149.81C92.7633 150.03 92.6233 150.28 92.5233 150.56C92.4333 150.84 92.3883 151.12 92.3883 151.4C92.3883 151.68 92.4333 151.96 92.5233 152.24C92.6233 152.51 92.7633 152.755 92.9433 152.975C93.1333 153.195 93.3583 153.375 93.6183 153.515C93.8783 153.645 94.1733 153.71 94.5033 153.71C94.8533 153.71 95.1583 153.64 95.4183 153.5C95.6783 153.36 95.8933 153.18 96.0633 152.96C96.2333 152.74 96.3583 152.49 96.4383 152.21C96.5283 151.93 96.5733 151.65 96.5733 151.37ZM100.395 143.66H102.195V155H100.395V143.66ZM103.524 147.8H105.519L107.529 153.035H107.559L109.344 147.8H111.219L107.814 156.545C107.684 156.875 107.544 157.165 107.394 157.415C107.244 157.675 107.064 157.89 106.854 158.06C106.644 158.24 106.394 158.375 106.104 158.465C105.824 158.555 105.484 158.6 105.084 158.6C104.934 158.6 104.779 158.59 104.619 158.57C104.469 158.56 104.314 158.535 104.154 158.495L104.304 156.935C104.424 156.975 104.539 157 104.649 157.01C104.769 157.03 104.879 157.04 104.979 157.04C105.169 157.04 105.329 157.015 105.459 156.965C105.589 156.925 105.699 156.855 105.789 156.755C105.879 156.665 105.959 156.55 106.029 156.41C106.099 156.27 106.174 156.105 106.254 155.915L106.614 155L103.524 147.8ZM124.25 146.87C123.97 146.49 123.605 146.215 123.155 146.045C122.705 145.865 122.265 145.775 121.835 145.775C121.285 145.775 120.785 145.875 120.335 146.075C119.885 146.275 119.495 146.55 119.165 146.9C118.845 147.25 118.595 147.66 118.415 148.13C118.245 148.6 118.16 149.11 118.16 149.66C118.16 150.24 118.245 150.77 118.415 151.25C118.585 151.73 118.825 152.145 119.135 152.495C119.455 152.835 119.835 153.1 120.275 153.29C120.715 153.48 121.21 153.575 121.76 153.575C122.33 153.575 122.835 153.465 123.275 153.245C123.715 153.015 124.07 152.715 124.34 152.345L125.855 153.41C125.385 154 124.81 154.46 124.13 154.79C123.45 155.11 122.655 155.27 121.745 155.27C120.915 155.27 120.15 155.135 119.45 154.865C118.76 154.585 118.165 154.2 117.665 153.71C117.165 153.21 116.775 152.62 116.495 151.94C116.215 151.25 116.075 150.49 116.075 149.66C116.075 148.81 116.22 148.045 116.51 147.365C116.81 146.675 117.215 146.09 117.725 145.61C118.245 145.13 118.855 144.76 119.555 144.5C120.255 144.24 121.015 144.11 121.835 144.11C122.175 144.11 122.53 144.145 122.9 144.215C123.27 144.275 123.625 144.375 123.965 144.515C124.305 144.645 124.625 144.81 124.925 145.01C125.225 145.21 125.48 145.45 125.69 145.73L124.25 146.87ZM126.568 151.37C126.568 150.8 126.668 150.285 126.868 149.825C127.078 149.355 127.358 148.955 127.708 148.625C128.058 148.295 128.473 148.04 128.953 147.86C129.433 147.68 129.943 147.59 130.483 147.59C131.023 147.59 131.533 147.68 132.013 147.86C132.493 148.04 132.908 148.295 133.258 148.625C133.608 148.955 133.883 149.355 134.083 149.825C134.293 150.285 134.398 150.8 134.398 151.37C134.398 151.94 134.293 152.46 134.083 152.93C133.883 153.4 133.608 153.805 133.258 154.145C132.908 154.475 132.493 154.735 132.013 154.925C131.533 155.115 131.023 155.21 130.483 155.21C129.943 155.21 129.433 155.115 128.953 154.925C128.473 154.735 128.058 154.475 127.708 154.145C127.358 153.805 127.078 153.4 126.868 152.93C126.668 152.46 126.568 151.94 126.568 151.37ZM128.398 151.37C128.398 151.65 128.438 151.93 128.518 152.21C128.608 152.49 128.738 152.74 128.908 152.96C129.078 153.18 129.293 153.36 129.553 153.5C129.813 153.64 130.123 153.71 130.483 153.71C130.843 153.71 131.153 153.64 131.413 153.5C131.673 153.36 131.888 153.18 132.058 152.96C132.228 152.74 132.353 152.49 132.433 152.21C132.523 151.93 132.568 151.65 132.568 151.37C132.568 151.09 132.523 150.815 132.433 150.545C132.353 150.265 132.228 150.015 132.058 149.795C131.888 149.575 131.673 149.4 131.413 149.27C131.153 149.13 130.843 149.06 130.483 149.06C130.123 149.06 129.813 149.13 129.553 149.27C129.293 149.4 129.078 149.575 128.908 149.795C128.738 150.015 128.608 150.265 128.518 150.545C128.438 150.815 128.398 151.09 128.398 151.37ZM136.398 143.66H138.198V155H136.398V143.66ZM140.187 151.37C140.187 150.8 140.287 150.285 140.487 149.825C140.697 149.355 140.977 148.955 141.327 148.625C141.677 148.295 142.092 148.04 142.572 147.86C143.052 147.68 143.562 147.59 144.102 147.59C144.642 147.59 145.152 147.68 145.632 147.86C146.112 148.04 146.527 148.295 146.877 148.625C147.227 148.955 147.502 149.355 147.702 149.825C147.912 150.285 148.017 150.8 148.017 151.37C148.017 151.94 147.912 152.46 147.702 152.93C147.502 153.4 147.227 153.805 146.877 154.145C146.527 154.475 146.112 154.735 145.632 154.925C145.152 155.115 144.642 155.21 144.102 155.21C143.562 155.21 143.052 155.115 142.572 154.925C142.092 154.735 141.677 154.475 141.327 154.145C140.977 153.805 140.697 153.4 140.487 152.93C140.287 152.46 140.187 151.94 140.187 151.37ZM142.017 151.37C142.017 151.65 142.057 151.93 142.137 152.21C142.227 152.49 142.357 152.74 142.527 152.96C142.697 153.18 142.912 153.36 143.172 153.5C143.432 153.64 143.742 153.71 144.102 153.71C144.462 153.71 144.772 153.64 145.032 153.5C145.292 153.36 145.507 153.18 145.677 152.96C145.847 152.74 145.972 152.49 146.052 152.21C146.142 151.93 146.187 151.65 146.187 151.37C146.187 151.09 146.142 150.815 146.052 150.545C145.972 150.265 145.847 150.015 145.677 149.795C145.507 149.575 145.292 149.4 145.032 149.27C144.772 149.13 144.462 149.06 144.102 149.06C143.742 149.06 143.432 149.13 143.172 149.27C142.912 149.4 142.697 149.575 142.527 149.795C142.357 150.015 142.227 150.265 142.137 150.545C142.057 150.815 142.017 151.09 142.017 151.37ZM149.987 147.8H151.712V149H151.742C151.942 148.58 152.222 148.24 152.582 147.98C152.942 147.72 153.362 147.59 153.842 147.59C153.912 147.59 153.987 147.595 154.067 147.605C154.147 147.605 154.217 147.615 154.277 147.635V149.285C154.157 149.255 154.052 149.235 153.962 149.225C153.882 149.215 153.802 149.21 153.722 149.21C153.312 149.21 152.982 149.285 152.732 149.435C152.482 149.585 152.287 149.765 152.147 149.975C152.007 150.185 151.912 150.4 151.862 150.62C151.812 150.84 151.787 151.015 151.787 151.145V155H149.987V147.8ZM165.156 146.6C164.956 146.34 164.671 146.125 164.301 145.955C163.941 145.775 163.576 145.685 163.206 145.685C162.986 145.685 162.766 145.715 162.546 145.775C162.326 145.825 162.126 145.91 161.946 146.03C161.766 146.14 161.616 146.29 161.496 146.48C161.386 146.66 161.331 146.88 161.331 147.14C161.331 147.38 161.381 147.585 161.481 147.755C161.581 147.925 161.716 148.07 161.886 148.19C162.066 148.31 162.281 148.415 162.531 148.505C162.781 148.595 163.056 148.685 163.356 148.775C163.696 148.885 164.046 149.01 164.406 149.15C164.776 149.29 165.111 149.475 165.411 149.705C165.721 149.935 165.971 150.225 166.161 150.575C166.361 150.925 166.461 151.36 166.461 151.88C166.461 152.45 166.356 152.95 166.146 153.38C165.936 153.8 165.656 154.15 165.306 154.43C164.956 154.71 164.546 154.92 164.076 155.06C163.606 155.2 163.111 155.27 162.591 155.27C161.901 155.27 161.226 155.145 160.566 154.895C159.906 154.635 159.366 154.255 158.946 153.755L160.296 152.495C160.556 152.855 160.901 153.14 161.331 153.35C161.771 153.56 162.201 153.665 162.621 153.665C162.841 153.665 163.066 153.64 163.296 153.59C163.526 153.53 163.731 153.435 163.911 153.305C164.101 153.175 164.251 153.015 164.361 152.825C164.481 152.625 164.541 152.38 164.541 152.09C164.541 151.81 164.476 151.58 164.346 151.4C164.216 151.21 164.041 151.05 163.821 150.92C163.601 150.78 163.341 150.66 163.041 150.56C162.741 150.46 162.426 150.355 162.096 150.245C161.776 150.145 161.456 150.025 161.136 149.885C160.816 149.745 160.526 149.56 160.266 149.33C160.016 149.1 159.811 148.82 159.651 148.49C159.491 148.15 159.411 147.73 159.411 147.23C159.411 146.69 159.521 146.225 159.741 145.835C159.971 145.445 160.266 145.125 160.626 144.875C160.996 144.615 161.411 144.425 161.871 144.305C162.341 144.175 162.816 144.11 163.296 144.11C163.836 144.11 164.381 144.205 164.931 144.395C165.491 144.585 165.976 144.87 166.386 145.25L165.156 146.6ZM173.409 149.795C173.269 149.595 173.059 149.43 172.779 149.3C172.499 149.16 172.214 149.09 171.924 149.09C171.594 149.09 171.304 149.16 171.054 149.3C170.804 149.43 170.594 149.605 170.424 149.825C170.264 150.045 170.144 150.295 170.064 150.575C169.984 150.845 169.944 151.12 169.944 151.4C169.944 151.68 169.984 151.96 170.064 152.24C170.154 152.51 170.284 152.755 170.454 152.975C170.624 153.195 170.834 153.375 171.084 153.515C171.344 153.645 171.644 153.71 171.984 153.71C172.264 153.71 172.544 153.655 172.824 153.545C173.104 153.435 173.329 153.275 173.499 153.065L174.624 154.205C174.324 154.525 173.939 154.775 173.469 154.955C173.009 155.125 172.509 155.21 171.969 155.21C171.439 155.21 170.934 155.125 170.454 154.955C169.984 154.785 169.569 154.535 169.209 154.205C168.859 153.875 168.579 153.475 168.369 153.005C168.169 152.535 168.069 152 168.069 151.4C168.069 150.82 168.169 150.295 168.369 149.825C168.579 149.355 168.859 148.955 169.209 148.625C169.559 148.295 169.964 148.04 170.424 147.86C170.894 147.68 171.394 147.59 171.924 147.59C172.454 147.59 172.964 147.69 173.454 147.89C173.954 148.09 174.349 148.365 174.639 148.715L173.409 149.795ZM180.044 147.59C180.514 147.59 180.914 147.675 181.244 147.845C181.584 148.005 181.859 148.22 182.069 148.49C182.289 148.76 182.449 149.07 182.549 149.42C182.649 149.77 182.699 150.13 182.699 150.5V155H180.899V151.04C180.899 150.83 180.884 150.615 180.854 150.395C180.824 150.165 180.759 149.96 180.659 149.78C180.569 149.59 180.434 149.435 180.254 149.315C180.084 149.195 179.854 149.135 179.564 149.135C179.274 149.135 179.024 149.19 178.814 149.3C178.604 149.41 178.429 149.56 178.289 149.75C178.149 149.93 178.044 150.135 177.974 150.365C177.904 150.595 177.869 150.83 177.869 151.07V155H176.069V143.66H177.869V148.805H177.899C177.969 148.655 178.069 148.51 178.199 148.37C178.339 148.22 178.499 148.09 178.679 147.98C178.859 147.86 179.064 147.765 179.294 147.695C179.524 147.625 179.774 147.59 180.044 147.59ZM190.093 150.68C190.093 150.45 190.058 150.23 189.988 150.02C189.928 149.81 189.828 149.625 189.688 149.465C189.548 149.305 189.368 149.18 189.148 149.09C188.938 148.99 188.688 148.94 188.398 148.94C187.858 148.94 187.398 149.105 187.018 149.435C186.648 149.755 186.443 150.17 186.403 150.68H190.093ZM191.893 151.49C191.893 151.57 191.893 151.65 191.893 151.73C191.893 151.81 191.888 151.89 191.878 151.97H186.403C186.423 152.23 186.488 152.47 186.598 152.69C186.718 152.9 186.873 153.085 187.063 153.245C187.253 153.395 187.468 153.515 187.708 153.605C187.948 153.695 188.198 153.74 188.458 153.74C188.908 153.74 189.288 153.66 189.598 153.5C189.908 153.33 190.163 153.1 190.363 152.81L191.563 153.77C190.853 154.73 189.823 155.21 188.473 155.21C187.913 155.21 187.398 155.125 186.928 154.955C186.458 154.775 186.048 154.525 185.698 154.205C185.358 153.885 185.088 153.495 184.888 153.035C184.698 152.565 184.603 152.035 184.603 151.445C184.603 150.865 184.698 150.34 184.888 149.87C185.088 149.39 185.358 148.985 185.698 148.655C186.038 148.315 186.438 148.055 186.898 147.875C187.368 147.685 187.873 147.59 188.413 147.59C188.913 147.59 189.373 147.675 189.793 147.845C190.223 148.005 190.593 148.25 190.903 148.58C191.213 148.9 191.453 149.305 191.623 149.795C191.803 150.275 191.893 150.84 191.893 151.49ZM202.457 147.59C202.927 147.59 203.327 147.675 203.657 147.845C203.997 148.005 204.272 148.22 204.482 148.49C204.702 148.76 204.862 149.07 204.962 149.42C205.062 149.77 205.112 150.13 205.112 150.5V155H203.312V151.01C203.312 150.8 203.297 150.58 203.267 150.35C203.237 150.12 203.172 149.915 203.072 149.735C202.972 149.545 202.832 149.39 202.652 149.27C202.482 149.15 202.252 149.09 201.962 149.09C201.682 149.09 201.442 149.15 201.242 149.27C201.042 149.39 200.877 149.545 200.747 149.735C200.617 149.925 200.522 150.14 200.462 150.38C200.402 150.61 200.372 150.84 200.372 151.07V155H198.572V150.65C198.572 150.2 198.462 149.83 198.242 149.54C198.032 149.24 197.697 149.09 197.237 149.09C196.967 149.09 196.732 149.15 196.532 149.27C196.332 149.38 196.167 149.525 196.037 149.705C195.917 149.885 195.822 150.095 195.752 150.335C195.692 150.565 195.662 150.8 195.662 151.04V155H193.862V147.8H195.572V148.955H195.602C195.682 148.775 195.787 148.605 195.917 148.445C196.057 148.285 196.217 148.14 196.397 148.01C196.587 147.88 196.802 147.78 197.042 147.71C197.282 147.63 197.547 147.59 197.837 147.59C198.397 147.59 198.862 147.715 199.232 147.965C199.602 148.215 199.887 148.545 200.087 148.955C200.327 148.515 200.647 148.18 201.047 147.95C201.447 147.71 201.917 147.59 202.457 147.59ZM212.501 150.68C212.501 150.45 212.466 150.23 212.396 150.02C212.336 149.81 212.236 149.625 212.096 149.465C211.956 149.305 211.776 149.18 211.556 149.09C211.346 148.99 211.096 148.94 210.806 148.94C210.266 148.94 209.806 149.105 209.426 149.435C209.056 149.755 208.851 150.17 208.811 150.68H212.501ZM214.301 151.49C214.301 151.57 214.301 151.65 214.301 151.73C214.301 151.81 214.296 151.89 214.286 151.97H208.811C208.831 152.23 208.896 152.47 209.006 152.69C209.126 152.9 209.281 153.085 209.471 153.245C209.661 153.395 209.876 153.515 210.116 153.605C210.356 153.695 210.606 153.74 210.866 153.74C211.316 153.74 211.696 153.66 212.006 153.5C212.316 153.33 212.571 153.1 212.771 152.81L213.971 153.77C213.261 154.73 212.231 155.21 210.881 155.21C210.321 155.21 209.806 155.125 209.336 154.955C208.866 154.775 208.456 154.525 208.106 154.205C207.766 153.885 207.496 153.495 207.296 153.035C207.106 152.565 207.011 152.035 207.011 151.445C207.011 150.865 207.106 150.34 207.296 149.87C207.496 149.39 207.766 148.985 208.106 148.655C208.446 148.315 208.846 148.055 209.306 147.875C209.776 147.685 210.281 147.59 210.821 147.59C211.321 147.59 211.781 147.675 212.201 147.845C212.631 148.005 213.001 148.25 213.311 148.58C213.621 148.9 213.861 149.305 214.031 149.795C214.211 150.275 214.301 150.84 214.301 151.49Z" fill="#A652FA"/>
<rect x="27.5" y="124.5" width="229" height="51" rx="7.5" stroke="#41434A"/>
</svg>
