<svg width="32" height="33" viewBox="0 0 32 33" fill="none" xmlns="http://www.w3.org/2000/svg">
<path fill-rule="evenodd" clip-rule="evenodd" d="M15.9993 5.44922C13.6061 5.44922 11.666 7.38932 11.666 9.78255C11.666 12.1758 13.6061 14.1159 15.9993 14.1159C18.3926 14.1159 20.3327 12.1758 20.3327 9.78255C20.3327 7.38932 18.3926 5.44922 15.9993 5.44922ZM9.66602 9.78255C9.66602 6.28475 12.5015 3.44922 15.9993 3.44922C19.4972 3.44922 22.3327 6.28475 22.3327 9.78255C22.3327 13.2804 19.4972 16.1159 15.9993 16.1159C12.5015 16.1159 9.66602 13.2804 9.66602 9.78255ZM23.9993 18.7826C21.6061 18.7826 19.666 20.7227 19.666 23.1159C19.666 25.5091 21.6061 27.4492 23.9993 27.4492C26.3926 27.4492 28.3327 25.5091 28.3327 23.1159C28.3327 20.7227 26.3926 18.7826 23.9993 18.7826ZM17.666 23.1159C17.666 19.6181 20.5015 16.7826 23.9993 16.7826C27.4972 16.7826 30.3327 19.6181 30.3327 23.1159C30.3327 26.6137 27.4972 29.4492 23.9993 29.4492C20.5015 29.4492 17.666 26.6137 17.666 23.1159ZM3.66602 23.1159C3.66602 20.7227 5.60611 18.7826 7.99935 18.7826C10.3926 18.7826 12.3327 20.7227 12.3327 23.1159C12.3327 25.5091 10.3926 27.4492 7.99935 27.4492C5.60611 27.4492 3.66602 25.5091 3.66602 23.1159ZM7.99935 16.7826C4.50155 16.7826 1.66602 19.6181 1.66602 23.1159C1.66602 26.6137 4.50155 29.4492 7.99935 29.4492C11.4972 29.4492 14.3327 26.6137 14.3327 23.1159C14.3327 19.6181 11.4972 16.7826 7.99935 16.7826Z" fill="white"/>
</svg>
