<svg xmlns="http://www.w3.org/2000/svg" width="306" height="153" fill="none" viewBox="0 0 306 153"><rect width="306" height="153" fill="#F6F6FC" rx="16"/><rect width="4" height="16" x="31" y="68.5" fill="#8C20F8" rx="2"/><rect width="4" height="40" x="41" y="56.5" fill="#8C20F8" rx="2"/><rect width="4" height="20" x="51" y="66.5" fill="#8C20F8" rx="2"/><rect width="4" height="60" x="61" y="46.5" fill="#8C20F8" rx="2"/><rect width="4" height="20" x="71" y="66.5" fill="#8C20F8" rx="2"/><rect width="4" height="40" x="81" y="56.5" fill="#8C20F8" rx="2"/><rect width="4" height="32" x="91" y="60.5" fill="#8C20F8" rx="2"/><rect width="4" height="16" x="101" y="68.5" fill="#8C20F8" rx="2"/><rect width="4" height="60" x="111" y="46.5" fill="#8C20F8" rx="2"/><rect width="4" height="46" x="121" y="53.5" fill="#8C20F8" rx="2"/><rect width="4" height="32" x="131" y="60.5" fill="#8C20F8" rx="2"/><rect width="4" height="40" x="141" y="56.5" fill="#8C20F8" rx="2"/><rect width="4" height="24" x="151" y="64.5" fill="#8C20F8" rx="2"/><rect width="4" height="20" x="161" y="66.5" fill="#8C20F8" rx="2"/><rect width="4" height="52" x="171" y="50.5" fill="#8C20F8" rx="2"/><rect width="4" height="60" x="181" y="46.5" fill="#8C20F8" rx="2"/><rect width="4" height="20" x="191" y="66.5" fill="#8C20F8" rx="2"/><rect width="4" height="32" x="201" y="60.5" fill="#8C20F8" rx="2"/><rect width="4" height="46" x="211" y="53.5" fill="#8C20F8" rx="2"/><rect width="4" height="60" x="221" y="46.5" fill="#8C20F8" rx="2"/><rect width="4" height="20" x="231" y="66.5" fill="#8C20F8" rx="2"/><rect width="4" height="46" x="241" y="53.5" fill="#8C20F8" rx="2"/><rect width="4" height="20" x="251" y="66.5" fill="#8C20F8" rx="2"/><rect width="4" height="60" x="261" y="46.5" fill="#8C20F8" rx="2"/><rect width="4" height="32" x="271" y="60.5" fill="#8C20F8" rx="2"/></svg>