<svg width="284" height="199" viewBox="0 0 284 199" fill="none" xmlns="http://www.w3.org/2000/svg">
<rect y="0.449219" width="284" height="198" rx="16" fill="#1C1D21"/>
<path d="M85.0199 146.6C84.8199 146.34 84.5349 146.125 84.1649 145.955C83.8049 145.775 83.4399 145.685 83.0699 145.685C82.8499 145.685 82.6299 145.715 82.4099 145.775C82.1899 145.825 81.9899 145.91 81.8099 146.03C81.6299 146.14 81.4799 146.29 81.3599 146.48C81.2499 146.66 81.1949 146.88 81.1949 147.14C81.1949 147.38 81.2449 147.585 81.3449 147.755C81.4449 147.925 81.5799 148.07 81.7499 148.19C81.9299 148.31 82.1449 148.415 82.3949 148.505C82.6449 148.595 82.9199 148.685 83.2199 148.775C83.5599 148.885 83.9099 149.01 84.2699 149.15C84.6399 149.29 84.9749 149.475 85.2749 149.705C85.5849 149.935 85.8349 150.225 86.0249 150.575C86.2249 150.925 86.3249 151.36 86.3249 151.88C86.3249 152.45 86.2199 152.95 86.0099 153.38C85.7999 153.8 85.5199 154.15 85.1699 154.43C84.8199 154.71 84.4099 154.92 83.9399 155.06C83.4699 155.2 82.9749 155.27 82.4549 155.27C81.7649 155.27 81.0899 155.145 80.4299 154.895C79.7699 154.635 79.2299 154.255 78.8099 153.755L80.1599 152.495C80.4199 152.855 80.7649 153.14 81.1949 153.35C81.6349 153.56 82.0649 153.665 82.4849 153.665C82.7049 153.665 82.9299 153.64 83.1599 153.59C83.3899 153.53 83.5949 153.435 83.7749 153.305C83.9649 153.175 84.1149 153.015 84.2249 152.825C84.3449 152.625 84.4049 152.38 84.4049 152.09C84.4049 151.81 84.3399 151.58 84.2099 151.4C84.0799 151.21 83.9049 151.05 83.6849 150.92C83.4649 150.78 83.2049 150.66 82.9049 150.56C82.6049 150.46 82.2899 150.355 81.9599 150.245C81.6399 150.145 81.3199 150.025 80.9999 149.885C80.6799 149.745 80.3899 149.56 80.1299 149.33C79.8799 149.1 79.6749 148.82 79.5149 148.49C79.3549 148.15 79.2749 147.73 79.2749 147.23C79.2749 146.69 79.3849 146.225 79.6049 145.835C79.8349 145.445 80.1299 145.125 80.4899 144.875C80.8599 144.615 81.2749 144.425 81.7349 144.305C82.2049 144.175 82.6799 144.11 83.1599 144.11C83.6999 144.11 84.2449 144.205 84.7949 144.395C85.3549 144.585 85.8399 144.87 86.2499 145.25L85.0199 146.6ZM87.2303 149.24V147.8H88.4903V145.715H90.2603V147.8H92.0603V149.24H90.2603V152.585C90.2603 152.905 90.3153 153.17 90.4253 153.38C90.5453 153.59 90.8053 153.695 91.2053 153.695C91.3253 153.695 91.4553 153.685 91.5953 153.665C91.7353 153.635 91.8603 153.595 91.9703 153.545L92.0303 154.955C91.8703 155.015 91.6803 155.06 91.4603 155.09C91.2403 155.13 91.0303 155.15 90.8303 155.15C90.3503 155.15 89.9603 155.085 89.6603 154.955C89.3603 154.815 89.1203 154.63 88.9403 154.4C88.7703 154.16 88.6503 153.89 88.5803 153.59C88.5203 153.28 88.4903 152.95 88.4903 152.6V149.24H87.2303ZM98.0579 154.085H98.0129C97.8329 154.405 97.5429 154.67 97.1429 154.88C96.7429 155.08 96.2879 155.18 95.7779 155.18C95.4879 155.18 95.1829 155.14 94.8629 155.06C94.5529 154.99 94.2629 154.87 93.9929 154.7C93.7329 154.52 93.5129 154.29 93.3329 154.01C93.1629 153.72 93.0779 153.365 93.0779 152.945C93.0779 152.405 93.2279 151.975 93.5279 151.655C93.8379 151.335 94.2329 151.09 94.7129 150.92C95.1929 150.75 95.7229 150.64 96.3029 150.59C96.8929 150.53 97.4679 150.5 98.0279 150.5V150.32C98.0279 149.87 97.8629 149.54 97.5329 149.33C97.2129 149.11 96.8279 149 96.3779 149C95.9979 149 95.6329 149.08 95.2829 149.24C94.9329 149.4 94.6429 149.595 94.4129 149.825L93.4829 148.73C93.8929 148.35 94.3629 148.065 94.8929 147.875C95.4329 147.685 95.9779 147.59 96.5279 147.59C97.1679 147.59 97.6929 147.68 98.1029 147.86C98.5229 148.04 98.8529 148.275 99.0929 148.565C99.3329 148.855 99.4979 149.18 99.5879 149.54C99.6879 149.9 99.7379 150.26 99.7379 150.62V155H98.0579V154.085ZM98.0279 151.715H97.6229C97.3329 151.715 97.0279 151.73 96.7079 151.76C96.3879 151.78 96.0929 151.835 95.8229 151.925C95.5529 152.005 95.3279 152.125 95.1479 152.285C94.9679 152.435 94.8779 152.645 94.8779 152.915C94.8779 153.085 94.9129 153.23 94.9829 153.35C95.0629 153.46 95.1629 153.55 95.2829 153.62C95.4029 153.69 95.5379 153.74 95.6879 153.77C95.8379 153.8 95.9879 153.815 96.1379 153.815C96.7579 153.815 97.2279 153.65 97.5479 153.32C97.8679 152.99 98.0279 152.54 98.0279 151.97V151.715ZM102.06 147.8H103.785V149H103.815C104.015 148.58 104.295 148.24 104.655 147.98C105.015 147.72 105.435 147.59 105.915 147.59C105.985 147.59 106.06 147.595 106.14 147.605C106.22 147.605 106.29 147.615 106.35 147.635V149.285C106.23 149.255 106.125 149.235 106.035 149.225C105.955 149.215 105.875 149.21 105.795 149.21C105.385 149.21 105.055 149.285 104.805 149.435C104.555 149.585 104.36 149.765 104.22 149.975C104.08 150.185 103.985 150.4 103.935 150.62C103.885 150.84 103.86 151.015 103.86 151.145V155H102.06V147.8ZM106.538 149.24V147.8H107.798V145.715H109.568V147.8H111.368V149.24H109.568V152.585C109.568 152.905 109.623 153.17 109.733 153.38C109.853 153.59 110.113 153.695 110.513 153.695C110.633 153.695 110.763 153.685 110.903 153.665C111.043 153.635 111.168 153.595 111.278 153.545L111.338 154.955C111.178 155.015 110.988 155.06 110.768 155.09C110.548 155.13 110.338 155.15 110.138 155.15C109.658 155.15 109.268 155.085 108.968 154.955C108.668 154.815 108.428 154.63 108.248 154.4C108.078 154.16 107.958 153.89 107.888 153.59C107.828 153.28 107.798 152.95 107.798 152.6V149.24H106.538ZM116.961 144.38H120.651C121.151 144.38 121.636 144.435 122.106 144.545C122.576 144.645 122.991 144.815 123.351 145.055C123.721 145.295 124.016 145.61 124.236 146C124.456 146.39 124.566 146.865 124.566 147.425C124.566 148.195 124.346 148.825 123.906 149.315C123.476 149.795 122.886 150.12 122.136 150.29L124.971 155H122.691L120.231 150.5H118.851V155H116.961V144.38ZM120.396 148.955C120.666 148.955 120.936 148.935 121.206 148.895C121.476 148.855 121.716 148.78 121.926 148.67C122.146 148.56 122.326 148.405 122.466 148.205C122.606 147.995 122.676 147.73 122.676 147.41C122.676 147.12 122.611 146.885 122.481 146.705C122.351 146.515 122.186 146.365 121.986 146.255C121.786 146.145 121.556 146.07 121.296 146.03C121.046 145.99 120.801 145.97 120.561 145.97H118.851V148.955H120.396ZM125.934 151.37C125.934 150.8 126.034 150.285 126.234 149.825C126.444 149.355 126.724 148.955 127.074 148.625C127.424 148.295 127.839 148.04 128.319 147.86C128.799 147.68 129.309 147.59 129.849 147.59C130.389 147.59 130.899 147.68 131.379 147.86C131.859 148.04 132.274 148.295 132.624 148.625C132.974 148.955 133.249 149.355 133.449 149.825C133.659 150.285 133.764 150.8 133.764 151.37C133.764 151.94 133.659 152.46 133.449 152.93C133.249 153.4 132.974 153.805 132.624 154.145C132.274 154.475 131.859 154.735 131.379 154.925C130.899 155.115 130.389 155.21 129.849 155.21C129.309 155.21 128.799 155.115 128.319 154.925C127.839 154.735 127.424 154.475 127.074 154.145C126.724 153.805 126.444 153.4 126.234 152.93C126.034 152.46 125.934 151.94 125.934 151.37ZM127.764 151.37C127.764 151.65 127.804 151.93 127.884 152.21C127.974 152.49 128.104 152.74 128.274 152.96C128.444 153.18 128.659 153.36 128.919 153.5C129.179 153.64 129.489 153.71 129.849 153.71C130.209 153.71 130.519 153.64 130.779 153.5C131.039 153.36 131.254 153.18 131.424 152.96C131.594 152.74 131.719 152.49 131.799 152.21C131.889 151.93 131.934 151.65 131.934 151.37C131.934 151.09 131.889 150.815 131.799 150.545C131.719 150.265 131.594 150.015 131.424 149.795C131.254 149.575 131.039 149.4 130.779 149.27C130.519 149.13 130.209 149.06 129.849 149.06C129.489 149.06 129.179 149.13 128.919 149.27C128.659 149.4 128.444 149.575 128.274 149.795C128.104 150.015 127.974 150.265 127.884 150.545C127.804 150.815 127.764 151.09 127.764 151.37ZM134.699 149.24V147.8H135.959V145.715H137.729V147.8H139.529V149.24H137.729V152.585C137.729 152.905 137.784 153.17 137.894 153.38C138.014 153.59 138.274 153.695 138.674 153.695C138.794 153.695 138.924 153.685 139.064 153.665C139.204 153.635 139.329 153.595 139.439 153.545L139.499 154.955C139.339 155.015 139.149 155.06 138.929 155.09C138.709 155.13 138.499 155.15 138.299 155.15C137.819 155.15 137.429 155.085 137.129 154.955C136.829 154.815 136.589 154.63 136.409 154.4C136.239 154.16 136.119 153.89 136.049 153.59C135.989 153.28 135.959 152.95 135.959 152.6V149.24H134.699ZM140.636 151.37C140.636 150.8 140.736 150.285 140.936 149.825C141.146 149.355 141.426 148.955 141.776 148.625C142.126 148.295 142.541 148.04 143.021 147.86C143.501 147.68 144.011 147.59 144.551 147.59C145.091 147.59 145.601 147.68 146.081 147.86C146.561 148.04 146.976 148.295 147.326 148.625C147.676 148.955 147.951 149.355 148.151 149.825C148.361 150.285 148.466 150.8 148.466 151.37C148.466 151.94 148.361 152.46 148.151 152.93C147.951 153.4 147.676 153.805 147.326 154.145C146.976 154.475 146.561 154.735 146.081 154.925C145.601 155.115 145.091 155.21 144.551 155.21C144.011 155.21 143.501 155.115 143.021 154.925C142.541 154.735 142.126 154.475 141.776 154.145C141.426 153.805 141.146 153.4 140.936 152.93C140.736 152.46 140.636 151.94 140.636 151.37ZM142.466 151.37C142.466 151.65 142.506 151.93 142.586 152.21C142.676 152.49 142.806 152.74 142.976 152.96C143.146 153.18 143.361 153.36 143.621 153.5C143.881 153.64 144.191 153.71 144.551 153.71C144.911 153.71 145.221 153.64 145.481 153.5C145.741 153.36 145.956 153.18 146.126 152.96C146.296 152.74 146.421 152.49 146.501 152.21C146.591 151.93 146.636 151.65 146.636 151.37C146.636 151.09 146.591 150.815 146.501 150.545C146.421 150.265 146.296 150.015 146.126 149.795C145.956 149.575 145.741 149.4 145.481 149.27C145.221 149.13 144.911 149.06 144.551 149.06C144.191 149.06 143.881 149.13 143.621 149.27C143.361 149.4 143.146 149.575 142.976 149.795C142.806 150.015 142.676 150.265 142.586 150.545C142.506 150.815 142.466 151.09 142.466 151.37ZM154.382 149.72C154.222 149.51 154.002 149.33 153.722 149.18C153.442 149.02 153.137 148.94 152.807 148.94C152.517 148.94 152.252 149 152.012 149.12C151.772 149.24 151.652 149.44 151.652 149.72C151.652 150 151.782 150.2 152.042 150.32C152.312 150.43 152.702 150.545 153.212 150.665C153.482 150.725 153.752 150.805 154.022 150.905C154.302 151.005 154.552 151.14 154.772 151.31C155.002 151.47 155.187 151.675 155.327 151.925C155.467 152.165 155.537 152.46 155.537 152.81C155.537 153.25 155.452 153.625 155.282 153.935C155.122 154.235 154.902 154.48 154.622 154.67C154.352 154.86 154.032 154.995 153.662 155.075C153.302 155.165 152.927 155.21 152.537 155.21C151.977 155.21 151.432 155.11 150.902 154.91C150.372 154.7 149.932 154.405 149.582 154.025L150.767 152.915C150.967 153.175 151.227 153.39 151.547 153.56C151.867 153.73 152.222 153.815 152.612 153.815C152.742 153.815 152.872 153.8 153.002 153.77C153.142 153.74 153.267 153.695 153.377 153.635C153.497 153.565 153.592 153.475 153.662 153.365C153.732 153.255 153.767 153.12 153.767 152.96C153.767 152.66 153.627 152.445 153.347 152.315C153.077 152.185 152.667 152.055 152.117 151.925C151.847 151.865 151.582 151.79 151.322 151.7C151.072 151.6 150.847 151.475 150.647 151.325C150.447 151.165 150.287 150.97 150.167 150.74C150.047 150.51 149.987 150.225 149.987 149.885C149.987 149.485 150.067 149.14 150.227 148.85C150.397 148.56 150.617 148.325 150.887 148.145C151.157 147.955 151.462 147.815 151.802 147.725C152.142 147.635 152.492 147.59 152.852 147.59C153.372 147.59 153.877 147.68 154.367 147.86C154.867 148.04 155.262 148.315 155.552 148.685L154.382 149.72ZM162.247 149.795C162.107 149.595 161.897 149.43 161.617 149.3C161.337 149.16 161.052 149.09 160.762 149.09C160.432 149.09 160.142 149.16 159.892 149.3C159.642 149.43 159.432 149.605 159.262 149.825C159.102 150.045 158.982 150.295 158.902 150.575C158.822 150.845 158.782 151.12 158.782 151.4C158.782 151.68 158.822 151.96 158.902 152.24C158.992 152.51 159.122 152.755 159.292 152.975C159.462 153.195 159.672 153.375 159.922 153.515C160.182 153.645 160.482 153.71 160.822 153.71C161.102 153.71 161.382 153.655 161.662 153.545C161.942 153.435 162.167 153.275 162.337 153.065L163.462 154.205C163.162 154.525 162.777 154.775 162.307 154.955C161.847 155.125 161.347 155.21 160.807 155.21C160.277 155.21 159.772 155.125 159.292 154.955C158.822 154.785 158.407 154.535 158.047 154.205C157.697 153.875 157.417 153.475 157.207 153.005C157.007 152.535 156.907 152 156.907 151.4C156.907 150.82 157.007 150.295 157.207 149.825C157.417 149.355 157.697 148.955 158.047 148.625C158.397 148.295 158.802 148.04 159.262 147.86C159.732 147.68 160.232 147.59 160.762 147.59C161.292 147.59 161.802 147.69 162.292 147.89C162.792 148.09 163.187 148.365 163.477 148.715L162.247 149.795ZM164.456 151.37C164.456 150.8 164.556 150.285 164.756 149.825C164.966 149.355 165.246 148.955 165.596 148.625C165.946 148.295 166.361 148.04 166.841 147.86C167.321 147.68 167.831 147.59 168.371 147.59C168.911 147.59 169.421 147.68 169.901 147.86C170.381 148.04 170.796 148.295 171.146 148.625C171.496 148.955 171.771 149.355 171.971 149.825C172.181 150.285 172.286 150.8 172.286 151.37C172.286 151.94 172.181 152.46 171.971 152.93C171.771 153.4 171.496 153.805 171.146 154.145C170.796 154.475 170.381 154.735 169.901 154.925C169.421 155.115 168.911 155.21 168.371 155.21C167.831 155.21 167.321 155.115 166.841 154.925C166.361 154.735 165.946 154.475 165.596 154.145C165.246 153.805 164.966 153.4 164.756 152.93C164.556 152.46 164.456 151.94 164.456 151.37ZM166.286 151.37C166.286 151.65 166.326 151.93 166.406 152.21C166.496 152.49 166.626 152.74 166.796 152.96C166.966 153.18 167.181 153.36 167.441 153.5C167.701 153.64 168.011 153.71 168.371 153.71C168.731 153.71 169.041 153.64 169.301 153.5C169.561 153.36 169.776 153.18 169.946 152.96C170.116 152.74 170.241 152.49 170.321 152.21C170.411 151.93 170.456 151.65 170.456 151.37C170.456 151.09 170.411 150.815 170.321 150.545C170.241 150.265 170.116 150.015 169.946 149.795C169.776 149.575 169.561 149.4 169.301 149.27C169.041 149.13 168.731 149.06 168.371 149.06C168.011 149.06 167.701 149.13 167.441 149.27C167.181 149.4 166.966 149.575 166.796 149.795C166.626 150.015 166.496 150.265 166.406 150.545C166.326 150.815 166.286 151.09 166.286 151.37ZM175.981 147.8V148.805H176.026C176.116 148.665 176.231 148.525 176.371 148.385C176.521 148.235 176.701 148.105 176.911 147.995C177.121 147.875 177.356 147.78 177.616 147.71C177.886 147.63 178.186 147.59 178.516 147.59C179.026 147.59 179.496 147.69 179.926 147.89C180.356 148.08 180.726 148.345 181.036 148.685C181.346 149.025 181.586 149.425 181.756 149.885C181.926 150.345 182.011 150.84 182.011 151.37C182.011 151.9 181.926 152.4 181.756 152.87C181.596 153.33 181.361 153.735 181.051 154.085C180.751 154.425 180.381 154.7 179.941 154.91C179.511 155.11 179.021 155.21 178.471 155.21C177.961 155.21 177.491 155.105 177.061 154.895C176.641 154.685 176.316 154.4 176.086 154.04H176.056V158.6H174.256V147.8H175.981ZM180.181 151.37C180.181 151.09 180.136 150.815 180.046 150.545C179.966 150.265 179.841 150.015 179.671 149.795C179.501 149.575 179.286 149.4 179.026 149.27C178.766 149.13 178.461 149.06 178.111 149.06C177.781 149.06 177.486 149.13 177.226 149.27C176.966 149.41 176.741 149.59 176.551 149.81C176.371 150.03 176.231 150.28 176.131 150.56C176.041 150.84 175.996 151.12 175.996 151.4C175.996 151.68 176.041 151.96 176.131 152.24C176.231 152.51 176.371 152.755 176.551 152.975C176.741 153.195 176.966 153.375 177.226 153.515C177.486 153.645 177.781 153.71 178.111 153.71C178.461 153.71 178.766 153.64 179.026 153.5C179.286 153.36 179.501 153.18 179.671 152.96C179.841 152.74 179.966 152.49 180.046 152.21C180.136 151.93 180.181 151.65 180.181 151.37ZM184.003 147.8H185.803V155H184.003V147.8ZM183.748 145.355C183.748 145.065 183.853 144.815 184.063 144.605C184.283 144.385 184.558 144.275 184.888 144.275C185.218 144.275 185.493 144.38 185.713 144.59C185.943 144.79 186.058 145.045 186.058 145.355C186.058 145.665 185.943 145.925 185.713 146.135C185.493 146.335 185.218 146.435 184.888 146.435C184.558 146.435 184.283 146.33 184.063 146.12C183.853 145.9 183.748 145.645 183.748 145.355ZM188.212 147.8H189.922V148.955H189.952C190.112 148.595 190.387 148.28 190.777 148.01C191.177 147.73 191.647 147.59 192.187 147.59C192.657 147.59 193.057 147.675 193.387 147.845C193.727 148.005 194.002 148.22 194.212 148.49C194.432 148.76 194.592 149.07 194.692 149.42C194.792 149.77 194.842 150.13 194.842 150.5V155H193.042V151.01C193.042 150.8 193.027 150.58 192.997 150.35C192.967 150.12 192.902 149.915 192.802 149.735C192.702 149.545 192.562 149.39 192.382 149.27C192.212 149.15 191.982 149.09 191.692 149.09C191.402 149.09 191.152 149.15 190.942 149.27C190.732 149.38 190.557 149.525 190.417 149.705C190.287 149.885 190.187 150.095 190.117 150.335C190.047 150.565 190.012 150.8 190.012 151.04V155H188.212V147.8ZM204.488 147.8V154.355C204.488 155.005 204.408 155.59 204.248 156.11C204.088 156.64 203.838 157.085 203.498 157.445C203.168 157.815 202.748 158.1 202.238 158.3C201.728 158.5 201.123 158.6 200.423 158.6C200.133 158.6 199.823 158.575 199.493 158.525C199.173 158.475 198.853 158.4 198.533 158.3C198.223 158.2 197.923 158.075 197.633 157.925C197.343 157.775 197.083 157.605 196.853 157.415L197.888 156.02C198.238 156.35 198.633 156.6 199.073 156.77C199.513 156.95 199.958 157.04 200.408 157.04C200.838 157.04 201.198 156.975 201.488 156.845C201.788 156.725 202.023 156.555 202.193 156.335C202.373 156.115 202.498 155.855 202.568 155.555C202.648 155.255 202.688 154.925 202.688 154.565V154.04H202.658C202.398 154.39 202.063 154.66 201.653 154.85C201.253 155.03 200.803 155.12 200.303 155.12C199.763 155.12 199.273 155.02 198.833 154.82C198.393 154.62 198.018 154.35 197.708 154.01C197.408 153.67 197.173 153.275 197.003 152.825C196.833 152.365 196.748 151.88 196.748 151.37C196.748 150.85 196.828 150.36 196.988 149.9C197.158 149.44 197.393 149.04 197.693 148.7C198.003 148.36 198.373 148.09 198.803 147.89C199.243 147.69 199.733 147.59 200.273 147.59C200.783 147.59 201.258 147.695 201.698 147.905C202.138 148.115 202.488 148.44 202.748 148.88H202.778V147.8H204.488ZM200.648 149.06C200.318 149.06 200.023 149.12 199.763 149.24C199.513 149.36 199.298 149.525 199.118 149.735C198.948 149.935 198.813 150.175 198.713 150.455C198.623 150.735 198.578 151.035 198.578 151.355C198.578 151.645 198.623 151.925 198.713 152.195C198.813 152.465 198.948 152.71 199.118 152.93C199.298 153.14 199.513 153.31 199.763 153.44C200.023 153.57 200.313 153.635 200.633 153.635C200.963 153.635 201.258 153.575 201.518 153.455C201.788 153.325 202.013 153.155 202.193 152.945C202.383 152.735 202.528 152.495 202.628 152.225C202.728 151.945 202.778 151.655 202.778 151.355C202.778 151.045 202.728 150.75 202.628 150.47C202.528 150.19 202.383 149.945 202.193 149.735C202.013 149.525 201.793 149.36 201.533 149.24C201.273 149.12 200.978 149.06 200.648 149.06Z" fill="#A652FA"/>
<rect x="27.5" y="124.5" width="229" height="51" rx="7.5" stroke="#41434A"/>
<path d="M28.17 34.38H30.06V43.32H34.575V45H28.17V34.38ZM35.9961 37.8H37.7961V45H35.9961V37.8ZM35.7411 35.355C35.7411 35.065 35.8461 34.815 36.0561 34.605C36.2761 34.385 36.5511 34.275 36.8811 34.275C37.2111 34.275 37.4861 34.38 37.7061 34.59C37.9361 34.79 38.0511 35.045 38.0511 35.355C38.0511 35.665 37.9361 35.925 37.7061 36.135C37.4861 36.335 37.2111 36.435 36.8811 36.435C36.5511 36.435 36.2761 36.33 36.0561 36.12C35.8461 35.9 35.7411 35.645 35.7411 35.355ZM47.5248 37.8V44.355C47.5248 45.005 47.4448 45.59 47.2848 46.11C47.1248 46.64 46.8748 47.085 46.5348 47.445C46.2048 47.815 45.7848 48.1 45.2748 48.3C44.7648 48.5 44.1598 48.6 43.4598 48.6C43.1698 48.6 42.8598 48.575 42.5298 48.525C42.2098 48.475 41.8898 48.4 41.5698 48.3C41.2598 48.2 40.9598 48.075 40.6698 47.925C40.3798 47.775 40.1198 47.605 39.8898 47.415L40.9248 46.02C41.2748 46.35 41.6698 46.6 42.1098 46.77C42.5498 46.95 42.9948 47.04 43.4448 47.04C43.8748 47.04 44.2348 46.975 44.5248 46.845C44.8248 46.725 45.0598 46.555 45.2298 46.335C45.4098 46.115 45.5348 45.855 45.6048 45.555C45.6848 45.255 45.7248 44.925 45.7248 44.565V44.04H45.6948C45.4348 44.39 45.0998 44.66 44.6898 44.85C44.2898 45.03 43.8398 45.12 43.3398 45.12C42.7998 45.12 42.3098 45.02 41.8698 44.82C41.4298 44.62 41.0548 44.35 40.7448 44.01C40.4448 43.67 40.2098 43.275 40.0398 42.825C39.8698 42.365 39.7848 41.88 39.7848 41.37C39.7848 40.85 39.8648 40.36 40.0248 39.9C40.1948 39.44 40.4298 39.04 40.7298 38.7C41.0398 38.36 41.4098 38.09 41.8398 37.89C42.2798 37.69 42.7698 37.59 43.3098 37.59C43.8198 37.59 44.2948 37.695 44.7348 37.905C45.1748 38.115 45.5248 38.44 45.7848 38.88H45.8148V37.8H47.5248ZM43.6848 39.06C43.3548 39.06 43.0598 39.12 42.7998 39.24C42.5498 39.36 42.3348 39.525 42.1548 39.735C41.9848 39.935 41.8498 40.175 41.7498 40.455C41.6598 40.735 41.6148 41.035 41.6148 41.355C41.6148 41.645 41.6598 41.925 41.7498 42.195C41.8498 42.465 41.9848 42.71 42.1548 42.93C42.3348 43.14 42.5498 43.31 42.7998 43.44C43.0598 43.57 43.3498 43.635 43.6698 43.635C43.9998 43.635 44.2948 43.575 44.5548 43.455C44.8248 43.325 45.0498 43.155 45.2298 42.945C45.4198 42.735 45.5648 42.495 45.6648 42.225C45.7648 41.945 45.8148 41.655 45.8148 41.355C45.8148 41.045 45.7648 40.75 45.6648 40.47C45.5648 40.19 45.4198 39.945 45.2298 39.735C45.0498 39.525 44.8298 39.36 44.5698 39.24C44.3098 39.12 44.0148 39.06 43.6848 39.06ZM53.9123 37.59C54.3823 37.59 54.7823 37.675 55.1123 37.845C55.4523 38.005 55.7273 38.22 55.9373 38.49C56.1573 38.76 56.3173 39.07 56.4173 39.42C56.5173 39.77 56.5673 40.13 56.5673 40.5V45H54.7673V41.04C54.7673 40.83 54.7523 40.615 54.7223 40.395C54.6923 40.165 54.6273 39.96 54.5273 39.78C54.4373 39.59 54.3023 39.435 54.1223 39.315C53.9523 39.195 53.7223 39.135 53.4323 39.135C53.1423 39.135 52.8923 39.19 52.6823 39.3C52.4723 39.41 52.2973 39.56 52.1573 39.75C52.0173 39.93 51.9123 40.135 51.8423 40.365C51.7723 40.595 51.7373 40.83 51.7373 41.07V45H49.9373V33.66H51.7373V38.805H51.7673C51.8373 38.655 51.9373 38.51 52.0673 38.37C52.2073 38.22 52.3673 38.09 52.5473 37.98C52.7273 37.86 52.9323 37.765 53.1623 37.695C53.3923 37.625 53.6423 37.59 53.9123 37.59ZM57.8571 39.24V37.8H59.1171V35.715H60.8871V37.8H62.6871V39.24H60.8871V42.585C60.8871 42.905 60.9421 43.17 61.0521 43.38C61.1721 43.59 61.4321 43.695 61.8321 43.695C61.9521 43.695 62.0821 43.685 62.2221 43.665C62.3621 43.635 62.4871 43.595 62.5971 43.545L62.6571 44.955C62.4971 45.015 62.3071 45.06 62.0871 45.09C61.8671 45.13 61.6571 45.15 61.4571 45.15C60.9771 45.15 60.5871 45.085 60.2871 44.955C59.9871 44.815 59.7471 44.63 59.5671 44.4C59.3971 44.16 59.2771 43.89 59.2071 43.59C59.1471 43.28 59.1171 42.95 59.1171 42.6V39.24H57.8571ZM68.2798 34.38H72.4198C72.8198 34.38 73.2148 34.43 73.6048 34.53C73.9948 34.62 74.3398 34.775 74.6398 34.995C74.9498 35.205 75.1998 35.48 75.3898 35.82C75.5798 36.16 75.6748 36.57 75.6748 37.05C75.6748 37.65 75.5048 38.145 75.1648 38.535C74.8248 38.925 74.3798 39.205 73.8298 39.375V39.405C74.4998 39.495 75.0498 39.755 75.4798 40.185C75.9098 40.615 76.1248 41.19 76.1248 41.91C76.1248 42.49 76.0098 42.98 75.7798 43.38C75.5498 43.77 75.2448 44.085 74.8648 44.325C74.4948 44.565 74.0648 44.74 73.5748 44.85C73.0948 44.95 72.6048 45 72.1048 45H68.2798V34.38ZM70.1698 38.7H71.8498C72.4798 38.7 72.9598 38.575 73.2898 38.325C73.6198 38.075 73.7848 37.72 73.7848 37.26C73.7848 36.78 73.6148 36.44 73.2748 36.24C72.9348 36.04 72.4048 35.94 71.6848 35.94H70.1698V38.7ZM70.1698 43.41H71.8648C72.1048 43.41 72.3648 43.395 72.6448 43.365C72.9248 43.325 73.1798 43.25 73.4098 43.14C73.6498 43.03 73.8448 42.87 73.9948 42.66C74.1548 42.45 74.2348 42.17 74.2348 41.82C74.2348 41.26 74.0448 40.87 73.6648 40.65C73.2848 40.43 72.7098 40.32 71.9398 40.32H70.1698V43.41ZM82.5967 44.085H82.5517C82.3717 44.405 82.0817 44.67 81.6817 44.88C81.2817 45.08 80.8267 45.18 80.3167 45.18C80.0267 45.18 79.7217 45.14 79.4017 45.06C79.0917 44.99 78.8017 44.87 78.5317 44.7C78.2717 44.52 78.0517 44.29 77.8717 44.01C77.7017 43.72 77.6167 43.365 77.6167 42.945C77.6167 42.405 77.7667 41.975 78.0667 41.655C78.3767 41.335 78.7717 41.09 79.2517 40.92C79.7317 40.75 80.2617 40.64 80.8417 40.59C81.4317 40.53 82.0067 40.5 82.5667 40.5V40.32C82.5667 39.87 82.4017 39.54 82.0717 39.33C81.7517 39.11 81.3667 39 80.9167 39C80.5367 39 80.1717 39.08 79.8217 39.24C79.4717 39.4 79.1817 39.595 78.9517 39.825L78.0217 38.73C78.4317 38.35 78.9017 38.065 79.4317 37.875C79.9717 37.685 80.5167 37.59 81.0667 37.59C81.7067 37.59 82.2317 37.68 82.6417 37.86C83.0617 38.04 83.3917 38.275 83.6317 38.565C83.8717 38.855 84.0367 39.18 84.1267 39.54C84.2267 39.9 84.2767 40.26 84.2767 40.62V45H82.5967V44.085ZM82.5667 41.715H82.1617C81.8717 41.715 81.5667 41.73 81.2467 41.76C80.9267 41.78 80.6317 41.835 80.3617 41.925C80.0917 42.005 79.8667 42.125 79.6867 42.285C79.5067 42.435 79.4167 42.645 79.4167 42.915C79.4167 43.085 79.4517 43.23 79.5217 43.35C79.6017 43.46 79.7017 43.55 79.8217 43.62C79.9417 43.69 80.0767 43.74 80.2267 43.77C80.3767 43.8 80.5267 43.815 80.6767 43.815C81.2967 43.815 81.7667 43.65 82.0867 43.32C82.4067 42.99 82.5667 42.54 82.5667 41.97V41.715ZM91.5187 39.795C91.3787 39.595 91.1687 39.43 90.8887 39.3C90.6087 39.16 90.3237 39.09 90.0337 39.09C89.7037 39.09 89.4137 39.16 89.1637 39.3C88.9137 39.43 88.7037 39.605 88.5337 39.825C88.3737 40.045 88.2537 40.295 88.1737 40.575C88.0937 40.845 88.0537 41.12 88.0537 41.4C88.0537 41.68 88.0937 41.96 88.1737 42.24C88.2637 42.51 88.3937 42.755 88.5637 42.975C88.7337 43.195 88.9437 43.375 89.1937 43.515C89.4537 43.645 89.7537 43.71 90.0937 43.71C90.3737 43.71 90.6537 43.655 90.9337 43.545C91.2137 43.435 91.4387 43.275 91.6087 43.065L92.7337 44.205C92.4337 44.525 92.0487 44.775 91.5787 44.955C91.1187 45.125 90.6187 45.21 90.0787 45.21C89.5487 45.21 89.0437 45.125 88.5637 44.955C88.0937 44.785 87.6787 44.535 87.3187 44.205C86.9687 43.875 86.6887 43.475 86.4787 43.005C86.2787 42.535 86.1787 42 86.1787 41.4C86.1787 40.82 86.2787 40.295 86.4787 39.825C86.6887 39.355 86.9687 38.955 87.3187 38.625C87.6687 38.295 88.0737 38.04 88.5337 37.86C89.0037 37.68 89.5037 37.59 90.0337 37.59C90.5637 37.59 91.0737 37.69 91.5637 37.89C92.0637 38.09 92.4587 38.365 92.7487 38.715L91.5187 39.795ZM94.178 33.66H95.978V40.83H96.023L98.753 37.8H101.063L97.943 41.055L101.258 45H98.873L96.023 41.31H95.978V45H94.178V33.66ZM109.838 37.8V44.355C109.838 45.005 109.758 45.59 109.598 46.11C109.438 46.64 109.188 47.085 108.848 47.445C108.518 47.815 108.098 48.1 107.588 48.3C107.078 48.5 106.473 48.6 105.773 48.6C105.483 48.6 105.173 48.575 104.843 48.525C104.523 48.475 104.203 48.4 103.883 48.3C103.573 48.2 103.273 48.075 102.983 47.925C102.693 47.775 102.433 47.605 102.203 47.415L103.238 46.02C103.588 46.35 103.983 46.6 104.423 46.77C104.863 46.95 105.308 47.04 105.758 47.04C106.188 47.04 106.548 46.975 106.838 46.845C107.138 46.725 107.373 46.555 107.543 46.335C107.723 46.115 107.848 45.855 107.918 45.555C107.998 45.255 108.038 44.925 108.038 44.565V44.04H108.008C107.748 44.39 107.413 44.66 107.003 44.85C106.603 45.03 106.153 45.12 105.653 45.12C105.113 45.12 104.623 45.02 104.183 44.82C103.743 44.62 103.368 44.35 103.058 44.01C102.758 43.67 102.523 43.275 102.353 42.825C102.183 42.365 102.098 41.88 102.098 41.37C102.098 40.85 102.178 40.36 102.338 39.9C102.508 39.44 102.743 39.04 103.043 38.7C103.353 38.36 103.723 38.09 104.153 37.89C104.593 37.69 105.083 37.59 105.623 37.59C106.133 37.59 106.608 37.695 107.048 37.905C107.488 38.115 107.838 38.44 108.098 38.88H108.128V37.8H109.838ZM105.998 39.06C105.668 39.06 105.373 39.12 105.113 39.24C104.863 39.36 104.648 39.525 104.468 39.735C104.298 39.935 104.163 40.175 104.063 40.455C103.973 40.735 103.928 41.035 103.928 41.355C103.928 41.645 103.973 41.925 104.063 42.195C104.163 42.465 104.298 42.71 104.468 42.93C104.648 43.14 104.863 43.31 105.113 43.44C105.373 43.57 105.663 43.635 105.983 43.635C106.313 43.635 106.608 43.575 106.868 43.455C107.138 43.325 107.363 43.155 107.543 42.945C107.733 42.735 107.878 42.495 107.978 42.225C108.078 41.945 108.128 41.655 108.128 41.355C108.128 41.045 108.078 40.75 107.978 40.47C107.878 40.19 107.733 39.945 107.543 39.735C107.363 39.525 107.143 39.36 106.883 39.24C106.623 39.12 106.328 39.06 105.998 39.06ZM112.22 37.8H113.945V39H113.975C114.175 38.58 114.455 38.24 114.815 37.98C115.175 37.72 115.595 37.59 116.075 37.59C116.145 37.59 116.22 37.595 116.3 37.605C116.38 37.605 116.45 37.615 116.51 37.635V39.285C116.39 39.255 116.285 39.235 116.195 39.225C116.115 39.215 116.035 39.21 115.955 39.21C115.545 39.21 115.215 39.285 114.965 39.435C114.715 39.585 114.52 39.765 114.38 39.975C114.24 40.185 114.145 40.4 114.095 40.62C114.045 40.84 114.02 41.015 114.02 41.145V45H112.22V37.8ZM117.225 41.37C117.225 40.8 117.325 40.285 117.525 39.825C117.735 39.355 118.015 38.955 118.365 38.625C118.715 38.295 119.13 38.04 119.61 37.86C120.09 37.68 120.6 37.59 121.14 37.59C121.68 37.59 122.19 37.68 122.67 37.86C123.15 38.04 123.565 38.295 123.915 38.625C124.265 38.955 124.54 39.355 124.74 39.825C124.95 40.285 125.055 40.8 125.055 41.37C125.055 41.94 124.95 42.46 124.74 42.93C124.54 43.4 124.265 43.805 123.915 44.145C123.565 44.475 123.15 44.735 122.67 44.925C122.19 45.115 121.68 45.21 121.14 45.21C120.6 45.21 120.09 45.115 119.61 44.925C119.13 44.735 118.715 44.475 118.365 44.145C118.015 43.805 117.735 43.4 117.525 42.93C117.325 42.46 117.225 41.94 117.225 41.37ZM119.055 41.37C119.055 41.65 119.095 41.93 119.175 42.21C119.265 42.49 119.395 42.74 119.565 42.96C119.735 43.18 119.95 43.36 120.21 43.5C120.47 43.64 120.78 43.71 121.14 43.71C121.5 43.71 121.81 43.64 122.07 43.5C122.33 43.36 122.545 43.18 122.715 42.96C122.885 42.74 123.01 42.49 123.09 42.21C123.18 41.93 123.225 41.65 123.225 41.37C123.225 41.09 123.18 40.815 123.09 40.545C123.01 40.265 122.885 40.015 122.715 39.795C122.545 39.575 122.33 39.4 122.07 39.27C121.81 39.13 121.5 39.06 121.14 39.06C120.78 39.06 120.47 39.13 120.21 39.27C119.95 39.4 119.735 39.575 119.565 39.795C119.395 40.015 119.265 40.265 119.175 40.545C119.095 40.815 119.055 41.09 119.055 41.37ZM133.596 45H131.886V43.845H131.856C131.696 44.205 131.416 44.525 131.016 44.805C130.626 45.075 130.161 45.21 129.621 45.21C129.151 45.21 128.746 45.13 128.406 44.97C128.076 44.8 127.801 44.58 127.581 44.31C127.371 44.04 127.216 43.73 127.116 43.38C127.016 43.03 126.966 42.67 126.966 42.3V37.8H128.766V41.79C128.766 42 128.781 42.22 128.811 42.45C128.841 42.68 128.906 42.89 129.006 43.08C129.106 43.26 129.241 43.41 129.411 43.53C129.591 43.65 129.826 43.71 130.116 43.71C130.396 43.71 130.641 43.655 130.851 43.545C131.071 43.425 131.246 43.275 131.376 43.095C131.516 42.915 131.621 42.71 131.691 42.48C131.761 42.24 131.796 42 131.796 41.76V37.8H133.596V45ZM135.981 37.8H137.691V38.955H137.721C137.881 38.595 138.156 38.28 138.546 38.01C138.946 37.73 139.416 37.59 139.956 37.59C140.426 37.59 140.826 37.675 141.156 37.845C141.496 38.005 141.771 38.22 141.981 38.49C142.201 38.76 142.361 39.07 142.461 39.42C142.561 39.77 142.611 40.13 142.611 40.5V45H140.811V41.01C140.811 40.8 140.796 40.58 140.766 40.35C140.736 40.12 140.671 39.915 140.571 39.735C140.471 39.545 140.331 39.39 140.151 39.27C139.981 39.15 139.751 39.09 139.461 39.09C139.171 39.09 138.921 39.15 138.711 39.27C138.501 39.38 138.326 39.525 138.186 39.705C138.056 39.885 137.956 40.095 137.886 40.335C137.816 40.565 137.781 40.8 137.781 41.04V45H135.981V37.8ZM152.256 45H150.546V43.92H150.516C150.266 44.34 149.916 44.66 149.466 44.88C149.026 45.1 148.551 45.21 148.041 45.21C147.491 45.21 146.996 45.11 146.556 44.91C146.126 44.7 145.756 44.425 145.446 44.085C145.146 43.735 144.911 43.33 144.741 42.87C144.581 42.4 144.501 41.9 144.501 41.37C144.501 40.84 144.586 40.345 144.756 39.885C144.926 39.425 145.166 39.025 145.476 38.685C145.786 38.345 146.156 38.08 146.586 37.89C147.016 37.69 147.486 37.59 147.996 37.59C148.326 37.59 148.621 37.63 148.881 37.71C149.141 37.78 149.366 37.87 149.556 37.98C149.756 38.09 149.926 38.21 150.066 38.34C150.206 38.47 150.321 38.595 150.411 38.715H150.456V33.66H152.256V45ZM146.331 41.37C146.331 41.65 146.371 41.93 146.451 42.21C146.541 42.49 146.671 42.74 146.841 42.96C147.011 43.18 147.226 43.36 147.486 43.5C147.746 43.64 148.051 43.71 148.401 43.71C148.731 43.71 149.026 43.645 149.286 43.515C149.546 43.375 149.766 43.195 149.946 42.975C150.136 42.755 150.276 42.51 150.366 42.24C150.466 41.96 150.516 41.68 150.516 41.4C150.516 41.12 150.466 40.84 150.366 40.56C150.276 40.28 150.136 40.03 149.946 39.81C149.766 39.59 149.546 39.41 149.286 39.27C149.026 39.13 148.731 39.06 148.401 39.06C148.051 39.06 147.746 39.13 147.486 39.27C147.226 39.4 147.011 39.575 146.841 39.795C146.671 40.015 146.541 40.265 146.451 40.545C146.371 40.815 146.331 41.09 146.331 41.37Z" fill="#CED0D7"/>
<rect x="213" y="27.5" width="40" height="24" rx="8" fill="#52555E"/>
<rect x="215" y="29.5" width="20" height="20" rx="6" fill="#F0F1F5"/>
<path d="M28.17 86.38H31.935C32.625 86.38 33.32 86.47 34.02 86.65C34.72 86.83 35.35 87.13 35.91 87.55C36.47 87.96 36.925 88.505 37.275 89.185C37.625 89.855 37.8 90.69 37.8 91.69C37.8 92.62 37.625 93.42 37.275 94.09C36.925 94.76 36.47 95.31 35.91 95.74C35.35 96.17 34.72 96.49 34.02 96.7C33.32 96.9 32.625 97 31.935 97H28.17V86.38ZM31.635 95.35C32.125 95.35 32.615 95.295 33.105 95.185C33.595 95.065 34.035 94.87 34.425 94.6C34.825 94.32 35.15 93.945 35.4 93.475C35.65 93.005 35.775 92.41 35.775 91.69C35.775 90.93 35.65 90.31 35.4 89.83C35.15 89.35 34.825 88.975 34.425 88.705C34.035 88.435 33.595 88.25 33.105 88.15C32.615 88.05 32.125 88 31.635 88H30.06V95.35H31.635ZM44.2301 96.085H44.1851C44.0051 96.405 43.7151 96.67 43.3151 96.88C42.9151 97.08 42.4601 97.18 41.9501 97.18C41.6601 97.18 41.3551 97.14 41.0351 97.06C40.7251 96.99 40.4351 96.87 40.1651 96.7C39.9051 96.52 39.6851 96.29 39.5051 96.01C39.3351 95.72 39.2501 95.365 39.2501 94.945C39.2501 94.405 39.4001 93.975 39.7001 93.655C40.0101 93.335 40.4051 93.09 40.8851 92.92C41.3651 92.75 41.8951 92.64 42.4751 92.59C43.0651 92.53 43.6401 92.5 44.2001 92.5V92.32C44.2001 91.87 44.0351 91.54 43.7051 91.33C43.3851 91.11 43.0001 91 42.5501 91C42.1701 91 41.8051 91.08 41.4551 91.24C41.1051 91.4 40.8151 91.595 40.5851 91.825L39.6551 90.73C40.0651 90.35 40.5351 90.065 41.0651 89.875C41.6051 89.685 42.1501 89.59 42.7001 89.59C43.3401 89.59 43.8651 89.68 44.2751 89.86C44.6951 90.04 45.0251 90.275 45.2651 90.565C45.5051 90.855 45.6701 91.18 45.7601 91.54C45.8601 91.9 45.9101 92.26 45.9101 92.62V97H44.2301V96.085ZM44.2001 93.715H43.7951C43.5051 93.715 43.2001 93.73 42.8801 93.76C42.5601 93.78 42.2651 93.835 41.9951 93.925C41.7251 94.005 41.5001 94.125 41.3201 94.285C41.1401 94.435 41.0501 94.645 41.0501 94.915C41.0501 95.085 41.0851 95.23 41.1551 95.35C41.2351 95.46 41.3351 95.55 41.4551 95.62C41.5751 95.69 41.7101 95.74 41.8601 95.77C42.0101 95.8 42.1601 95.815 42.3101 95.815C42.9301 95.815 43.4001 95.65 43.7201 95.32C44.0401 94.99 44.2001 94.54 44.2001 93.97V93.715ZM48.2321 89.8H49.9571V91H49.9871C50.1871 90.58 50.4671 90.24 50.8271 89.98C51.1871 89.72 51.6071 89.59 52.0871 89.59C52.1571 89.59 52.2321 89.595 52.3121 89.605C52.3921 89.605 52.4621 89.615 52.5221 89.635V91.285C52.4021 91.255 52.2971 91.235 52.2071 91.225C52.1271 91.215 52.0471 91.21 51.9671 91.21C51.5571 91.21 51.2271 91.285 50.9771 91.435C50.7271 91.585 50.5321 91.765 50.3921 91.975C50.2521 92.185 50.1571 92.4 50.1071 92.62C50.0571 92.84 50.0321 93.015 50.0321 93.145V97H48.2321V89.8ZM53.951 85.66H55.751V92.83H55.796L58.526 89.8H60.836L57.716 93.055L61.031 97H58.646L55.796 93.31H55.751V97H53.951V85.66ZM66.3555 86.38H70.4955C70.8955 86.38 71.2905 86.43 71.6805 86.53C72.0705 86.62 72.4155 86.775 72.7155 86.995C73.0255 87.205 73.2755 87.48 73.4655 87.82C73.6555 88.16 73.7505 88.57 73.7505 89.05C73.7505 89.65 73.5805 90.145 73.2405 90.535C72.9005 90.925 72.4555 91.205 71.9055 91.375V91.405C72.5755 91.495 73.1255 91.755 73.5555 92.185C73.9855 92.615 74.2005 93.19 74.2005 93.91C74.2005 94.49 74.0855 94.98 73.8555 95.38C73.6255 95.77 73.3205 96.085 72.9405 96.325C72.5705 96.565 72.1405 96.74 71.6505 96.85C71.1705 96.95 70.6805 97 70.1805 97H66.3555V86.38ZM68.2455 90.7H69.9255C70.5555 90.7 71.0355 90.575 71.3655 90.325C71.6955 90.075 71.8605 89.72 71.8605 89.26C71.8605 88.78 71.6905 88.44 71.3505 88.24C71.0105 88.04 70.4805 87.94 69.7605 87.94H68.2455V90.7ZM68.2455 95.41H69.9405C70.1805 95.41 70.4405 95.395 70.7205 95.365C71.0005 95.325 71.2555 95.25 71.4855 95.14C71.7255 95.03 71.9205 94.87 72.0705 94.66C72.2305 94.45 72.3105 94.17 72.3105 93.82C72.3105 93.26 72.1205 92.87 71.7405 92.65C71.3605 92.43 70.7855 92.32 70.0155 92.32H68.2455V95.41ZM80.6725 96.085H80.6275C80.4475 96.405 80.1575 96.67 79.7575 96.88C79.3575 97.08 78.9025 97.18 78.3925 97.18C78.1025 97.18 77.7975 97.14 77.4775 97.06C77.1675 96.99 76.8775 96.87 76.6075 96.7C76.3475 96.52 76.1275 96.29 75.9475 96.01C75.7775 95.72 75.6925 95.365 75.6925 94.945C75.6925 94.405 75.8425 93.975 76.1425 93.655C76.4525 93.335 76.8475 93.09 77.3275 92.92C77.8075 92.75 78.3375 92.64 78.9175 92.59C79.5075 92.53 80.0825 92.5 80.6425 92.5V92.32C80.6425 91.87 80.4775 91.54 80.1475 91.33C79.8275 91.11 79.4425 91 78.9925 91C78.6125 91 78.2475 91.08 77.8975 91.24C77.5475 91.4 77.2575 91.595 77.0275 91.825L76.0975 90.73C76.5075 90.35 76.9775 90.065 77.5075 89.875C78.0475 89.685 78.5925 89.59 79.1425 89.59C79.7825 89.59 80.3075 89.68 80.7175 89.86C81.1375 90.04 81.4675 90.275 81.7075 90.565C81.9475 90.855 82.1125 91.18 82.2025 91.54C82.3025 91.9 82.3525 92.26 82.3525 92.62V97H80.6725V96.085ZM80.6425 93.715H80.2375C79.9475 93.715 79.6425 93.73 79.3225 93.76C79.0025 93.78 78.7075 93.835 78.4375 93.925C78.1675 94.005 77.9425 94.125 77.7625 94.285C77.5825 94.435 77.4925 94.645 77.4925 94.915C77.4925 95.085 77.5275 95.23 77.5975 95.35C77.6775 95.46 77.7775 95.55 77.8975 95.62C78.0175 95.69 78.1525 95.74 78.3025 95.77C78.4525 95.8 78.6025 95.815 78.7525 95.815C79.3725 95.815 79.8425 95.65 80.1625 95.32C80.4825 94.99 80.6425 94.54 80.6425 93.97V93.715ZM89.5945 91.795C89.4545 91.595 89.2445 91.43 88.9645 91.3C88.6845 91.16 88.3995 91.09 88.1095 91.09C87.7795 91.09 87.4895 91.16 87.2395 91.3C86.9895 91.43 86.7795 91.605 86.6095 91.825C86.4495 92.045 86.3295 92.295 86.2495 92.575C86.1695 92.845 86.1295 93.12 86.1295 93.4C86.1295 93.68 86.1695 93.96 86.2495 94.24C86.3395 94.51 86.4695 94.755 86.6395 94.975C86.8095 95.195 87.0195 95.375 87.2695 95.515C87.5295 95.645 87.8295 95.71 88.1695 95.71C88.4495 95.71 88.7295 95.655 89.0095 95.545C89.2895 95.435 89.5145 95.275 89.6845 95.065L90.8095 96.205C90.5095 96.525 90.1245 96.775 89.6545 96.955C89.1945 97.125 88.6945 97.21 88.1545 97.21C87.6245 97.21 87.1195 97.125 86.6395 96.955C86.1695 96.785 85.7545 96.535 85.3945 96.205C85.0445 95.875 84.7645 95.475 84.5545 95.005C84.3545 94.535 84.2545 94 84.2545 93.4C84.2545 92.82 84.3545 92.295 84.5545 91.825C84.7645 91.355 85.0445 90.955 85.3945 90.625C85.7445 90.295 86.1495 90.04 86.6095 89.86C87.0795 89.68 87.5795 89.59 88.1095 89.59C88.6395 89.59 89.1495 89.69 89.6395 89.89C90.1395 90.09 90.5345 90.365 90.8245 90.715L89.5945 91.795ZM92.2538 85.66H94.0538V92.83H94.0988L96.8288 89.8H99.1388L96.0188 93.055L99.3338 97H96.9488L94.0988 93.31H94.0538V97H92.2538V85.66ZM107.913 89.8V96.355C107.913 97.005 107.833 97.59 107.673 98.11C107.513 98.64 107.263 99.085 106.923 99.445C106.593 99.815 106.173 100.1 105.663 100.3C105.153 100.5 104.548 100.6 103.848 100.6C103.558 100.6 103.248 100.575 102.918 100.525C102.598 100.475 102.278 100.4 101.958 100.3C101.648 100.2 101.348 100.075 101.058 99.925C100.768 99.775 100.508 99.605 100.278 99.415L101.313 98.02C101.663 98.35 102.058 98.6 102.498 98.77C102.938 98.95 103.383 99.04 103.833 99.04C104.263 99.04 104.623 98.975 104.913 98.845C105.213 98.725 105.448 98.555 105.618 98.335C105.798 98.115 105.923 97.855 105.993 97.555C106.073 97.255 106.113 96.925 106.113 96.565V96.04H106.083C105.823 96.39 105.488 96.66 105.078 96.85C104.678 97.03 104.228 97.12 103.728 97.12C103.188 97.12 102.698 97.02 102.258 96.82C101.818 96.62 101.443 96.35 101.133 96.01C100.833 95.67 100.598 95.275 100.428 94.825C100.258 94.365 100.173 93.88 100.173 93.37C100.173 92.85 100.253 92.36 100.413 91.9C100.583 91.44 100.818 91.04 101.118 90.7C101.428 90.36 101.798 90.09 102.228 89.89C102.668 89.69 103.158 89.59 103.698 89.59C104.208 89.59 104.683 89.695 105.123 89.905C105.563 90.115 105.913 90.44 106.173 90.88H106.203V89.8H107.913ZM104.073 91.06C103.743 91.06 103.448 91.12 103.188 91.24C102.938 91.36 102.723 91.525 102.543 91.735C102.373 91.935 102.238 92.175 102.138 92.455C102.048 92.735 102.003 93.035 102.003 93.355C102.003 93.645 102.048 93.925 102.138 94.195C102.238 94.465 102.373 94.71 102.543 94.93C102.723 95.14 102.938 95.31 103.188 95.44C103.448 95.57 103.738 95.635 104.058 95.635C104.388 95.635 104.683 95.575 104.943 95.455C105.213 95.325 105.438 95.155 105.618 94.945C105.808 94.735 105.953 94.495 106.053 94.225C106.153 93.945 106.203 93.655 106.203 93.355C106.203 93.045 106.153 92.75 106.053 92.47C105.953 92.19 105.808 91.945 105.618 91.735C105.438 91.525 105.218 91.36 104.958 91.24C104.698 91.12 104.403 91.06 104.073 91.06ZM110.296 89.8H112.021V91H112.051C112.251 90.58 112.531 90.24 112.891 89.98C113.251 89.72 113.671 89.59 114.151 89.59C114.221 89.59 114.296 89.595 114.376 89.605C114.456 89.605 114.526 89.615 114.586 89.635V91.285C114.466 91.255 114.361 91.235 114.271 91.225C114.191 91.215 114.111 91.21 114.031 91.21C113.621 91.21 113.291 91.285 113.041 91.435C112.791 91.585 112.596 91.765 112.456 91.975C112.316 92.185 112.221 92.4 112.171 92.62C112.121 92.84 112.096 93.015 112.096 93.145V97H110.296V89.8ZM115.301 93.37C115.301 92.8 115.401 92.285 115.601 91.825C115.811 91.355 116.091 90.955 116.441 90.625C116.791 90.295 117.206 90.04 117.686 89.86C118.166 89.68 118.676 89.59 119.216 89.59C119.756 89.59 120.266 89.68 120.746 89.86C121.226 90.04 121.641 90.295 121.991 90.625C122.341 90.955 122.616 91.355 122.816 91.825C123.026 92.285 123.131 92.8 123.131 93.37C123.131 93.94 123.026 94.46 122.816 94.93C122.616 95.4 122.341 95.805 121.991 96.145C121.641 96.475 121.226 96.735 120.746 96.925C120.266 97.115 119.756 97.21 119.216 97.21C118.676 97.21 118.166 97.115 117.686 96.925C117.206 96.735 116.791 96.475 116.441 96.145C116.091 95.805 115.811 95.4 115.601 94.93C115.401 94.46 115.301 93.94 115.301 93.37ZM117.131 93.37C117.131 93.65 117.171 93.93 117.251 94.21C117.341 94.49 117.471 94.74 117.641 94.96C117.811 95.18 118.026 95.36 118.286 95.5C118.546 95.64 118.856 95.71 119.216 95.71C119.576 95.71 119.886 95.64 120.146 95.5C120.406 95.36 120.621 95.18 120.791 94.96C120.961 94.74 121.086 94.49 121.166 94.21C121.256 93.93 121.301 93.65 121.301 93.37C121.301 93.09 121.256 92.815 121.166 92.545C121.086 92.265 120.961 92.015 120.791 91.795C120.621 91.575 120.406 91.4 120.146 91.27C119.886 91.13 119.576 91.06 119.216 91.06C118.856 91.06 118.546 91.13 118.286 91.27C118.026 91.4 117.811 91.575 117.641 91.795C117.471 92.015 117.341 92.265 117.251 92.545C117.171 92.815 117.131 93.09 117.131 93.37ZM131.671 97H129.961V95.845H129.931C129.771 96.205 129.491 96.525 129.091 96.805C128.701 97.075 128.236 97.21 127.696 97.21C127.226 97.21 126.821 97.13 126.481 96.97C126.151 96.8 125.876 96.58 125.656 96.31C125.446 96.04 125.291 95.73 125.191 95.38C125.091 95.03 125.041 94.67 125.041 94.3V89.8H126.841V93.79C126.841 94 126.856 94.22 126.886 94.45C126.916 94.68 126.981 94.89 127.081 95.08C127.181 95.26 127.316 95.41 127.486 95.53C127.666 95.65 127.901 95.71 128.191 95.71C128.471 95.71 128.716 95.655 128.926 95.545C129.146 95.425 129.321 95.275 129.451 95.095C129.591 94.915 129.696 94.71 129.766 94.48C129.836 94.24 129.871 94 129.871 93.76V89.8H131.671V97ZM134.057 89.8H135.767V90.955H135.797C135.957 90.595 136.232 90.28 136.622 90.01C137.022 89.73 137.492 89.59 138.032 89.59C138.502 89.59 138.902 89.675 139.232 89.845C139.572 90.005 139.847 90.22 140.057 90.49C140.277 90.76 140.437 91.07 140.537 91.42C140.637 91.77 140.687 92.13 140.687 92.5V97H138.887V93.01C138.887 92.8 138.872 92.58 138.842 92.35C138.812 92.12 138.747 91.915 138.647 91.735C138.547 91.545 138.407 91.39 138.227 91.27C138.057 91.15 137.827 91.09 137.537 91.09C137.247 91.09 136.997 91.15 136.787 91.27C136.577 91.38 136.402 91.525 136.262 91.705C136.132 91.885 136.032 92.095 135.962 92.335C135.892 92.565 135.857 92.8 135.857 93.04V97H134.057V89.8ZM150.332 97H148.622V95.92H148.592C148.342 96.34 147.992 96.66 147.542 96.88C147.102 97.1 146.627 97.21 146.117 97.21C145.567 97.21 145.072 97.11 144.632 96.91C144.202 96.7 143.832 96.425 143.522 96.085C143.222 95.735 142.987 95.33 142.817 94.87C142.657 94.4 142.577 93.9 142.577 93.37C142.577 92.84 142.662 92.345 142.832 91.885C143.002 91.425 143.242 91.025 143.552 90.685C143.862 90.345 144.232 90.08 144.662 89.89C145.092 89.69 145.562 89.59 146.072 89.59C146.402 89.59 146.697 89.63 146.957 89.71C147.217 89.78 147.442 89.87 147.632 89.98C147.832 90.09 148.002 90.21 148.142 90.34C148.282 90.47 148.397 90.595 148.487 90.715H148.532V85.66H150.332V97ZM144.407 93.37C144.407 93.65 144.447 93.93 144.527 94.21C144.617 94.49 144.747 94.74 144.917 94.96C145.087 95.18 145.302 95.36 145.562 95.5C145.822 95.64 146.127 95.71 146.477 95.71C146.807 95.71 147.102 95.645 147.362 95.515C147.622 95.375 147.842 95.195 148.022 94.975C148.212 94.755 148.352 94.51 148.442 94.24C148.542 93.96 148.592 93.68 148.592 93.4C148.592 93.12 148.542 92.84 148.442 92.56C148.352 92.28 148.212 92.03 148.022 91.81C147.842 91.59 147.622 91.41 147.362 91.27C147.102 91.13 146.807 91.06 146.477 91.06C146.127 91.06 145.822 91.13 145.562 91.27C145.302 91.4 145.087 91.575 144.917 91.795C144.747 92.015 144.617 92.265 144.527 92.545C144.447 92.815 144.407 93.09 144.407 93.37Z" fill="#CED0D7"/>
<rect x="213" y="79.5" width="40" height="24" rx="8" fill="#A652FA"/>
<rect x="231" y="81.5" width="20" height="20" rx="6" fill="#F6F6F8"/>
</svg>
