<svg width="284" height="199" viewBox="0 0 284 199" fill="none" xmlns="http://www.w3.org/2000/svg">
<rect y="0.449219" width="284" height="198" rx="16" fill="#1C1D21"/>
<path d="M72.5 34.38H74.135L78.71 45H76.55L75.56 42.57H70.955L69.995 45H67.88L72.5 34.38ZM74.9 40.95L73.265 36.63L71.6 40.95H74.9ZM87.2158 45H85.5058V43.92H85.4758C85.2258 44.34 84.8758 44.66 84.4258 44.88C83.9858 45.1 83.5108 45.21 83.0008 45.21C82.4508 45.21 81.9558 45.11 81.5158 44.91C81.0858 44.7 80.7158 44.425 80.4058 44.085C80.1058 43.735 79.8708 43.33 79.7008 42.87C79.5408 42.4 79.4608 41.9 79.4608 41.37C79.4608 40.84 79.5458 40.345 79.7158 39.885C79.8858 39.425 80.1258 39.025 80.4358 38.685C80.7458 38.345 81.1158 38.08 81.5458 37.89C81.9758 37.69 82.4458 37.59 82.9558 37.59C83.2858 37.59 83.5808 37.63 83.8408 37.71C84.1008 37.78 84.3258 37.87 84.5158 37.98C84.7158 38.09 84.8858 38.21 85.0258 38.34C85.1658 38.47 85.2808 38.595 85.3708 38.715H85.4158V33.66H87.2158V45ZM81.2908 41.37C81.2908 41.65 81.3308 41.93 81.4108 42.21C81.5008 42.49 81.6308 42.74 81.8008 42.96C81.9708 43.18 82.1858 43.36 82.4458 43.5C82.7058 43.64 83.0108 43.71 83.3608 43.71C83.6908 43.71 83.9858 43.645 84.2458 43.515C84.5058 43.375 84.7258 43.195 84.9058 42.975C85.0958 42.755 85.2358 42.51 85.3258 42.24C85.4258 41.96 85.4758 41.68 85.4758 41.4C85.4758 41.12 85.4258 40.84 85.3258 40.56C85.2358 40.28 85.0958 40.03 84.9058 39.81C84.7258 39.59 84.5058 39.41 84.2458 39.27C83.9858 39.13 83.6908 39.06 83.3608 39.06C83.0108 39.06 82.7058 39.13 82.4458 39.27C82.1858 39.4 81.9708 39.575 81.8008 39.795C81.6308 40.015 81.5008 40.265 81.4108 40.545C81.3308 40.815 81.2908 41.09 81.2908 41.37ZM96.9477 45H95.2377V43.92H95.2077C94.9577 44.34 94.6077 44.66 94.1577 44.88C93.7177 45.1 93.2427 45.21 92.7327 45.21C92.1827 45.21 91.6877 45.11 91.2477 44.91C90.8177 44.7 90.4477 44.425 90.1377 44.085C89.8377 43.735 89.6027 43.33 89.4327 42.87C89.2727 42.4 89.1927 41.9 89.1927 41.37C89.1927 40.84 89.2777 40.345 89.4477 39.885C89.6177 39.425 89.8577 39.025 90.1677 38.685C90.4777 38.345 90.8477 38.08 91.2777 37.89C91.7077 37.69 92.1777 37.59 92.6877 37.59C93.0177 37.59 93.3127 37.63 93.5727 37.71C93.8327 37.78 94.0577 37.87 94.2477 37.98C94.4477 38.09 94.6177 38.21 94.7577 38.34C94.8977 38.47 95.0127 38.595 95.1027 38.715H95.1477V33.66H96.9477V45ZM91.0227 41.37C91.0227 41.65 91.0627 41.93 91.1427 42.21C91.2327 42.49 91.3627 42.74 91.5327 42.96C91.7027 43.18 91.9177 43.36 92.1777 43.5C92.4377 43.64 92.7427 43.71 93.0927 43.71C93.4227 43.71 93.7177 43.645 93.9777 43.515C94.2377 43.375 94.4577 43.195 94.6377 42.975C94.8277 42.755 94.9677 42.51 95.0577 42.24C95.1577 41.96 95.2077 41.68 95.2077 41.4C95.2077 41.12 95.1577 40.84 95.0577 40.56C94.9677 40.28 94.8277 40.03 94.6377 39.81C94.4577 39.59 94.2377 39.41 93.9777 39.27C93.7177 39.13 93.4227 39.06 93.0927 39.06C92.7427 39.06 92.4377 39.13 92.1777 39.27C91.9177 39.4 91.7027 39.575 91.5327 39.795C91.3627 40.015 91.2327 40.265 91.1427 40.545C91.0627 40.815 91.0227 41.09 91.0227 41.37ZM102.779 43.29L108.554 36.03H102.869V34.38H110.804V36.09L104.999 43.32H110.894V45H102.779V43.29ZM112.134 41.37C112.134 40.8 112.234 40.285 112.434 39.825C112.644 39.355 112.924 38.955 113.274 38.625C113.624 38.295 114.039 38.04 114.519 37.86C114.999 37.68 115.509 37.59 116.049 37.59C116.589 37.59 117.099 37.68 117.579 37.86C118.059 38.04 118.474 38.295 118.824 38.625C119.174 38.955 119.449 39.355 119.649 39.825C119.859 40.285 119.964 40.8 119.964 41.37C119.964 41.94 119.859 42.46 119.649 42.93C119.449 43.4 119.174 43.805 118.824 44.145C118.474 44.475 118.059 44.735 117.579 44.925C117.099 45.115 116.589 45.21 116.049 45.21C115.509 45.21 114.999 45.115 114.519 44.925C114.039 44.735 113.624 44.475 113.274 44.145C112.924 43.805 112.644 43.4 112.434 42.93C112.234 42.46 112.134 41.94 112.134 41.37ZM113.964 41.37C113.964 41.65 114.004 41.93 114.084 42.21C114.174 42.49 114.304 42.74 114.474 42.96C114.644 43.18 114.859 43.36 115.119 43.5C115.379 43.64 115.689 43.71 116.049 43.71C116.409 43.71 116.719 43.64 116.979 43.5C117.239 43.36 117.454 43.18 117.624 42.96C117.794 42.74 117.919 42.49 117.999 42.21C118.089 41.93 118.134 41.65 118.134 41.37C118.134 41.09 118.089 40.815 117.999 40.545C117.919 40.265 117.794 40.015 117.624 39.795C117.454 39.575 117.239 39.4 116.979 39.27C116.719 39.13 116.409 39.06 116.049 39.06C115.689 39.06 115.379 39.13 115.119 39.27C114.859 39.4 114.644 39.575 114.474 39.795C114.304 40.015 114.174 40.265 114.084 40.545C114.004 40.815 113.964 41.09 113.964 41.37ZM121.514 41.37C121.514 40.8 121.614 40.285 121.814 39.825C122.024 39.355 122.304 38.955 122.654 38.625C123.004 38.295 123.419 38.04 123.899 37.86C124.379 37.68 124.889 37.59 125.429 37.59C125.969 37.59 126.479 37.68 126.959 37.86C127.439 38.04 127.854 38.295 128.204 38.625C128.554 38.955 128.829 39.355 129.029 39.825C129.239 40.285 129.344 40.8 129.344 41.37C129.344 41.94 129.239 42.46 129.029 42.93C128.829 43.4 128.554 43.805 128.204 44.145C127.854 44.475 127.439 44.735 126.959 44.925C126.479 45.115 125.969 45.21 125.429 45.21C124.889 45.21 124.379 45.115 123.899 44.925C123.419 44.735 123.004 44.475 122.654 44.145C122.304 43.805 122.024 43.4 121.814 42.93C121.614 42.46 121.514 41.94 121.514 41.37ZM123.344 41.37C123.344 41.65 123.384 41.93 123.464 42.21C123.554 42.49 123.684 42.74 123.854 42.96C124.024 43.18 124.239 43.36 124.499 43.5C124.759 43.64 125.069 43.71 125.429 43.71C125.789 43.71 126.099 43.64 126.359 43.5C126.619 43.36 126.834 43.18 127.004 42.96C127.174 42.74 127.299 42.49 127.379 42.21C127.469 41.93 127.514 41.65 127.514 41.37C127.514 41.09 127.469 40.815 127.379 40.545C127.299 40.265 127.174 40.015 127.004 39.795C126.834 39.575 126.619 39.4 126.359 39.27C126.099 39.13 125.789 39.06 125.429 39.06C125.069 39.06 124.759 39.13 124.499 39.27C124.239 39.4 124.024 39.575 123.854 39.795C123.684 40.015 123.554 40.265 123.464 40.545C123.384 40.815 123.344 41.09 123.344 41.37ZM139.909 37.59C140.379 37.59 140.779 37.675 141.109 37.845C141.449 38.005 141.724 38.22 141.934 38.49C142.154 38.76 142.314 39.07 142.414 39.42C142.514 39.77 142.564 40.13 142.564 40.5V45H140.764V41.01C140.764 40.8 140.749 40.58 140.719 40.35C140.689 40.12 140.624 39.915 140.524 39.735C140.424 39.545 140.284 39.39 140.104 39.27C139.934 39.15 139.704 39.09 139.414 39.09C139.134 39.09 138.894 39.15 138.694 39.27C138.494 39.39 138.329 39.545 138.199 39.735C138.069 39.925 137.974 40.14 137.914 40.38C137.854 40.61 137.824 40.84 137.824 41.07V45H136.024V40.65C136.024 40.2 135.914 39.83 135.694 39.54C135.484 39.24 135.149 39.09 134.689 39.09C134.419 39.09 134.184 39.15 133.984 39.27C133.784 39.38 133.619 39.525 133.489 39.705C133.369 39.885 133.274 40.095 133.204 40.335C133.144 40.565 133.114 40.8 133.114 41.04V45H131.314V37.8H133.024V38.955H133.054C133.134 38.775 133.239 38.605 133.369 38.445C133.509 38.285 133.669 38.14 133.849 38.01C134.039 37.88 134.254 37.78 134.494 37.71C134.734 37.63 134.999 37.59 135.289 37.59C135.849 37.59 136.314 37.715 136.684 37.965C137.054 38.215 137.339 38.545 137.539 38.955C137.779 38.515 138.099 38.18 138.499 37.95C138.899 37.71 139.369 37.59 139.909 37.59Z" fill="#CED0D7"/>
<rect x="213" y="27.5" width="40" height="24" rx="8" fill="#52555E"/>
<rect x="215" y="29.5" width="20" height="20" rx="6" fill="#F0F1F5"/>
<path fill-rule="evenodd" clip-rule="evenodd" d="M45.002 30.4963C46.6588 30.4963 48.002 31.8395 48.002 33.4963V45.5038C48.002 47.1607 46.6588 48.5038 45.002 48.5038H32.9945C31.3376 48.5038 29.9945 47.1607 29.9945 45.5038V33.4963C29.9945 31.8395 31.3376 30.4963 32.9945 30.4963H45.002Z" stroke="#CED0D7" stroke-width="1.5" stroke-linecap="round" stroke-linejoin="round"/>
<path d="M40.457 35.4885H42.5792V37.6107" stroke="#CED0D7" stroke-width="1.5" stroke-linecap="round" stroke-linejoin="round"/>
<path d="M34.4746 43.5938L41.5189 36.5494" stroke="#CED0D7" stroke-width="1.5" stroke-linecap="round"/>
<path d="M84.8685 144.38H86.5035L91.0785 155H88.9185L87.9285 152.57H83.3235L82.3635 155H80.2485L84.8685 144.38ZM87.2685 150.95L85.6335 146.63L83.9685 150.95H87.2685ZM93.9893 147.8V148.805H94.0343C94.1243 148.665 94.2393 148.525 94.3793 148.385C94.5293 148.235 94.7093 148.105 94.9193 147.995C95.1293 147.875 95.3643 147.78 95.6243 147.71C95.8943 147.63 96.1943 147.59 96.5243 147.59C97.0343 147.59 97.5043 147.69 97.9343 147.89C98.3643 148.08 98.7343 148.345 99.0443 148.685C99.3543 149.025 99.5943 149.425 99.7643 149.885C99.9343 150.345 100.019 150.84 100.019 151.37C100.019 151.9 99.9343 152.4 99.7643 152.87C99.6043 153.33 99.3693 153.735 99.0593 154.085C98.7593 154.425 98.3893 154.7 97.9493 154.91C97.5193 155.11 97.0293 155.21 96.4793 155.21C95.9693 155.21 95.4993 155.105 95.0693 154.895C94.6493 154.685 94.3243 154.4 94.0943 154.04H94.0643V158.6H92.2643V147.8H93.9893ZM98.1893 151.37C98.1893 151.09 98.1443 150.815 98.0543 150.545C97.9743 150.265 97.8493 150.015 97.6793 149.795C97.5093 149.575 97.2943 149.4 97.0343 149.27C96.7743 149.13 96.4693 149.06 96.1193 149.06C95.7893 149.06 95.4943 149.13 95.2343 149.27C94.9743 149.41 94.7493 149.59 94.5593 149.81C94.3793 150.03 94.2393 150.28 94.1393 150.56C94.0493 150.84 94.0043 151.12 94.0043 151.4C94.0043 151.68 94.0493 151.96 94.1393 152.24C94.2393 152.51 94.3793 152.755 94.5593 152.975C94.7493 153.195 94.9743 153.375 95.2343 153.515C95.4943 153.645 95.7893 153.71 96.1193 153.71C96.4693 153.71 96.7743 153.64 97.0343 153.5C97.2943 153.36 97.5093 153.18 97.6793 152.96C97.8493 152.74 97.9743 152.49 98.0543 152.21C98.1443 151.93 98.1893 151.65 98.1893 151.37ZM103.706 147.8V148.805H103.751C103.841 148.665 103.956 148.525 104.096 148.385C104.246 148.235 104.426 148.105 104.636 147.995C104.846 147.875 105.081 147.78 105.341 147.71C105.611 147.63 105.911 147.59 106.241 147.59C106.751 147.59 107.221 147.69 107.651 147.89C108.081 148.08 108.451 148.345 108.761 148.685C109.071 149.025 109.311 149.425 109.481 149.885C109.651 150.345 109.736 150.84 109.736 151.37C109.736 151.9 109.651 152.4 109.481 152.87C109.321 153.33 109.086 153.735 108.776 154.085C108.476 154.425 108.106 154.7 107.666 154.91C107.236 155.11 106.746 155.21 106.196 155.21C105.686 155.21 105.216 155.105 104.786 154.895C104.366 154.685 104.041 154.4 103.811 154.04H103.781V158.6H101.981V147.8H103.706ZM107.906 151.37C107.906 151.09 107.861 150.815 107.771 150.545C107.691 150.265 107.566 150.015 107.396 149.795C107.226 149.575 107.011 149.4 106.751 149.27C106.491 149.13 106.186 149.06 105.836 149.06C105.506 149.06 105.211 149.13 104.951 149.27C104.691 149.41 104.466 149.59 104.276 149.81C104.096 150.03 103.956 150.28 103.856 150.56C103.766 150.84 103.721 151.12 103.721 151.4C103.721 151.68 103.766 151.96 103.856 152.24C103.956 152.51 104.096 152.755 104.276 152.975C104.466 153.195 104.691 153.375 104.951 153.515C105.211 153.645 105.506 153.71 105.836 153.71C106.186 153.71 106.491 153.64 106.751 153.5C107.011 153.36 107.226 153.18 107.396 152.96C107.566 152.74 107.691 152.49 107.771 152.21C107.861 151.93 107.906 151.65 107.906 151.37ZM111.729 143.66H113.529V155H111.729V143.66ZM114.857 147.8H116.852L118.862 153.035H118.892L120.677 147.8H122.552L119.147 156.545C119.017 156.875 118.877 157.165 118.727 157.415C118.577 157.675 118.397 157.89 118.187 158.06C117.977 158.24 117.727 158.375 117.437 158.465C117.157 158.555 116.817 158.6 116.417 158.6C116.267 158.6 116.112 158.59 115.952 158.57C115.802 158.56 115.647 158.535 115.487 158.495L115.637 156.935C115.757 156.975 115.872 157 115.982 157.01C116.102 157.03 116.212 157.04 116.312 157.04C116.502 157.04 116.662 157.015 116.792 156.965C116.922 156.925 117.032 156.855 117.122 156.755C117.212 156.665 117.292 156.55 117.362 156.41C117.432 156.27 117.507 156.105 117.587 155.915L117.947 155L114.857 147.8ZM130.984 144.38H132.619L137.194 155H135.034L134.044 152.57H129.439L128.479 155H126.364L130.984 144.38ZM133.384 150.95L131.749 146.63L130.084 150.95H133.384ZM138.47 144.38H140.36V155H138.47V144.38ZM146.903 144.38H150.668C151.358 144.38 152.053 144.47 152.753 144.65C153.453 144.83 154.083 145.13 154.643 145.55C155.203 145.96 155.658 146.505 156.008 147.185C156.358 147.855 156.533 148.69 156.533 149.69C156.533 150.62 156.358 151.42 156.008 152.09C155.658 152.76 155.203 153.31 154.643 153.74C154.083 154.17 153.453 154.49 152.753 154.7C152.053 154.9 151.358 155 150.668 155H146.903V144.38ZM150.368 153.35C150.858 153.35 151.348 153.295 151.838 153.185C152.328 153.065 152.768 152.87 153.158 152.6C153.558 152.32 153.883 151.945 154.133 151.475C154.383 151.005 154.508 150.41 154.508 149.69C154.508 148.93 154.383 148.31 154.133 147.83C153.883 147.35 153.558 146.975 153.158 146.705C152.768 146.435 152.328 146.25 151.838 146.15C151.348 146.05 150.858 146 150.368 146H148.793V153.35H150.368ZM158.523 147.8H160.323V155H158.523V147.8ZM158.268 145.355C158.268 145.065 158.373 144.815 158.583 144.605C158.803 144.385 159.078 144.275 159.408 144.275C159.738 144.275 160.013 144.38 160.233 144.59C160.463 144.79 160.578 145.045 160.578 145.355C160.578 145.665 160.463 145.925 160.233 146.135C160.013 146.335 159.738 146.435 159.408 146.435C159.078 146.435 158.803 146.33 158.583 146.12C158.373 145.9 158.268 145.645 158.268 145.355ZM162.732 147.8H164.457V149H164.487C164.687 148.58 164.967 148.24 165.327 147.98C165.687 147.72 166.107 147.59 166.587 147.59C166.657 147.59 166.732 147.595 166.812 147.605C166.892 147.605 166.962 147.615 167.022 147.635V149.285C166.902 149.255 166.797 149.235 166.707 149.225C166.627 149.215 166.547 149.21 166.467 149.21C166.057 149.21 165.727 149.285 165.477 149.435C165.227 149.585 165.032 149.765 164.892 149.975C164.752 150.185 164.657 150.4 164.607 150.62C164.557 150.84 164.532 151.015 164.532 151.145V155H162.732V147.8ZM173.227 150.68C173.227 150.45 173.192 150.23 173.122 150.02C173.062 149.81 172.962 149.625 172.822 149.465C172.682 149.305 172.502 149.18 172.282 149.09C172.072 148.99 171.822 148.94 171.532 148.94C170.992 148.94 170.532 149.105 170.152 149.435C169.782 149.755 169.577 150.17 169.537 150.68H173.227ZM175.027 151.49C175.027 151.57 175.027 151.65 175.027 151.73C175.027 151.81 175.022 151.89 175.012 151.97H169.537C169.557 152.23 169.622 152.47 169.732 152.69C169.852 152.9 170.007 153.085 170.197 153.245C170.387 153.395 170.602 153.515 170.842 153.605C171.082 153.695 171.332 153.74 171.592 153.74C172.042 153.74 172.422 153.66 172.732 153.5C173.042 153.33 173.297 153.1 173.497 152.81L174.697 153.77C173.987 154.73 172.957 155.21 171.607 155.21C171.047 155.21 170.532 155.125 170.062 154.955C169.592 154.775 169.182 154.525 168.832 154.205C168.492 153.885 168.222 153.495 168.022 153.035C167.832 152.565 167.737 152.035 167.737 151.445C167.737 150.865 167.832 150.34 168.022 149.87C168.222 149.39 168.492 148.985 168.832 148.655C169.172 148.315 169.572 148.055 170.032 147.875C170.502 147.685 171.007 147.59 171.547 147.59C172.047 147.59 172.507 147.675 172.927 147.845C173.357 148.005 173.727 148.25 174.037 148.58C174.347 148.9 174.587 149.305 174.757 149.795C174.937 150.275 175.027 150.84 175.027 151.49ZM181.916 149.795C181.776 149.595 181.566 149.43 181.286 149.3C181.006 149.16 180.721 149.09 180.431 149.09C180.101 149.09 179.811 149.16 179.561 149.3C179.311 149.43 179.101 149.605 178.931 149.825C178.771 150.045 178.651 150.295 178.571 150.575C178.491 150.845 178.451 151.12 178.451 151.4C178.451 151.68 178.491 151.96 178.571 152.24C178.661 152.51 178.791 152.755 178.961 152.975C179.131 153.195 179.341 153.375 179.591 153.515C179.851 153.645 180.151 153.71 180.491 153.71C180.771 153.71 181.051 153.655 181.331 153.545C181.611 153.435 181.836 153.275 182.006 153.065L183.131 154.205C182.831 154.525 182.446 154.775 181.976 154.955C181.516 155.125 181.016 155.21 180.476 155.21C179.946 155.21 179.441 155.125 178.961 154.955C178.491 154.785 178.076 154.535 177.716 154.205C177.366 153.875 177.086 153.475 176.876 153.005C176.676 152.535 176.576 152 176.576 151.4C176.576 150.82 176.676 150.295 176.876 149.825C177.086 149.355 177.366 148.955 177.716 148.625C178.066 148.295 178.471 148.04 178.931 147.86C179.401 147.68 179.901 147.59 180.431 147.59C180.961 147.59 181.471 147.69 181.961 147.89C182.461 148.09 182.856 148.365 183.146 148.715L181.916 149.795ZM183.51 149.24V147.8H184.77V145.715H186.54V147.8H188.34V149.24H186.54V152.585C186.54 152.905 186.595 153.17 186.705 153.38C186.825 153.59 187.085 153.695 187.485 153.695C187.605 153.695 187.735 153.685 187.875 153.665C188.015 153.635 188.14 153.595 188.25 153.545L188.31 154.955C188.15 155.015 187.96 155.06 187.74 155.09C187.52 155.13 187.31 155.15 187.11 155.15C186.63 155.15 186.24 155.085 185.94 154.955C185.64 154.815 185.4 154.63 185.22 154.4C185.05 154.16 184.93 153.89 184.86 153.59C184.8 153.28 184.77 152.95 184.77 152.6V149.24H183.51ZM189.447 151.37C189.447 150.8 189.547 150.285 189.747 149.825C189.957 149.355 190.237 148.955 190.587 148.625C190.937 148.295 191.352 148.04 191.832 147.86C192.312 147.68 192.822 147.59 193.362 147.59C193.902 147.59 194.412 147.68 194.892 147.86C195.372 148.04 195.787 148.295 196.137 148.625C196.487 148.955 196.762 149.355 196.962 149.825C197.172 150.285 197.277 150.8 197.277 151.37C197.277 151.94 197.172 152.46 196.962 152.93C196.762 153.4 196.487 153.805 196.137 154.145C195.787 154.475 195.372 154.735 194.892 154.925C194.412 155.115 193.902 155.21 193.362 155.21C192.822 155.21 192.312 155.115 191.832 154.925C191.352 154.735 190.937 154.475 190.587 154.145C190.237 153.805 189.957 153.4 189.747 152.93C189.547 152.46 189.447 151.94 189.447 151.37ZM191.277 151.37C191.277 151.65 191.317 151.93 191.397 152.21C191.487 152.49 191.617 152.74 191.787 152.96C191.957 153.18 192.172 153.36 192.432 153.5C192.692 153.64 193.002 153.71 193.362 153.71C193.722 153.71 194.032 153.64 194.292 153.5C194.552 153.36 194.767 153.18 194.937 152.96C195.107 152.74 195.232 152.49 195.312 152.21C195.402 151.93 195.447 151.65 195.447 151.37C195.447 151.09 195.402 150.815 195.312 150.545C195.232 150.265 195.107 150.015 194.937 149.795C194.767 149.575 194.552 149.4 194.292 149.27C194.032 149.13 193.722 149.06 193.362 149.06C193.002 149.06 192.692 149.13 192.432 149.27C192.172 149.4 191.957 149.575 191.787 149.795C191.617 150.015 191.487 150.265 191.397 150.545C191.317 150.815 191.277 151.09 191.277 151.37ZM199.248 147.8H200.973V149H201.003C201.203 148.58 201.483 148.24 201.843 147.98C202.203 147.72 202.623 147.59 203.103 147.59C203.173 147.59 203.248 147.595 203.328 147.605C203.408 147.605 203.478 147.615 203.538 147.635V149.285C203.418 149.255 203.313 149.235 203.223 149.225C203.143 149.215 203.063 149.21 202.983 149.21C202.573 149.21 202.243 149.285 201.993 149.435C201.743 149.585 201.548 149.765 201.408 149.975C201.268 150.185 201.173 150.4 201.123 150.62C201.073 150.84 201.048 151.015 201.048 151.145V155H199.248V147.8Z" fill="#A652FA"/>
<rect x="27.5" y="124.5" width="229" height="51" rx="7.5" stroke="#41434A"/>
<path d="M72.5 86.38H74.135L78.71 97H76.55L75.56 94.57H70.955L69.995 97H67.88L72.5 86.38ZM74.9 92.95L73.265 88.63L71.6 92.95H74.9ZM87.2158 97H85.5058V95.92H85.4758C85.2258 96.34 84.8758 96.66 84.4258 96.88C83.9858 97.1 83.5108 97.21 83.0008 97.21C82.4508 97.21 81.9558 97.11 81.5158 96.91C81.0858 96.7 80.7158 96.425 80.4058 96.085C80.1058 95.735 79.8708 95.33 79.7008 94.87C79.5408 94.4 79.4608 93.9 79.4608 93.37C79.4608 92.84 79.5458 92.345 79.7158 91.885C79.8858 91.425 80.1258 91.025 80.4358 90.685C80.7458 90.345 81.1158 90.08 81.5458 89.89C81.9758 89.69 82.4458 89.59 82.9558 89.59C83.2858 89.59 83.5808 89.63 83.8408 89.71C84.1008 89.78 84.3258 89.87 84.5158 89.98C84.7158 90.09 84.8858 90.21 85.0258 90.34C85.1658 90.47 85.2808 90.595 85.3708 90.715H85.4158V85.66H87.2158V97ZM81.2908 93.37C81.2908 93.65 81.3308 93.93 81.4108 94.21C81.5008 94.49 81.6308 94.74 81.8008 94.96C81.9708 95.18 82.1858 95.36 82.4458 95.5C82.7058 95.64 83.0108 95.71 83.3608 95.71C83.6908 95.71 83.9858 95.645 84.2458 95.515C84.5058 95.375 84.7258 95.195 84.9058 94.975C85.0958 94.755 85.2358 94.51 85.3258 94.24C85.4258 93.96 85.4758 93.68 85.4758 93.4C85.4758 93.12 85.4258 92.84 85.3258 92.56C85.2358 92.28 85.0958 92.03 84.9058 91.81C84.7258 91.59 84.5058 91.41 84.2458 91.27C83.9858 91.13 83.6908 91.06 83.3608 91.06C83.0108 91.06 82.7058 91.13 82.4458 91.27C82.1858 91.4 81.9708 91.575 81.8008 91.795C81.6308 92.015 81.5008 92.265 81.4108 92.545C81.3308 92.815 81.2908 93.09 81.2908 93.37ZM96.9477 97H95.2377V95.92H95.2077C94.9577 96.34 94.6077 96.66 94.1577 96.88C93.7177 97.1 93.2427 97.21 92.7327 97.21C92.1827 97.21 91.6877 97.11 91.2477 96.91C90.8177 96.7 90.4477 96.425 90.1377 96.085C89.8377 95.735 89.6027 95.33 89.4327 94.87C89.2727 94.4 89.1927 93.9 89.1927 93.37C89.1927 92.84 89.2777 92.345 89.4477 91.885C89.6177 91.425 89.8577 91.025 90.1677 90.685C90.4777 90.345 90.8477 90.08 91.2777 89.89C91.7077 89.69 92.1777 89.59 92.6877 89.59C93.0177 89.59 93.3127 89.63 93.5727 89.71C93.8327 89.78 94.0577 89.87 94.2477 89.98C94.4477 90.09 94.6177 90.21 94.7577 90.34C94.8977 90.47 95.0127 90.595 95.1027 90.715H95.1477V85.66H96.9477V97ZM91.0227 93.37C91.0227 93.65 91.0627 93.93 91.1427 94.21C91.2327 94.49 91.3627 94.74 91.5327 94.96C91.7027 95.18 91.9177 95.36 92.1777 95.5C92.4377 95.64 92.7427 95.71 93.0927 95.71C93.4227 95.71 93.7177 95.645 93.9777 95.515C94.2377 95.375 94.4577 95.195 94.6377 94.975C94.8277 94.755 94.9677 94.51 95.0577 94.24C95.1577 93.96 95.2077 93.68 95.2077 93.4C95.2077 93.12 95.1577 92.84 95.0577 92.56C94.9677 92.28 94.8277 92.03 94.6377 91.81C94.4577 91.59 94.2377 91.41 93.9777 91.27C93.7177 91.13 93.4227 91.06 93.0927 91.06C92.7427 91.06 92.4377 91.13 92.1777 91.27C91.9177 91.4 91.7027 91.575 91.5327 91.795C91.3627 92.015 91.2327 92.265 91.1427 92.545C91.0627 92.815 91.0227 93.09 91.0227 93.37ZM105.203 88.03H101.948V86.38H110.348V88.03H107.093V97H105.203V88.03ZM110.371 89.8H112.096V91H112.126C112.326 90.58 112.606 90.24 112.966 89.98C113.326 89.72 113.746 89.59 114.226 89.59C114.296 89.59 114.371 89.595 114.451 89.605C114.531 89.605 114.601 89.615 114.661 89.635V91.285C114.541 91.255 114.436 91.235 114.346 91.225C114.266 91.215 114.186 91.21 114.106 91.21C113.696 91.21 113.366 91.285 113.116 91.435C112.866 91.585 112.671 91.765 112.531 91.975C112.391 92.185 112.296 92.4 112.246 92.62C112.196 92.84 112.171 93.015 112.171 93.145V97H110.371V89.8ZM120.339 96.085H120.294C120.114 96.405 119.824 96.67 119.424 96.88C119.024 97.08 118.569 97.18 118.059 97.18C117.769 97.18 117.464 97.14 117.144 97.06C116.834 96.99 116.544 96.87 116.274 96.7C116.014 96.52 115.794 96.29 115.614 96.01C115.444 95.72 115.359 95.365 115.359 94.945C115.359 94.405 115.509 93.975 115.809 93.655C116.119 93.335 116.514 93.09 116.994 92.92C117.474 92.75 118.004 92.64 118.584 92.59C119.174 92.53 119.749 92.5 120.309 92.5V92.32C120.309 91.87 120.144 91.54 119.814 91.33C119.494 91.11 119.109 91 118.659 91C118.279 91 117.914 91.08 117.564 91.24C117.214 91.4 116.924 91.595 116.694 91.825L115.764 90.73C116.174 90.35 116.644 90.065 117.174 89.875C117.714 89.685 118.259 89.59 118.809 89.59C119.449 89.59 119.974 89.68 120.384 89.86C120.804 90.04 121.134 90.275 121.374 90.565C121.614 90.855 121.779 91.18 121.869 91.54C121.969 91.9 122.019 92.26 122.019 92.62V97H120.339V96.085ZM120.309 93.715H119.904C119.614 93.715 119.309 93.73 118.989 93.76C118.669 93.78 118.374 93.835 118.104 93.925C117.834 94.005 117.609 94.125 117.429 94.285C117.249 94.435 117.159 94.645 117.159 94.915C117.159 95.085 117.194 95.23 117.264 95.35C117.344 95.46 117.444 95.55 117.564 95.62C117.684 95.69 117.819 95.74 117.969 95.77C118.119 95.8 118.269 95.815 118.419 95.815C119.039 95.815 119.509 95.65 119.829 95.32C120.149 94.99 120.309 94.54 120.309 93.97V93.715ZM124.342 89.8H126.052V90.955H126.082C126.242 90.595 126.517 90.28 126.907 90.01C127.307 89.73 127.777 89.59 128.317 89.59C128.787 89.59 129.187 89.675 129.517 89.845C129.857 90.005 130.132 90.22 130.342 90.49C130.562 90.76 130.722 91.07 130.822 91.42C130.922 91.77 130.972 92.13 130.972 92.5V97H129.172V93.01C129.172 92.8 129.157 92.58 129.127 92.35C129.097 92.12 129.032 91.915 128.932 91.735C128.832 91.545 128.692 91.39 128.512 91.27C128.342 91.15 128.112 91.09 127.822 91.09C127.532 91.09 127.282 91.15 127.072 91.27C126.862 91.38 126.687 91.525 126.547 91.705C126.417 91.885 126.317 92.095 126.247 92.335C126.177 92.565 126.142 92.8 126.142 93.04V97H124.342V89.8ZM137.242 91.72C137.082 91.51 136.862 91.33 136.582 91.18C136.302 91.02 135.997 90.94 135.667 90.94C135.377 90.94 135.112 91 134.872 91.12C134.632 91.24 134.512 91.44 134.512 91.72C134.512 92 134.642 92.2 134.902 92.32C135.172 92.43 135.562 92.545 136.072 92.665C136.342 92.725 136.612 92.805 136.882 92.905C137.162 93.005 137.412 93.14 137.632 93.31C137.862 93.47 138.047 93.675 138.187 93.925C138.327 94.165 138.397 94.46 138.397 94.81C138.397 95.25 138.312 95.625 138.142 95.935C137.982 96.235 137.762 96.48 137.482 96.67C137.212 96.86 136.892 96.995 136.522 97.075C136.162 97.165 135.787 97.21 135.397 97.21C134.837 97.21 134.292 97.11 133.762 96.91C133.232 96.7 132.792 96.405 132.442 96.025L133.627 94.915C133.827 95.175 134.087 95.39 134.407 95.56C134.727 95.73 135.082 95.815 135.472 95.815C135.602 95.815 135.732 95.8 135.862 95.77C136.002 95.74 136.127 95.695 136.237 95.635C136.357 95.565 136.452 95.475 136.522 95.365C136.592 95.255 136.627 95.12 136.627 94.96C136.627 94.66 136.487 94.445 136.207 94.315C135.937 94.185 135.527 94.055 134.977 93.925C134.707 93.865 134.442 93.79 134.182 93.7C133.932 93.6 133.707 93.475 133.507 93.325C133.307 93.165 133.147 92.97 133.027 92.74C132.907 92.51 132.847 92.225 132.847 91.885C132.847 91.485 132.927 91.14 133.087 90.85C133.257 90.56 133.477 90.325 133.747 90.145C134.017 89.955 134.322 89.815 134.662 89.725C135.002 89.635 135.352 89.59 135.712 89.59C136.232 89.59 136.737 89.68 137.227 89.86C137.727 90.04 138.122 90.315 138.412 90.685L137.242 91.72ZM140.217 89.8H142.017V97H140.217V89.8ZM139.962 87.355C139.962 87.065 140.067 86.815 140.277 86.605C140.497 86.385 140.772 86.275 141.102 86.275C141.432 86.275 141.707 86.38 141.927 86.59C142.157 86.79 142.272 87.045 142.272 87.355C142.272 87.665 142.157 87.925 141.927 88.135C141.707 88.335 141.432 88.435 141.102 88.435C140.772 88.435 140.497 88.33 140.277 88.12C140.067 87.9 139.962 87.645 139.962 87.355ZM143.391 91.24V89.8H144.651V87.715H146.421V89.8H148.221V91.24H146.421V94.585C146.421 94.905 146.476 95.17 146.586 95.38C146.706 95.59 146.966 95.695 147.366 95.695C147.486 95.695 147.616 95.685 147.756 95.665C147.896 95.635 148.021 95.595 148.131 95.545L148.191 96.955C148.031 97.015 147.841 97.06 147.621 97.09C147.401 97.13 147.191 97.15 146.991 97.15C146.511 97.15 146.121 97.085 145.821 96.955C145.521 96.815 145.281 96.63 145.101 96.4C144.931 96.16 144.811 95.89 144.741 95.59C144.681 95.28 144.651 94.95 144.651 94.6V91.24H143.391ZM149.778 89.8H151.578V97H149.778V89.8ZM149.523 87.355C149.523 87.065 149.628 86.815 149.838 86.605C150.058 86.385 150.333 86.275 150.663 86.275C150.993 86.275 151.268 86.38 151.488 86.59C151.718 86.79 151.833 87.045 151.833 87.355C151.833 87.665 151.718 87.925 151.488 88.135C151.268 88.335 150.993 88.435 150.663 88.435C150.333 88.435 150.058 88.33 149.838 88.12C149.628 87.9 149.523 87.645 149.523 87.355ZM153.567 93.37C153.567 92.8 153.667 92.285 153.867 91.825C154.077 91.355 154.357 90.955 154.707 90.625C155.057 90.295 155.472 90.04 155.952 89.86C156.432 89.68 156.942 89.59 157.482 89.59C158.022 89.59 158.532 89.68 159.012 89.86C159.492 90.04 159.907 90.295 160.257 90.625C160.607 90.955 160.882 91.355 161.082 91.825C161.292 92.285 161.397 92.8 161.397 93.37C161.397 93.94 161.292 94.46 161.082 94.93C160.882 95.4 160.607 95.805 160.257 96.145C159.907 96.475 159.492 96.735 159.012 96.925C158.532 97.115 158.022 97.21 157.482 97.21C156.942 97.21 156.432 97.115 155.952 96.925C155.472 96.735 155.057 96.475 154.707 96.145C154.357 95.805 154.077 95.4 153.867 94.93C153.667 94.46 153.567 93.94 153.567 93.37ZM155.397 93.37C155.397 93.65 155.437 93.93 155.517 94.21C155.607 94.49 155.737 94.74 155.907 94.96C156.077 95.18 156.292 95.36 156.552 95.5C156.812 95.64 157.122 95.71 157.482 95.71C157.842 95.71 158.152 95.64 158.412 95.5C158.672 95.36 158.887 95.18 159.057 94.96C159.227 94.74 159.352 94.49 159.432 94.21C159.522 93.93 159.567 93.65 159.567 93.37C159.567 93.09 159.522 92.815 159.432 92.545C159.352 92.265 159.227 92.015 159.057 91.795C158.887 91.575 158.672 91.4 158.412 91.27C158.152 91.13 157.842 91.06 157.482 91.06C157.122 91.06 156.812 91.13 156.552 91.27C156.292 91.4 156.077 91.575 155.907 91.795C155.737 92.015 155.607 92.265 155.517 92.545C155.437 92.815 155.397 93.09 155.397 93.37ZM163.367 89.8H165.077V90.955H165.107C165.267 90.595 165.542 90.28 165.932 90.01C166.332 89.73 166.802 89.59 167.342 89.59C167.812 89.59 168.212 89.675 168.542 89.845C168.882 90.005 169.157 90.22 169.367 90.49C169.587 90.76 169.747 91.07 169.847 91.42C169.947 91.77 169.997 92.13 169.997 92.5V97H168.197V93.01C168.197 92.8 168.182 92.58 168.152 92.35C168.122 92.12 168.057 91.915 167.957 91.735C167.857 91.545 167.717 91.39 167.537 91.27C167.367 91.15 167.137 91.09 166.847 91.09C166.557 91.09 166.307 91.15 166.097 91.27C165.887 91.38 165.712 91.525 165.572 91.705C165.442 91.885 165.342 92.095 165.272 92.335C165.202 92.565 165.167 92.8 165.167 93.04V97H163.367V89.8Z" fill="#CED0D7"/>
<rect x="213" y="79.5" width="40" height="24" rx="8" fill="#A652FA"/>
<rect x="231" y="81.5" width="20" height="20" rx="6" fill="#F6F6F8"/>
<path d="M44 94.5H48" stroke="#CED0D7" stroke-width="1.5" stroke-linecap="round" stroke-linejoin="round"/>
<path d="M34 94.53H30" stroke="#CED0D7" stroke-width="1.5" stroke-linecap="round" stroke-linejoin="round"/>
<path d="M34 88.5H30" stroke="#CED0D7" stroke-width="1.5" stroke-linecap="round" stroke-linejoin="round"/>
<path d="M44 92.5V100.5" stroke="#CED0D7" stroke-width="1.5" stroke-linecap="round" stroke-linejoin="round"/>
<path d="M34 82.5V100.5" stroke="#CED0D7" stroke-width="1.5" stroke-linecap="round" stroke-linejoin="round"/>
<path d="M40.5 89.5V86.5" stroke="#CED0D7" stroke-width="1.5" stroke-linecap="round" stroke-linejoin="round"/>
<path d="M42 88H39" stroke="#CED0D7" stroke-width="1.5" stroke-linecap="round" stroke-linejoin="round"/>
<path d="M46 85.5V82.5" stroke="#CED0D7" stroke-width="1.5" stroke-linecap="round" stroke-linejoin="round"/>
<path d="M44.5 84H47.5" stroke="#CED0D7" stroke-width="1.5" stroke-linecap="round" stroke-linejoin="round"/>
<path d="M48 89.5V97.5C48 99.1569 46.6569 100.5 45 100.5H33C31.3431 100.5 30 99.1569 30 97.5V85.5C30 83.8431 31.3431 82.5 33 82.5H40" stroke="#CED0D7" stroke-width="1.5" stroke-linecap="round" stroke-linejoin="round"/>
</svg>
