<svg width="32" height="33" viewBox="0 0 32 33" fill="none" xmlns="http://www.w3.org/2000/svg">
<path fill-rule="evenodd" clip-rule="evenodd" d="M23.4146 3.44922C22.8842 3.44922 22.3755 3.65993 22.0004 4.03501L3.79327 22.2421C2.02204 24.0133 2.02203 26.8851 3.79327 28.6563C5.56451 30.4276 8.43625 30.4276 10.2075 28.6563L12.7075 26.1563L13.4146 25.4492L12.7075 24.7421L8.41459 20.4492L23.4146 5.44922H27.0004V9.03501L14.2933 21.7421L15.7075 23.1563L28.4146 10.4492C28.7897 10.0741 29.0004 9.56544 29.0004 9.03501V4.44922V3.44922H28.0004H23.4146ZM5.20749 23.6563L7.00038 21.8634L10.5862 25.4492L8.79327 27.2421C7.80308 28.2323 6.19767 28.2323 5.20748 27.2421C4.2173 26.2519 4.2173 24.6465 5.20749 23.6563ZM28.2933 30.1563L25.0004 26.8634L21.7075 30.1563L20.2933 28.7421L23.5862 25.4492L20.2933 22.1563L21.7075 20.7421L25.0004 24.035L28.2933 20.7421L29.7075 22.1563L26.4146 25.4492L29.7075 28.7421L28.2933 30.1563Z" fill="white"/>
</svg>
