<svg xmlns="http://www.w3.org/2000/svg" width="100%" height="100%" fill="none" viewBox="0 0 1440 1328"><g clip-path="url(#clip0_2_163)"><g filter="url(#filter0_f_2_163)" opacity=".4"><path fill="#28065E" d="M720.25 1145.2C1000.81 1145.2 1228.25 956.264 1228.25 723.2C1228.25 490.136 1000.81 301.2 720.25 301.2C439.689 301.2 212.25 490.136 212.25 723.2C212.25 956.264 439.689 1145.2 720.25 1145.2Z"/><path fill="url(#paint0_radial_2_163)" fill-opacity=".5" d="M720.25 1145.2C1000.81 1145.2 1228.25 956.264 1228.25 723.2C1228.25 490.136 1000.81 301.2 720.25 301.2C439.689 301.2 212.25 490.136 212.25 723.2C212.25 956.264 439.689 1145.2 720.25 1145.2Z"/></g></g><defs><filter id="filter0_f_2_163" width="1616" height="1444" x="-87.75" y="1.2" color-interpolation-filters="sRGB" filterUnits="userSpaceOnUse"><feFlood flood-opacity="0" result="BackgroundImageFix"/><feBlend in="SourceGraphic" in2="BackgroundImageFix" mode="normal" result="shape"/><feGaussianBlur result="effect1_foregroundBlur_2_163" stdDeviation="150"/></filter><radialGradient id="paint0_radial_2_163" cx="0" cy="0" r="1" gradientTransform="translate(430.75 624.2) rotate(64.9164) scale(233.524 281.114)" gradientUnits="userSpaceOnUse"><stop stop-color="#237BFF"/><stop offset="1" stop-color="#267DFF" stop-opacity="0"/></radialGradient><clipPath id="clip0_2_163"><rect width="1440" height="1327" fill="#fff" transform="translate(0 0.799805)"/></clipPath></defs></svg>