<svg xmlns="http://www.w3.org/2000/svg" style="display: none;">
    <defs>
        <symbol id="twitter" viewBox="0 0 24 24">
            <path
                d="M21.9708 6.46378C21.4547 7.15213 20.8309 7.75258 20.1235 8.24195C20.1235 8.42177 20.1235 8.60158 20.1235 8.79139C20.1292 12.0568 18.8249 15.1879 16.5029 17.4828C14.181 19.7777 11.0357 21.0443 7.77211 20.9988C5.88538 21.0051 4.02281 20.5743 2.3303 19.7401C2.23904 19.7003 2.18018 19.61 2.18053 19.5103V19.4005C2.18053 19.257 2.29676 19.1407 2.44014 19.1407C4.29475 19.0796 6.0832 18.4366 7.55244 17.3026C5.87376 17.2688 4.36338 16.2744 3.66829 14.7453C3.63318 14.6617 3.64411 14.5659 3.69713 14.4925C3.75016 14.419 3.83761 14.3785 3.9279 14.3856C4.43809 14.4369 4.95337 14.3894 5.44561 14.2458C3.59249 13.8611 2.20007 12.3227 2.0008 10.4397C1.99371 10.3494 2.03419 10.2619 2.10761 10.2088C2.18103 10.1558 2.27677 10.1448 2.36026 10.18C2.85755 10.3994 3.39439 10.515 3.93788 10.5196C2.31411 9.45384 1.61274 7.42672 2.23045 5.58469C2.29421 5.4057 2.4474 5.27347 2.63372 5.2366C2.82004 5.19972 3.01201 5.26365 3.13908 5.40487C5.33027 7.73695 8.34099 9.12662 11.5364 9.28088C11.4546 8.95427 11.4143 8.61862 11.4166 8.28191C11.4465 6.51636 12.5389 4.94357 14.1825 4.29986C15.826 3.65615 17.6953 4.06893 18.9153 5.34494C19.747 5.18651 20.551 4.90716 21.3018 4.51579C21.3568 4.48145 21.4265 4.48145 21.4815 4.51579C21.5158 4.57081 21.5158 4.64058 21.4815 4.6956C21.1178 5.52835 20.5035 6.2268 19.7241 6.69355C20.4066 6.6144 21.0771 6.45341 21.7211 6.21404C21.7754 6.17713 21.8466 6.17713 21.9009 6.21404C21.9463 6.23482 21.9802 6.27457 21.9937 6.32269C22.0072 6.37081 21.9988 6.42242 21.9708 6.46378Z"
                fill="currentColor" />
        </symbol>
        <symbol id="tiktok" viewBox="0 0 24 24">
            <path
                d="M20.4994 10.2017C18.7792 10.2058 17.1012 9.66934 15.7024 8.6681V15.6511C15.702 16.9444 15.3067 18.2068 14.5694 19.2694C13.8321 20.332 12.788 21.1442 11.5766 21.5974C10.3653 22.0505 9.04446 22.1231 7.79078 21.8053C6.53709 21.4876 5.41029 20.7946 4.56105 19.8192C3.71181 18.8437 3.18061 17.6323 3.03848 16.3468C2.89634 15.0613 3.15005 13.763 3.76568 12.6256C4.3813 11.4882 5.3295 10.5658 6.48349 9.98185C7.63747 9.39788 8.94224 9.18013 10.2233 9.35772V12.8699C9.63709 12.6855 9.00759 12.6911 8.42471 12.8858C7.84183 13.0805 7.33538 13.4544 6.97769 13.9541C6.61999 14.4539 6.42934 15.0538 6.43296 15.6684C6.43658 16.2829 6.63428 16.8806 6.99784 17.376C7.3614 17.8715 7.87222 18.2394 8.45735 18.4272C9.04249 18.6151 9.67201 18.6132 10.256 18.4219C10.84 18.2306 11.3487 17.8597 11.7093 17.3621C12.0699 16.8645 12.2641 16.2657 12.2641 15.6511V2H15.7024C15.7001 2.29036 15.7244 2.58033 15.7751 2.86623C15.8946 3.50447 16.143 4.11163 16.5052 4.65057C16.8674 5.1895 17.3357 5.64889 17.8815 6.00062C18.658 6.51407 19.5684 6.78774 20.4994 6.78754V10.2017Z"
                fill="currentColor" />
        </symbol>
        <symbol id="instagram" viewBox="0 0 24 24">
            <path
                d="M12.0022 6.87117C9.16453 6.87117 6.87563 9.16007 6.87563 11.9978C6.87563 14.8355 9.16453 17.1244 12.0022 17.1244C14.8399 17.1244 17.1288 14.8355 17.1288 11.9978C17.1288 9.16007 14.8399 6.87117 12.0022 6.87117ZM12.0022 15.3307C10.1684 15.3307 8.66927 13.836 8.66927 11.9978C8.66927 10.1595 10.164 8.66481 12.0022 8.66481C13.8405 8.66481 15.3352 10.1595 15.3352 11.9978C15.3352 13.836 13.836 15.3307 12.0022 15.3307ZM18.5343 6.66146C18.5343 7.32627 17.9989 7.85722 17.3385 7.85722C16.6737 7.85722 16.1428 7.32181 16.1428 6.66146C16.1428 6.00112 16.6782 5.4657 17.3385 5.4657C17.9989 5.4657 18.5343 6.00112 18.5343 6.66146ZM21.9297 7.87507C21.8539 6.27329 21.488 4.85443 20.3146 3.68544C19.1456 2.51645 17.7267 2.15059 16.1249 2.07027C14.4741 1.97658 9.52593 1.97658 7.87507 2.07027C6.27775 2.14612 4.8589 2.51199 3.68544 3.68098C2.51199 4.84997 2.15059 6.26882 2.07027 7.87061C1.97658 9.52147 1.97658 14.4696 2.07027 16.1205C2.14612 17.7223 2.51199 19.1411 3.68544 20.3101C4.8589 21.4791 6.27328 21.845 7.87507 21.9253C9.52593 22.019 14.4741 22.019 16.1249 21.9253C17.7267 21.8494 19.1456 21.4835 20.3146 20.3101C21.4835 19.1411 21.8494 17.7223 21.9297 16.1205C22.0234 14.4696 22.0234 9.52593 21.9297 7.87507ZM19.797 17.8918C19.449 18.7663 18.7752 19.44 17.8963 19.7925C16.58 20.3146 13.4568 20.1941 12.0022 20.1941C10.5477 20.1941 7.41997 20.3101 6.1082 19.7925C5.23369 19.4445 4.55996 18.7708 4.20747 17.8918C3.68544 16.5756 3.80591 13.4523 3.80591 11.9978C3.80591 10.5432 3.68991 7.4155 4.20747 6.10374C4.55549 5.22922 5.22922 4.55549 6.1082 4.20301C7.42443 3.68098 10.5477 3.80145 12.0022 3.80145C13.4568 3.80145 16.5845 3.68544 17.8963 4.20301C18.7708 4.55103 19.4445 5.22476 19.797 6.10374C20.319 7.41997 20.1985 10.5432 20.1985 11.9978C20.1985 13.4523 20.319 16.58 19.797 17.8918Z"
                fill="currentColor" />
        </symbol>

        <symbol id="linkedin" viewBox="0 0 24 24">
            <path fill-rule="evenodd" clip-rule="evenodd"
                d="M3 4.98135C3 3.8573 3.86245 3 5.18229 3C6.50213 3 7.31563 3.85562 7.34264 4.98135C7.34264 6.08359 6.50381 6.96438 5.15866 6.96438H5.13334C3.83713 6.96438 3 6.08192 3 4.98135ZM16.5574 8.25941C14.5085 8.25941 13.592 9.3734 13.0789 10.1535V8.52952H9.2207C9.27134 9.60659 9.2207 19.9999 9.2207 19.9999H13.0789V13.5945C13.0789 13.2522 13.1043 12.91 13.2055 12.665C13.484 11.9805 14.1186 11.2709 15.1853 11.2709C16.5828 11.2709 17.1414 12.3228 17.1414 13.8646V19.9999H20.9997V13.4233C20.9997 9.89851 19.0959 8.25941 16.5574 8.25941ZM7.08578 8.53024H3.22754V20.0006H7.08578V8.53024Z"
                fill="currentColor" />
        </symbol>
        <symbol id="youtube" viewBox="0 0 24 25">
            <path
                d="M12.4874 20.2079L7.97385 20.1244C6.51246 20.0953 5.04744 20.1534 3.61471 19.8518C1.43519 19.4013 1.28079 17.192 1.11922 15.3389C0.896594 12.7336 0.982778 10.0811 1.4029 7.49758C1.64007 6.04795 2.57344 5.18295 4.01686 5.08882C8.88948 4.74722 13.7945 4.7877 18.6563 4.94707C19.1698 4.96168 19.6868 5.04153 20.1931 5.13243C22.6923 5.57575 22.7533 8.0793 22.9153 10.1868C23.0768 12.3161 23.0086 14.4563 22.6998 16.5711C22.4521 18.322 21.978 19.7904 19.9776 19.9321C17.4712 20.1175 15.0223 20.2667 12.5089 20.2192C12.509 20.2079 12.4946 20.2079 12.4874 20.2079ZM9.83387 15.775C11.7226 14.6776 13.5754 13.5984 15.4534 12.5084C13.5611 11.4109 11.7118 10.3318 9.83387 9.24174V15.775Z"
                fill="currentcolor" />
        </symbol>
    </defs>
</svg>
