<svg xmlns="http://www.w3.org/2000/svg" style="display: none;">
    <defs>
        <symbol id="dashboard" viewBox="0 0 256 256">
            <path
                d="M80.01 44.012c-19.877 0-36 16.128-36 36 0 19.88 16.123 36 36 36 5.741 0 11.15-1.388 15.968-3.781 2.471 5.37 4.031 10.945 4.031 15.78 0 4.845-1.56 10.404-4.039 15.766-4.816-2.39-10.223-3.765-15.96-3.765-19.877 0-36 16.128-36 36 0 19.88 16.123 36.004 36 36 19.871 0 36.007-16.124 36.007-36 0-5.744-1.385-11.158-3.781-15.977 5.368-2.47 10.938-4.023 15.773-4.023 4.847 0 10.408 1.551 15.774 4.023-2.395 4.818-3.774 10.227-3.774 15.969 0 19.872 16.128 35.992 36 35.992 19.868 0 36-16.12 36-35.992 0-19.872-16.14-35.992-36-35.992-5.737 0-11.145 1.375-15.96 3.765-2.481-5.369-4.04-10.93-4.04-15.765 0-4.846 1.555-10.416 4.024-15.781 4.82 2.395 10.23 3.78 15.976 3.78 19.872 0 36.008-16.123 36.008-36 0-19.871-16.136-36-36.008-36-19.876 0-36 16.129-36 36 0 5.736 1.379 11.133 3.766 15.946-5.37 2.485-10.934 4.055-15.766 4.055-4.84 0-10.403-1.567-15.765-4.047 2.39-4.814 3.773-10.216 3.773-15.953 0-19.872-16.136-36-36.008-36zm0 16c11.031 0 20.007 8.964 20.007 20 0 2.513-.52 4.893-1.367 7.11-.66-.587-1.35-1.163-1.953-1.767-.31-.309-.632-.542-.953-.789-.183-.227-.344-.468-.555-.68l-9.531-9.53a7.999 7.999 0 00-11.313 0 7.999 7.999 0 000 11.312l9.532 9.531c.288.29.61.523.93.758.193.235.35.475.577.703.609.608 1.191 1.302 1.782 1.969-2.23.858-4.628 1.383-7.157 1.383-11.04 0-20-8.96-20-20 0-11.036 8.96-20 20-20zm96 0c11.031 0 20.007 8.964 20.007 20 0 11.04-8.972 20-20.008 20-2.532 0-4.933-.523-7.164-1.383.59-.666 1.174-1.361 1.781-1.969.254-.253.43-.52.641-.781.285-.216.576-.421.836-.68l9.547-9.515c3.124-3.12 3.14-8.189.023-11.32-3.12-3.125-8.188-3.132-11.32-.016l-9.547 9.523c-.244.244-.434.516-.64.781-.286.226-.576.427-.852.703-.601.602-1.288 1.174-1.945 1.758-.846-2.214-1.36-4.59-1.36-7.101 0-11.036 8.96-20 20-20zm-62.454 53.547l2.688.851c3.932 1.024 7.89 1.602 11.758 1.602 3.856 0 7.81-.578 11.742-1.602l2.703-.851-.852 2.703c-1.016 3.928-1.586 7.894-1.586 11.75 0 3.864.57 7.814 1.586 11.742l.852 2.703-2.703-.851c-3.932-1.02-7.886-1.594-11.742-1.594-3.856 0-7.81.574-11.743 1.594l-2.71.851.851-2.695c1.024-3.932 1.602-7.89 1.602-11.75 0-3.852-.574-7.818-1.594-11.75zM80.01 156.012c2.515 0 4.899.517 7.118 1.367-.583.656-1.158 1.337-1.758 1.937-.264.264-.455.54-.672.813-.283.216-.57.42-.828.68l-9.531 9.554c-3.12 3.124-3.109 8.197.015 11.313a7.993 7.993 0 0011.305-.016l9.539-9.547c.248-.248.44-.533.648-.804.28-.222.566-.41.836-.68.605-.605 1.292-1.186 1.953-1.773.86 2.228 1.383 4.627 1.383 7.156 0 11.044-8.972 20.004-20.008 20-11.04 0-20-8.96-20-20 0-11.036 8.96-20 20-20zm96 0c11.036 0 20 8.956 20 19.992 0 11.036-8.972 19.992-20 19.992-11.036 0-20-8.956-20-19.992 0-2.524.52-4.916 1.375-7.14.66.585 1.343 1.162 1.946 1.765.216.217.448.363.672.547.245.337.492.673.796.976l9.555 9.524a7.993 7.993 0 0011.305-.016c3.12-3.124 3.116-8.188-.008-11.304l-9.547-9.532c-.209-.208-.447-.366-.672-.547-.244-.323-.479-.65-.789-.96-.6-.6-1.175-1.282-1.758-1.938 2.22-.85 4.609-1.367 7.125-1.367z" />
        </symbol>
        <symbol id="profile" viewBox="0 0 256 256">
            <path
                d="M128 128c-23.527 0-42.667-19.936-42.667-44.444 0-24.509 19.14-44.445 42.667-44.445s42.667 19.936 42.667 44.445c0 24.508-19.14 44.444-42.667 44.444zm73.252 50.45c5.525 15.147-5.75 31.328-21.885 31.328h-31.221L135.822 172.8l5.39-10.784c-4.238-.963-8.664-1.51-13.212-1.51-4.547 0-8.978.547-13.212 1.51l5.39 10.784-12.327 36.978H76.629c-16.042 0-27.438-16.092-21.884-31.324 10.137-27.748 39.573-46.39 73.255-46.39 33.682 0 63.118 18.642 73.252 46.386z" />
        </symbol>
        <symbol id="project" viewBox="0 0 256 256">
            <path
                d="M81.778 28.444c-19.605 0-35.556 15.95-35.556 35.556 0 14.547 8.793 27.063 21.334 32.563v62.875c-12.541 5.5-21.334 18.015-21.334 32.562 0 19.606 15.95 35.556 35.556 35.556 19.605 0 35.555-15.95 35.555-35.556 0-14.174-8.36-26.397-20.388-32.104a7.66 7.66 0 015-3.792l54.291-9.826c14.608-3.045 26.044-13.927 30.34-27.646 13.525-5.035 23.202-18.042 23.202-33.299 0-19.605-15.95-35.555-35.556-35.555-19.605 0-35.555 15.95-35.555 35.555 0 12.88 6.907 24.143 17.187 30.382a11.929 11.929 0 01-5.27 2.681l-54.306 9.833c-.094.02-.184.05-.278.07V96.563c12.54-5.5 21.333-18.016 21.333-32.563 0-19.605-15.95-35.556-35.555-35.556z" />
        </symbol>
        <symbol id="file" viewBox="0 0 256 256">
            <path
                d="M88.889 39.111c-17.675 0-32 14.326-32 32V184.89c0 17.675 14.325 32 32 32h78.222c17.675 0 32-14.325 32-32v-74.667h-49.777c-11.784 0-21.334-9.55-21.334-21.333V39.111zm53.333 1.222V88.89A7.111 7.111 0 00149.334 96h48.555zm-39.11 94.778h49.777a7.111 7.111 0 010 14.223h-49.778a7.111 7.111 0 010-14.223zm0 32h49.777a7.111 7.111 0 010 14.223h-49.778a7.111 7.111 0 010-14.223z" />
        </symbol>
        <symbol id="friends" viewBox="0 0 256 256">
            <path
                d="M56.889 72.889C69.632 72.889 80 84.053 80 97.778c0 13.724-10.368 24.889-23.111 24.889s-23.111-11.165-23.111-24.89c0-13.724 10.368-24.888 23.111-24.888zm31.065 67.253c-21.774 10.532-32.004 27.385-33.998 37.636H26.969c-8.345 0-13.32-7.499-12.686-14.101C16.217 143.339 34.532 128 56.889 128c12.249 0 23.268 4.63 31.065 12.142zm150.208 23.506c.647 6.777-4.42 14.13-12.707 14.13h-26.966c-2.005-10.308-12.274-27.129-33.998-37.636C172.285 132.63 183.303 128 195.556 128c22.336 0 40.672 15.325 42.606 35.648zM195.556 72.89c12.743 0 23.11 11.164 23.11 24.889 0 13.724-10.367 24.889-23.11 24.889-12.743 0-23.111-11.165-23.111-24.89 0-13.724 10.368-24.888 23.11-24.888zm-12.722 102.645c6.77 12.932-3.74 27.133-17.746 27.133H87.36c-13.447 0-24.779-13.693-17.746-27.129 9.462-18.08 31.677-29.76 56.608-29.76 24.932 0 47.15 11.68 56.612 29.756zM126.222 67.556c18.624 0 33.778 15.95 33.778 35.555 0 19.606-15.154 35.556-33.778 35.556s-33.777-15.95-33.777-35.556c0-19.605 15.153-35.555 33.777-35.555z" />
        </symbol>
        <symbol id="plan" viewBox="0 0 256 256">
            <path
                d="M49.778 42.667c-13.746 0-24.89 11.143-24.89 24.889v7.11h163.557v-7.11c0-13.746-11.143-24.89-24.89-24.89zm152.889 42.666v32h28.444v-7.11c0-13.746-11.143-24.89-24.889-24.89zM24.889 96v49.778c0 13.746 11.143 24.889 24.889 24.889h113.778c13.746 0 24.889-11.143 24.889-24.889V96zm177.778 42.667v7.111c0 21.6-17.511 39.111-39.111 39.111h-96v3.556c0 13.745 11.143 24.889 24.889 24.889h113.777c13.746 0 24.89-11.144 24.89-24.89v-49.777z" />
        </symbol>
        <symbol id="setting" viewBox="0 0 256 256">
            <path
                d="M221.98 118.09a8.765 8.765 0 01-5.624 11.048l-5.366 1.746a83.495 83.495 0 01-1.521 12.892c3.982 9.152 4.348 19.26 1.027 29.486l-.636 1.963c-1.497 4.605-6.443 7.125-11.047 5.629l-5.423-1.76a82.931 82.931 0 01-8.75 9.585c-2.169 9.732-7.808 18.112-16.494 24.427l-1.668 1.212a8.768 8.768 0 01-12.248-1.937l-3.34-4.598a83.132 83.132 0 01-12.689 2.56c-7.484 6.628-16.992 10.102-27.758 10.102h-2.066a8.768 8.768 0 01-8.768-8.768v-5.707a82.29 82.29 0 01-11.78-5.365c-9.916.967-19.665-1.814-28.373-8.139l-1.667-1.212a8.768 8.768 0 01-1.938-12.25l3.324-4.575a83.001 83.001 0 01-6.421-11.35c-8.57-5.07-14.78-13.017-18.094-23.214l-.637-1.963a8.771 8.771 0 015.629-11.05l5.365-1.743c.16-4.241.668-8.554 1.518-12.885-3.982-9.159-4.352-19.264-1.02-29.493l.636-1.96a8.77 8.77 0 0111.05-5.628l5.42 1.76a83.381 83.381 0 018.757-9.593c2.169-9.731 7.811-18.112 16.498-24.42l1.667-1.212c3.918-2.848 9.401-1.977 12.25 1.942l3.334 4.59a83.088 83.088 0 0112.686-2.56c7.47-6.62 16.978-10.094 27.745-10.094h2.065a8.768 8.768 0 018.768 8.768v5.706a82.402 82.402 0 0111.773 5.362c9.92-.956 19.67 1.813 28.38 8.139l1.668 1.212c3.918 2.845 4.786 8.327 1.938 12.246l-3.328 4.58a83.001 83.001 0 016.42 11.348c8.566 5.067 14.781 13.014 18.095 23.211zM78.223 135.112a7.111 7.111 0 100-14.223 7.111 7.111 0 000 14.223zM128 152.89c13.721 0 24.89-11.164 24.89-24.889 0-13.724-11.169-24.889-24.89-24.889-13.72 0-24.889 11.165-24.889 24.89 0 13.724 11.168 24.888 24.89 24.888zm49.778-17.778a7.111 7.111 0 100-14.223 7.111 7.111 0 000 14.223z" />
        </symbol>
        <symbol id="notification" viewBox="0 0 24 24">
            <path
                d="M12 1c3.681 0 7 2.565 7 6v4.539c0 .642.189 1.269.545 1.803l2.2 3.298A1.517 1.517 0 0 1 20.482 19H15.5a3.5 3.5 0 1 1-7 0H3.519a1.518 1.518 0 0 1-1.265-2.359l2.2-3.299A3.25 3.25 0 0 0 5 11.539V7c0-3.435 3.318-6 7-6ZM6.5 7v4.539a4.75 4.75 0 0 1-.797 2.635l-2.2 3.298l-.003.01l.001.007l.004.006l.006.004l.007.001h16.964l.007-.001l.006-.004l.004-.006l.001-.006a.017.017 0 0 0-.003-.01l-2.199-3.299a4.753 4.753 0 0 1-.798-2.635V7c0-2.364-2.383-4.5-5.5-4.5S6.5 4.636 6.5 7ZM14 19h-4a2 2 0 1 0 4 0Z" />
        </symbol>
        <symbol id="task-not-done" viewBox="0 0 256 256">
            <path
                d="M128 3.556C59.42 3.556 3.556 59.419 3.556 128c0 68.582 55.863 124.445 124.444 124.445 68.582 0 124.445-55.863 124.445-124.445C252.445 59.42 196.582 3.556 128 3.556zm0 24.889c55.131 0 99.556 44.425 99.556 99.555 0 55.131-44.425 99.556-99.556 99.556-55.13 0-99.555-44.425-99.555-99.556 0-55.13 44.425-99.555 99.555-99.555z"
                stroke-miterlimit="10" />

        </symbol>
        <symbol id="task-done" viewBox="0 0 256 256">
            <g stroke-miterlimit="10">
                <g clip-path="url(#prefix__clip-1)" style="mix-blend-mode:normal"
                    transform="matrix(1.19 0 0 1.19 -24.32 -24.32)">
                    <path
                        d="M128 21.333C69.216 21.333 21.333 69.216 21.333 128S69.216 234.667 128 234.667 234.667 186.784 234.667 128 186.784 21.333 128 21.333zm0 21.334c47.255 0 85.333 38.078 85.333 85.333 0 47.255-38.078 85.333-85.333 85.333-47.255 0-85.333-38.078-85.333-85.333 0-47.255 38.078-85.333 85.333-85.333z" />
                </g>
                <path d="M134.96 171.198l-57.733-57.734 17.197-17.197 40.537 40.536 77.388-77.388 17.198 17.197z"
                    fill="#fcff96" />
            </g>


        </symbol>
        <symbol id="trash" viewBox="0 0 128 128">
            <path
                d="M49 1c-1.66 0-3 1.34-3 3s1.34 3 3 3h30c1.66 0 3-1.34 3-3s-1.34-3-3-3H49zM24 15c-7.17 0-13 5.83-13 13s5.83 13 13 13h77v63c0 9.37-7.63 17-17 17H44c-9.37 0-17-7.63-17-17V52c0-1.66-1.34-3-3-3s-3 1.34-3 3v52c0 12.68 10.32 23 23 23h40c12.68 0 23-10.32 23-23V40.64c5.72-1.36 10-6.5 10-12.64 0-7.17-5.83-13-13-13H24zm0 6h80c3.86 0 7 3.14 7 7s-3.14 7-7 7H24c-3.86 0-7-3.14-7-7s3.14-7 7-7zm26 34c-1.66 0-3 1.34-3 3v46c0 1.66 1.34 3 3 3s3-1.34 3-3V58c0-1.66-1.34-3-3-3zm28 0c-1.66 0-3 1.34-3 3v46c0 1.66 1.34 3 3 3s3-1.34 3-3V58c0-1.66-1.34-3-3-3z" />


        </symbol>
        <symbol id="file-img" viewBox="0 0 24 24">

            <path
                d="M14 2H6c-1.1 0-2 .9-2 2v16c0 1.1.9 2 2 2h12c1.1 0 2-.9 2-2V8l-6-6zM7.6 17.2l1.5-2a.5.5 0 01.8 0l1.1 1.467 2.1-2.8a.5.5 0 01.8 0l2.5 3.333a.5.5 0 01-.4.8H8a.5.5 0 01-.4-.8zM13 9V3.5L18.5 9H13z" />

        </symbol>

        <symbol id="file-graph" viewBox="0 0 24 24">
            <path
                d="M13.13 2H5.958c-1.1 0-2 .9-2 2v16c0 1.1.9 2 2 2h12c1.1 0 2-.9 2-2V8.828a2 2 0 00-.586-1.414l-4.828-4.828A2 2 0 0013.13 2zm-1.875 15.711l-1.297-1.297-1.251 1.293a1 1 0 01-1.414-1.414l1.958-1.989a1 1 0 011.42-.006l1.287 1.287 2.335-2.293a1 1 0 011.414 1.414l-3.042 3.008a.999.999 0 01-1.41-.003zM12.958 9V3.5l5.5 5.5h-5.5z" />

        </symbol>
        <symbol id="file-code" viewBox="0 0 24 24">
            <path
                d="M13.172,2H6C4.9,2,4,2.9,4,4v16c0,1.1,0.9,2,2,2h12c1.1,0,2-0.9,2-2V8.828c0-0.53-0.211-1.039-0.586-1.414l-4.828-4.828 C14.211,2.211,13.702,2,13.172,2z M10.577,17.653l-0.021,0.021c-0.308,0.305-0.804,0.304-1.111-0.003L7.35,15.575 c-0.307-0.307-0.307-0.806,0-1.113l2.108-2.108c0.302-0.302,0.789-0.308,1.098-0.015l0.014,0.013 c0.326,0.309,0.328,0.828,0.003,1.139L9,15l1.572,1.529C10.888,16.836,10.89,17.343,10.577,17.653z M13.444,17.634l-0.038-0.041 c-0.297-0.316-0.283-0.813,0.032-1.111L15,15l-1.556-1.518c-0.316-0.309-0.317-0.817-0.001-1.126l0,0 c0.308-0.302,0.802-0.299,1.107,0.006l2.1,2.1c0.307,0.307,0.307,0.806,0,1.113l-2.077,2.077 C14.26,17.965,13.748,17.957,13.444,17.634z M13,9V3.5L18.5,9H13z">
            </path>
        </symbol>
        <symbol id="file-shared" viewBox="0 0 24 24">
            <path
                d="M 6 2 C 4.895 2 4 2.895 4 4 L 4 20 C 4 21.105 4.895 22 6 22 L 13.091797 22 C 13.162797 21.654 13.279453 21.314281 13.439453 20.988281 C 13.534453 20.792281 13.650344 20.602969 13.777344 20.417969 C 13.814344 20.364969 13.858438 20.313719 13.898438 20.261719 C 14.320438 19.704719 14.887906 19.208172 15.628906 18.826172 C 15.231906 18.154172 15 17.365 15 16.5 C 15 14.481 16.234719 12.863484 18.011719 12.271484 C 18.137719 12.227484 18.270391 12.199062 18.400391 12.164062 C 18.595391 12.118063 18.789141 12.070828 18.994141 12.048828 C 19.161141 12.027828 19.327 12 19.5 12 C 19.671 12 19.834 12.032781 20 12.050781 L 20 8.828125 C 20 8.298125 19.789062 7.7890625 19.414062 7.4140625 L 14.585938 2.5859375 C 14.210937 2.2109375 13.701875 2 13.171875 2 L 6 2 z M 13 3.4550781 L 18.5 9 L 14 9 C 13.448 9 13 8.5080781 13 7.9550781 L 13 3.4550781 z M 19.5 14 A 2.5 2.5 0 0 0 17 16.5 A 2.5 2.5 0 0 0 19.5 19 A 2.5 2.5 0 0 0 22 16.5 A 2.5 2.5 0 0 0 19.5 14 z M 19.5 20 C 16.892 20 15 21.018812 15 22.882812 L 15 23 C 15 23.552 15.448 24 16 24 L 23 24 C 23.552 24 24 23.552 24 23 L 24 22.882812 C 24 21.018812 22.108 20 19.5 20 z">
            </path>

        </symbol>
        <symbol id="file-secured" viewBox="0 0 24 24">
            <path
                d="M 6 2 C 4.9 2 4 2.9 4 4 L 4 20 C 4 21.1 4.9 22 6 22 L 14.005859 22 C 13.398859 20.908 13 19.581 13 18 L 13 15.642578 C 13 14.460578 13.693484 13.388297 14.771484 12.904297 L 20 10.558594 L 20 8.828125 C 20 8.298125 19.789062 7.7890625 19.414062 7.4140625 L 14.585938 2.5859375 C 14.210937 2.2109375 13.701875 2 13.171875 2 L 6 2 z M 13 3.5 L 18.5 9 L 14 9 C 13.448 9 13 8.552 13 8 L 13 3.5 z M 19.5 13 C 19.3755 13.000125 19.250766 13.026531 19.134766 13.082031 L 15.535156 14.792969 C 15.210156 14.945969 15 15.289922 15 15.669922 L 15 17.59375 C 15 21.77375 18.219 23.725 19.5 24 C 20.781 23.725 24 21.77375 24 17.59375 L 24 15.669922 C 24 15.289922 23.789844 14.945016 23.464844 14.791016 L 19.865234 13.082031 C 19.749234 13.027031 19.6245 12.999875 19.5 13 z">
            </path>


        </symbol>
        <symbol id="file-torrent" viewBox="0 0 24 24">
            <path
                d="M19,3H5C3.895,3,3,3.895,3,5v14c0,1.105,0.895,2,2,2h14c1.105,0,2-0.895,2-2V5C21,3.895,20.105,3,19,3z M14.842,14 c0.585,0,0.878,0.707,0.464,1.121l-2.524,2.524c-0.432,0.432-1.133,0.432-1.565,0l-2.524-2.524C8.28,14.707,8.573,14,9.158,14H11v-4 H9.158C8.573,10,8.28,9.293,8.694,8.879l2.524-2.524c0.432-0.432,1.133-0.432,1.565,0l2.524,2.524C15.72,9.293,15.427,10,14.842,10 H13v4H14.842z">
            </path>
        </symbol>
        <symbol id="sun" viewBox="0 0 24 24">
            <path
                d="M 12 0 C 11.4 0 11 0.4 11 1 L 11 2 C 11 2.6 11.4 3 12 3 C 12.6 3 13 2.6 13 2 L 13 1 C 13 0.4 12.6 0 12 0 z M 4.1992188 3.1992188 C 3.9492188 3.1992187 3.7 3.3 3.5 3.5 C 3.1 3.9 3.1 4.5003906 3.5 4.9003906 L 4.1992188 5.5996094 C 4.5992187 5.9996094 5.1996094 5.9996094 5.5996094 5.5996094 C 5.9996094 5.1996094 5.9996094 4.5992188 5.5996094 4.1992188 L 4.9003906 3.5 C 4.7003906 3.3 4.4492188 3.1992188 4.1992188 3.1992188 z M 19.800781 3.1992188 C 19.550781 3.1992188 19.299609 3.3 19.099609 3.5 L 18.400391 4.1992188 C 18.000391 4.5992187 18.000391 5.1996094 18.400391 5.5996094 C 18.800391 5.9996094 19.400781 5.9996094 19.800781 5.5996094 L 20.5 4.9003906 C 20.9 4.5003906 20.9 3.9 20.5 3.5 C 20.3 3.3 20.050781 3.1992188 19.800781 3.1992188 z M 12 5 A 7 7 0 0 0 5 12 A 7 7 0 0 0 12 19 A 7 7 0 0 0 19 12 A 7 7 0 0 0 12 5 z M 1 11 C 0.4 11 0 11.4 0 12 C 0 12.6 0.4 13 1 13 L 2 13 C 2.6 13 3 12.6 3 12 C 3 11.4 2.6 11 2 11 L 1 11 z M 22 11 C 21.4 11 21 11.4 21 12 C 21 12.6 21.4 13 22 13 L 23 13 C 23.6 13 24 12.6 24 12 C 24 11.4 23.6 11 23 11 L 22 11 z M 4.9003906 18.099609 C 4.6503906 18.099609 4.3992188 18.200391 4.1992188 18.400391 L 3.5 19.099609 C 3.1 19.499609 3.1 20.1 3.5 20.5 C 3.9 20.9 4.5003906 20.9 4.9003906 20.5 L 5.5996094 19.800781 C 5.9996094 19.400781 5.9996094 18.800391 5.5996094 18.400391 C 5.3996094 18.200391 5.1503906 18.099609 4.9003906 18.099609 z M 19.099609 18.099609 C 18.849609 18.099609 18.600391 18.200391 18.400391 18.400391 C 18.000391 18.800391 18.000391 19.400781 18.400391 19.800781 L 19.099609 20.5 C 19.499609 20.9 20.1 20.9 20.5 20.5 C 20.9 20.1 20.9 19.499609 20.5 19.099609 L 19.800781 18.400391 C 19.600781 18.200391 19.349609 18.099609 19.099609 18.099609 z M 12 21 C 11.4 21 11 21.4 11 22 L 11 23 C 11 23.6 11.4 24 12 24 C 12.6 24 13 23.6 13 23 L 13 22 C 13 21.4 12.6 21 12 21 z">
            </path>
        </symbol>
        <symbol id="moon" viewBox="0 0 24 24">
            <path
                d="M13.019,21.998c-3.729,0-7.313-2.093-9.032-5.673c-1.156-2.408-1.305-5.122-0.419-7.642c0.886-2.52,2.7-4.544,5.108-5.7 c1.359-0.653,2.855-1.024,4.364-0.981c0.994,0.028,1.325,0.764,0.386,1.321c-2.98,1.768-4.301,6.583-2.852,9.601l0,0 c1.338,2.786,5.118,5.816,9.467,4.224c0.581-0.213,1.28,0.376,0.693,1.188c-0.855,1.182-2.089,2.046-3.403,2.677 C15.939,21.681,14.467,21.997,13.019,21.998z">
            </path>
        </symbol>
        <symbol id="search" viewBox="0 0 20 20" aria-hidden="true">
            <path fill-rule="evenodd"
                d="M8 4a4 4 0 100 8 4 4 0 000-8zM2 8a6 6 0 1110.89 3.476l4.817 4.817a1 1 0 01-1.414 1.414l-4.816-4.816A6 6 0 012 8z"
                clip-rule="evenodd"></path>
        </symbol>
        <symbol id="teacher" viewBox="0 0 24 24">
            <path
                d="M 4 2 A 2 2 0 0 0 4 6 A 2 2 0 0 0 4 2 z M 8 3 L 8 5 L 18 5 L 18 14 L 16 14 L 16 12 L 12 12 L 12 14 L 9 14 L 9 16 L 21 16 L 21 14 L 20 14 L 20 4.5 C 20 3.67 19.33 3 18.5 3 L 8 3 z M 3 7 C 1.89 7 1 7.89 1 9 L 1 16 L 1 22 L 3 22 L 3 16 L 5 16 L 5 22 L 7 22 L 7 16 L 7 9 L 13 9 L 13 7 L 3 7 z">
            </path>
        </symbol>
        <symbol id="student" viewBox="0 0 24 24">

            <path
                d="M 12 0.88085938 L 1.7597656 6 L 5 7.6191406 L 5 12.130859 C 4.22 12.770859 3.8405469 13.809844 4.0605469 14.839844 C 4.2805469 15.859844 5.0896094 16.650156 6.0996094 16.910156 C 6.6096094 19.230156 9.06 21 12 21 C 12.71 21 13.37 20.900937 14 20.710938 L 14 18.589844 C 13.41 18.849844 12.73 19 12 19 C 9.79 19 8 17.65 8 16 L 8 15 L 6.8203125 15 C 6.4303125 15 6.0895313 14.749688 6.0195312 14.429688 C 5.9295313 14.009687 6.1596875 13.700313 6.4296875 13.570312 L 7 13.300781 L 7 11 C 7 10.45 7.45 10 8 10 L 16 10 C 16.55 10 17 10.45 17 11 L 17 13.300781 L 17.570312 13.570312 C 17.740313 13.650313 17.890937 13.8 17.960938 14 L 19.980469 14 C 19.920469 13.27 19.56 12.600859 19 12.130859 L 19 7.6191406 L 22.240234 6 L 12 0.88085938 z M 19 16 L 19 19 L 16 19 L 16 21 L 19 21 L 19 24 L 21 24 L 21 21 L 24 21 L 24 19 L 21 19 L 21 16 L 19 16 z">
            </path>
        </symbol>
        <symbol id="diploma" viewBox="0 0 24 24">

            <path
                d="M 5 2 C 3.346 2 2 3.346 2 5 L 2 7 L 4 7 L 4 20 L 9 20 L 9 18 L 6 18 L 6 7 L 17 7 L 17 5 C 17 4.449 17.448 4 18 4 C 18.56503 4 19 4.4349698 19 5 L 19 20 L 21 20 L 21 5 C 21 3.3550302 19.64497 2 18 2 L 5 2 z M 8 10 L 8 12 L 17 12 L 17 10 L 8 10 z M 8 14 L 8 16 L 10 16 L 10 14 L 8 14 z M 14 14 C 12.35499 14 11 15.35499 11 17 C 11 17.876407 11.391843 18.662168 12 19.212891 L 12 22.804688 L 14 21.554688 L 16 22.804688 L 16 19.212891 C 16.608157 18.662168 17 17.876407 17 17 C 17 15.35499 15.64501 14 14 14 z M 14 16 C 14.564129 16 15 16.435871 15 17 C 15 17.564129 14.564129 18 14 18 C 13.435871 18 13 17.564129 13 17 C 13 16.435871 13.435871 16 14 16 z">
            </path>
        </symbol>
        <symbol id="translation" viewBox="0 0 128 128">

            <path
                d="M 55 1 C 49.5 1 45 5.5 45 11 L 45 46 L 14 46 C 6.8 46 1 51.8 1 59 L 1 114 C 1 121.2 6.8 127 14 127 L 56.900391 127 C 58.600391 127 59.900391 125.7 59.900391 124 C 59.900391 122.3 58.600391 121 56.900391 121 L 14 121 C 10.1 121 7 117.9 7 114 L 7 59 C 7 55.1 10.1 52 14 52 L 69 52 C 72.9 52 76 55.1 76 59 L 76 103.19922 C 76 110.09922 78.8 116.4 83.5 121 L 81.099609 121 C 77.299609 121 73.799609 119.50039 71.099609 116.90039 C 69.899609 115.70039 68.000391 115.70039 66.900391 116.90039 C 65.700391 118.10039 65.700391 119.99961 66.900391 121.09961 C 70.700391 124.89961 75.699609 127 81.099609 127 L 94 127 C 95.5 127 96.7 125.9 97 124.5 C 97.2 123 96.4 121.59922 95 121.19922 C 87.3 118.59922 82.099609 111.39922 82.099609 103.19922 L 82.099609 76 L 98 76 C 102.5 76 106.89961 74.2 110.09961 71 C 113.29961 74.2 117.59922 76 122.19922 76 L 124.59961 76 C 127.29961 76 128.59922 72.700781 126.69922 70.800781 C 122.49922 66.800781 120 61.199219 120 55.199219 L 120 11 C 120 5.5 115.5 1 110 1 L 55 1 z M 83 10 C 84.2 10 85.400781 10.800391 85.800781 11.900391 L 100.80078 51.900391 C 101.40078 53.500391 100.59961 55.200781 99.099609 55.800781 C 98.699609 55.900781 98.4 56 98 56 C 96.8 56 95.599219 55.299609 95.199219 54.099609 L 92.199219 46 L 69 46 L 67.400391 46 L 80.199219 11.900391 C 80.599219 10.700391 81.8 10 83 10 z M 83 23.5 L 76.099609 42 L 89.900391 42 L 83 23.5 z M 37.501953 60.646484 C 36.119727 60.658789 34.862109 61.6 34.599609 63 C 34.499609 63.3 34.099219 65.400391 33.699219 68.900391 L 24.599609 68.900391 C 22.899609 68.900391 21.599609 70.200391 21.599609 71.900391 C 21.599609 73.600391 22.899609 74.900391 24.599609 74.900391 L 33.199219 74.900391 C 32.999219 77.300391 33 80.1 33 83 C 30.8 83.9 28.800391 85.000391 26.900391 86.400391 C 22.600391 89.600391 19.800781 93.900781 19.300781 98.300781 C 18.900781 101.80078 19.899219 105.2 22.199219 108 C 24.899219 111.3 28.600781 112.69922 32.300781 112.69922 C 35.400781 112.69922 38.500391 111.70039 40.900391 109.90039 C 47.000391 105.40039 51.299609 95.899609 53.599609 89.599609 C 54.099609 90.099609 54.500391 90.599219 54.900391 91.199219 C 58.900391 97.299219 55.900391 101.00039 50.400391 106.40039 C 50.100391 106.70039 49.700391 107.00039 49.400391 107.40039 C 48.200391 108.60039 48.200391 110.49961 49.400391 111.59961 C 50.600391 112.79961 52.499609 112.79961 53.599609 111.59961 L 54.5 110.69922 C 59 106.19922 66.700391 98.700391 59.900391 87.900391 C 58.800391 86.100391 57.3 84.600391 55.5 83.400391 C 55.5 83.300391 55.599609 83.199219 55.599609 83.199219 C 55.999609 81.599219 55.1 80 53.5 79.5 C 52.1 79.1 50.6 79.799609 50 81.099609 C 49.7 80.999609 49.399609 81.000391 49.099609 80.900391 C 45.899609 80.300391 42.400391 80.399609 38.900391 81.099609 C 38.900391 78.799609 38.999609 76.700781 39.099609 74.800781 L 59.800781 74.800781 C 61.500781 74.800781 62.800781 73.500781 62.800781 71.800781 C 62.800781 70.100781 61.500781 68.800781 59.800781 68.800781 L 39.699219 68.800781 C 40.099219 65.900781 40.400391 64.199219 40.400391 64.199219 C 40.700391 62.599219 39.699609 60.999219 38.099609 60.699219 C 37.899609 60.661719 37.699414 60.644727 37.501953 60.646484 z M 44.599609 86.5 C 45.799609 86.5 46.9 86.600781 48 86.800781 L 48.199219 86.800781 C 46.599219 91.200781 44.199219 96.700781 41.199219 100.80078 C 39.999219 96.200781 39.399609 91.599219 39.099609 87.199219 C 40.999609 86.799219 42.799609 86.5 44.599609 86.5 z M 33.199219 89.300781 C 33.599219 94.500781 34.600781 100 36.300781 105.5 C 33.700781 106.9 29.500781 107.3 26.800781 104 C 25.500781 102.5 24.999219 100.70078 25.199219 98.800781 C 25.499219 96.100781 27.500391 93.2 30.400391 91 C 31.300391 90.4 32.199219 89.800781 33.199219 89.300781 z M 107 121 A 3 3 0 0 0 104 124 A 3 3 0 0 0 107 127 A 3 3 0 0 0 110 124 A 3 3 0 0 0 107 121 z">
            </path>
        </symbol>
        <symbol id="money" viewBox="0 0 24 24">

            <path
                d="M 10 2 C 5.582 2 2 5.582 2 10 C 2 14.418 5.582 18 10 18 C 14.418 18 18 14.418 18 10 C 18 5.582 14.418 2 10 2 z M 9.7128906 3.5996094 L 10.720703 3.5996094 L 10.720703 5.0566406 C 11.041703 5.1176406 12.837891 5.5272969 12.837891 8.1542969 L 10.947266 8.1542969 C 10.947266 6.7812969 10.364141 6.5644531 10.119141 6.5644531 C 9.9851406 6.5644531 9.3652344 6.5995625 9.3652344 7.7265625 C 9.3662344 9.6935625 12.824219 9.0801563 12.824219 12.285156 C 12.824219 14.613156 10.912219 14.928703 10.574219 14.970703 L 10.574219 16.300781 L 9.5722656 16.300781 L 9.5722656 14.970703 C 9.2602656 14.927703 7.1621094 14.696687 7.1621094 11.804688 L 9.0527344 11.804688 C 9.0527344 13.512688 9.9324062 13.441406 10.066406 13.441406 C 10.213406 13.441406 10.935547 13.414828 10.935547 12.298828 C 10.935547 10.069828 7.4765625 11.05975 7.4765625 7.71875 C 7.4765625 5.42875 9.3738906 5.0703438 9.7128906 5.0273438 L 9.7128906 3.5996094 z M 19.890625 8.5996094 C 19.954625 9.0586094 20 9.524 20 10 C 20 15.523 15.523 20 10 20 C 9.524 20 9.0586094 19.954625 8.5996094 19.890625 C 10.023609 21.195625 11.916 22 14 22 C 18.418 22 22 18.418 22 14 C 22 11.916 21.195625 10.023609 19.890625 8.5996094 z">
            </path>
        </symbol>
        <symbol id="goal" viewBox="0 0 50 50">
            <path
                d="M 25 2 C 12.318 2 2 12.318 2 25 C 2 37.682 12.318 48 25 48 C 37.682 48 48 37.682 48 25 C 48 20.403 46.639641 16.119484 44.306641 12.521484 L 43.414062 13.414062 L 42.828125 14 L 42 14 L 40.242188 14 L 37.509766 16.732422 C 39.080766 19.103422 40 21.943 40 25 C 40 33.284 33.284 40 25 40 C 16.716 40 10 33.284 10 25 C 10 16.716 16.716 10 25 10 C 28.057 10 30.896578 10.919234 33.267578 12.490234 L 36 9.7578125 L 36 8 L 36 7.171875 L 36.585938 6.5859375 L 37.474609 5.6972656 C 33.878609 3.3632656 29.597 2 25 2 z M 43 3 L 38 8 L 38 10.585938 L 24.292969 24.292969 A 1.0001 1.0001 0 1 0 25.707031 25.707031 L 39.414062 12 L 42 12 L 47 7 L 43 7 L 43 3 z M 25 16 C 20.038 16 16 20.038 16 25 C 16 29.962 20.038 34 25 34 C 29.962 34 34 29.962 34 25 C 34 23.613 33.675281 22.304859 33.113281 21.130859 L 27.121094 27.121094 C 26.555094 27.688094 25.801 28 25 28 C 24.199 28 23.444906 27.688094 22.878906 27.121094 C 22.311906 26.555094 22 25.801 22 25 C 22 24.199 22.311906 23.444906 22.878906 22.878906 L 28.871094 16.886719 C 27.698094 16.321719 26.387 16 25 16 z">
            </path>
        </symbol>
        <symbol id="team"  viewBox="0 0 24 24">
    <path d="M 7 2 A 2 2 0 0 0 5 4 A 2 2 0 0 0 7 6 A 2 2 0 0 0 9 4 A 2 2 0 0 0 7 2 z M 12 2 A 2 2 0 0 0 10 4 A 2 2 0 0 0 12 6 A 2 2 0 0 0 14 4 A 2 2 0 0 0 12 2 z M 17 2 A 2 2 0 0 0 15 4 A 2 2 0 0 0 17 6 A 2 2 0 0 0 19 4 A 2 2 0 0 0 17 2 z M 5 7 C 3.895 7 3 7.895 3 9 L 3 16 L 4 16 L 4 22 L 6 22 L 6 14 L 5 14 L 5 9 L 6.1015625 9 C 6.2535625 8.257 6.5833906 7.584 7.0253906 7 L 5 7 z M 11 7 C 9.343 7 8 8.343 8 10 L 8 18 L 9 18 L 9 22 L 11 22 L 11 18 L 13 18 L 13 22 L 15 22 L 15 18 L 16 18 L 16 10 C 16 8.343 14.657 7 13 7 L 11 7 z M 16.974609 7 C 17.416609 7.584 17.747438 8.257 17.898438 9 L 19 9 L 19 14 L 18 14 L 18 22 L 20 22 L 20 16 L 21 16 L 21 9 C 21 7.895 20.105 7 19 7 L 16.974609 7 z"></path>
        </symbol>
    </defs>
</svg>
